<svg id="Слой_1" data-name="Слой 1" xmlns="http://www.w3.org/2000/svg" viewBox="0 0 31.8 28.6"><defs><style>.cls-1{fill:#fff;}.cls-2{fill:#f90;}</style></defs><path class="cls-1" d="M14.8,20.4a3.4,3.4,0,0,1-2.2,4.3,3.34,3.34,0,0,1-4-1.8,3.47,3.47,0,0,1,1.5-4.5,3.55,3.55,0,0,0-.4-.9C7.8,12.5,5.9,7.5,4,2.4a.22.22,0,0,0-.2-.2H1.1A1,1,0,0,1,0,1.2,1,1,0,0,1,.7.2.76.76,0,0,1,1.2,0H4.8A1.08,1.08,0,0,1,5.9.8a27.73,27.73,0,0,0,1,2.6,2.07,2.07,0,0,0,.2.6c0,.1.1.1.2.1H29.4a1.2,1.2,0,0,1,1.2,1.1.9.9,0,0,1-.1.5l-3,9.9a1.09,1.09,0,0,1-1.2.9H11.8c.2.4.3.9.5,1.3s.1.4.5.4H24.6a3.35,3.35,0,1,1-3.2,3.5v-.5c0-.2.1-.4.1-.7ZM14.6,9.9l-.3-3.5H8v.1L9.2,9.8c.1.1.1.1.2.1Zm7.1,0h4.9c.1,0,.2,0,.2-.1.2-.7.5-1.5.7-2.2a5.64,5.64,0,0,1,.4-1.2H22Zm-6,0h4.9l.3-3.5H15.5Zm.1,1.2.2,3.1h4.2l.2-3.1Zm-.9,3.1V14c-.1-.9-.1-1.8-.2-2.7,0-.2-.1-.2-.2-.2H9.8L11,14.2Zm6.5,0h3.9c.1,0,.1-.1.2-.1a12.09,12.09,0,0,0,.5-1.8l.4-1.2H21.6Zm4.3,7.3a1,1,0,0,0-1-1,1,1,0,0,0,0,2A1,1,0,0,0,25.7,21.5Zm-15.1,0a1,1,0,0,0,2,0,1.09,1.09,0,0,0-1-1.1,1.1,1.1,0,0,0-1,1.1Z" transform="translate(0 0)"/><circle class="cls-2" cx="24.7" cy="21.5" r="7.1"/></svg>