<svg width="145" height="53" viewBox="0 0 145 53" fill="none" xmlns="http://www.w3.org/2000/svg">
<g clip-path="url(#clip0_10_3)">
<path d="M0.00319386 29.017C-0.0165577 28.5017 0.0729252 27.9882 0.26558 27.5111C0.458235 27.034 0.74956 26.6046 1.11982 26.2519C7.78448 19.5289 14.4449 12.802 21.101 6.07134C22.0581 5.09886 23.2226 4.77471 24.5275 5.15884C25.8323 5.54297 26.6251 6.42792 26.9107 7.75211C27.1723 8.9742 26.8277 10.0472 25.9536 10.9289C24.0798 12.8349 22.2012 14.7356 20.3178 16.6309C16.2905 20.7012 12.2621 24.7694 8.23272 28.8355C8.10192 28.9684 8.09394 29.0348 8.23272 29.171C14.0573 35.048 19.8781 40.924 25.6951 46.7988C26.2694 47.3791 26.7384 48.0015 26.9218 48.8248C27.343 50.7212 26.0046 52.6985 24.1143 52.9611C23.5614 53.0514 22.9952 53.0032 22.4648 52.8208C21.9344 52.6383 21.4559 52.3271 21.0707 51.9141L1.38621 32.0187C1.15301 31.7951 0.932011 31.5586 0.724215 31.3105C0.214516 30.6621 -0.0421751 29.8456 0.00319386 29.017V29.017Z" fill="#43345D"/>
</g>
<path d="M38.69 38.28C37.22 38.28 36.485 37.5333 36.485 36.04V22.81C36.485 21.34 37.22 20.605 38.69 20.605C40.1367 20.605 40.86 21.34 40.86 22.81V27.5H48.42V22.81C48.42 21.34 49.1433 20.605 50.59 20.605C52.06 20.605 52.795 21.34 52.795 22.81V36.04C52.795 37.5333 52.06 38.28 50.59 38.28C49.1433 38.28 48.42 37.5333 48.42 36.04V30.93H40.86V36.04C40.86 37.5333 40.1367 38.28 38.69 38.28ZM63.4489 38.35C62.2123 38.35 61.1039 38.1167 60.1239 37.65C59.1673 37.16 58.4089 36.5067 57.8489 35.69C57.3123 34.8733 57.0439 33.9517 57.0439 32.925C57.0439 31.665 57.3706 30.6733 58.0239 29.95C58.6773 29.2033 59.7389 28.6667 61.2089 28.34C62.6789 28.0133 64.6506 27.85 67.1239 27.85H68.3489V27.115C68.3489 25.9483 68.0923 25.1083 67.5789 24.595C67.0656 24.0817 66.2023 23.825 64.9889 23.825C64.3123 23.825 63.5773 23.9067 62.7839 24.07C62.0139 24.2333 61.1973 24.5133 60.3339 24.91C59.7739 25.1667 59.3073 25.2017 58.9339 25.015C58.5606 24.805 58.3039 24.49 58.1639 24.07C58.0473 23.6267 58.0706 23.1833 58.2339 22.74C58.4206 22.2967 58.7823 21.97 59.3189 21.76C60.3923 21.3167 61.4189 21.0017 62.3989 20.815C63.4023 20.6283 64.3123 20.535 65.1289 20.535C67.6256 20.535 69.4806 21.1183 70.6939 22.285C71.9073 23.4283 72.5139 25.2133 72.5139 27.64V36.04C72.5139 37.5333 71.8373 38.28 70.4839 38.28C69.1073 38.28 68.4189 37.5333 68.4189 36.04V35.27C68.0223 36.2267 67.3923 36.985 66.5289 37.545C65.6656 38.0817 64.6389 38.35 63.4489 38.35ZM64.3589 35.34C65.5023 35.34 66.4473 34.9433 67.1939 34.15C67.9639 33.3567 68.3489 32.3533 68.3489 31.14V30.37H67.1589C64.9656 30.37 63.4373 30.545 62.5739 30.895C61.7339 31.2217 61.3139 31.8283 61.3139 32.715C61.3139 33.485 61.5823 34.115 62.1189 34.605C62.6556 35.095 63.4023 35.34 64.3589 35.34ZM83.7331 38.35C82.5431 38.35 81.3881 38.2333 80.2681 38C79.1481 37.79 78.1448 37.475 77.2581 37.055C76.7448 36.7983 76.3948 36.46 76.2081 36.04C76.0448 35.5967 76.0331 35.1883 76.1731 34.815C76.3131 34.4183 76.5814 34.1383 76.9781 33.975C77.3748 33.8117 77.8648 33.87 78.4481 34.15C79.1948 34.5 80.0231 34.7683 80.9331 34.955C81.8664 35.1183 82.7648 35.2 83.6281 35.2C85.1214 35.2 86.1831 35.025 86.8131 34.675C87.4431 34.3017 87.7581 33.7417 87.7581 32.995C87.7581 31.6183 86.8131 30.93 84.9231 30.93H81.8081C81.2714 30.93 80.8514 30.79 80.5481 30.51C80.2448 30.2067 80.0931 29.81 80.0931 29.32C80.0931 28.2933 80.6648 27.78 81.8081 27.78H84.5031C85.3198 27.78 85.9614 27.6167 86.4281 27.29C86.8948 26.94 87.1281 26.45 87.1281 25.82C87.1281 25.1433 86.8481 24.6183 86.2881 24.245C85.7514 23.8717 84.7714 23.685 83.3481 23.685C82.5314 23.685 81.7381 23.7667 80.9681 23.93C80.1981 24.07 79.4398 24.3033 78.6931 24.63C78.1331 24.8633 77.6548 24.91 77.2581 24.77C76.8848 24.6067 76.6164 24.3383 76.4531 23.965C76.2898 23.5917 76.2781 23.2067 76.4181 22.81C76.5581 22.4133 76.8731 22.0983 77.3631 21.865C78.3898 21.3983 79.4514 21.06 80.5481 20.85C81.6681 20.64 82.8464 20.535 84.0831 20.535C86.3698 20.535 88.1081 20.9667 89.2981 21.83C90.5114 22.67 91.1181 23.8483 91.1181 25.365C91.1181 26.2283 90.8731 26.9983 90.3831 27.675C89.8931 28.3283 89.2281 28.8067 88.3881 29.11C89.4614 29.3667 90.2898 29.845 90.8731 30.545C91.4564 31.245 91.7481 32.1317 91.7481 33.205C91.7481 34.7683 91.0598 36.0167 89.6831 36.95C88.3064 37.8833 86.3231 38.35 83.7331 38.35ZM101.252 38.35C100.015 38.35 98.9067 38.1167 97.9267 37.65C96.97 37.16 96.2117 36.5067 95.6517 35.69C95.115 34.8733 94.8467 33.9517 94.8467 32.925C94.8467 31.665 95.1733 30.6733 95.8267 29.95C96.48 29.2033 97.5417 28.6667 99.0117 28.34C100.482 28.0133 102.453 27.85 104.927 27.85H106.152V27.115C106.152 25.9483 105.895 25.1083 105.382 24.595C104.868 24.0817 104.005 23.825 102.792 23.825C102.115 23.825 101.38 23.9067 100.587 24.07C99.8167 24.2333 99 24.5133 98.1367 24.91C97.5767 25.1667 97.11 25.2017 96.7367 25.015C96.3633 24.805 96.1067 24.49 95.9667 24.07C95.85 23.6267 95.8733 23.1833 96.0367 22.74C96.2233 22.2967 96.585 21.97 97.1217 21.76C98.195 21.3167 99.2217 21.0017 100.202 20.815C101.205 20.6283 102.115 20.535 102.932 20.535C105.428 20.535 107.283 21.1183 108.497 22.285C109.71 23.4283 110.317 25.2133 110.317 27.64V36.04C110.317 37.5333 109.64 38.28 108.287 38.28C106.91 38.28 106.222 37.5333 106.222 36.04V35.27C105.825 36.2267 105.195 36.985 104.332 37.545C103.468 38.0817 102.442 38.35 101.252 38.35ZM102.162 35.34C103.305 35.34 104.25 34.9433 104.997 34.15C105.767 33.3567 106.152 32.3533 106.152 31.14V30.37H104.962C102.768 30.37 101.24 30.545 100.377 30.895C99.5367 31.2217 99.1167 31.8283 99.1167 32.715C99.1167 33.485 99.385 34.115 99.9217 34.605C100.458 35.095 101.205 35.34 102.162 35.34ZM115.516 42.83C114.256 42.83 113.626 42.1767 113.626 40.87V36.6C113.626 35.2467 114.302 34.57 115.656 34.57C116.309 33.4733 116.776 32.2483 117.056 30.895C117.336 29.5417 117.476 27.8267 117.476 25.75V23.335C117.476 21.7017 118.292 20.885 119.926 20.885H128.361C129.994 20.885 130.811 21.7017 130.811 23.335V34.57H131.581C132.934 34.57 133.611 35.2467 133.611 36.6V40.87C133.611 42.1767 132.992 42.83 131.756 42.83C130.519 42.83 129.901 42.1767 129.901 40.87V38H117.336V40.87C117.336 42.1767 116.729 42.83 115.516 42.83ZM119.541 34.57H126.716V24.245H121.221V26.765C121.221 28.235 121.069 29.6583 120.766 31.035C120.486 32.4117 120.077 33.59 119.541 34.57Z" fill="#46315E"/>
<defs>
<clipPath id="clip0_10_3">
<rect width="27" height="48" fill="white" transform="translate(0 5)"/>
</clipPath>
</defs>
</svg>
