<svg id="Слой_1" data-name="Слой 1" xmlns="http://www.w3.org/2000/svg" viewBox="0 0 381.1 356.29"><defs><style>.cls-1{fill:#fff;}.cls-2{fill:#3e2866;}.cls-3{fill:#ee6f3e;}</style></defs><path class="cls-1" d="M313.09,464.14c-68,0-123.17,25.06-123.17,56s55.14,56,123.17,56,123.17-25.06,123.17-56-55.15-56-123.17-56Z" transform="translate(-60.19 -244.17)"/><path class="cls-2" d="M232.19,412.58c-1.77,0-3.54,0-5.3,0a24.23,24.23,0,0,1-4.42-.32c-2.25-.34-4.52-.54-6.77-.92-7.8-1.31-15.44-3.18-22.59-6.65a28.56,28.56,0,0,1-10.47-8c-4.64-6-5.58-12.41-2.36-19.37a23,23,0,0,1,10.32-10.72,49.35,49.35,0,0,1,15.4-4.91,70.72,70.72,0,0,1,11.8-.6,43.1,43.1,0,0,1,7.32,1,75.53,75.53,0,0,1,9.58,2.6c0-1.15,0-2.17,0-3.18a13.09,13.09,0,0,1,5.87-10.77c4.58-3.22,9.67-3.91,15.17-2.87a38.77,38.77,0,0,1,16.52,7.38,50.74,50.74,0,0,1,8,8.18c.24.28.48.56.71.85s.64.41,1.12.21a16.35,16.35,0,0,1,3.28-1.22c5.78-1,10.59,1,14.7,4.83s6.61,9,8.05,14.49a7.5,7.5,0,0,0,1,2.54,6.66,6.66,0,0,1,1.07,3.12c.24,1.89.53,3.78.75,5.67a2,2,0,0,0,1.28,1.81c2.24,1,4.46,2.1,6.67,3.18s4.09,2.26,6.15,3.37c3.63,2,7.16,4.08,10.59,6.39a17,17,0,0,1,2.73,2.2c2.47,2.58,2.52,5.55.79,8.45a30.85,30.85,0,0,1-3.14,4c.26.48.57.3.83.2,4.08-1.55,8.12-3.2,12.24-4.64,4.83-1.68,9.7-3.24,14.59-4.73s9.66-2.92,14.6-4c4.57-1,9.15-1.9,13.79-2.57s9-1.16,13.56-1.73a24.47,24.47,0,0,1,7.2-.1,5.67,5.67,0,0,1,4.41,3.55,14.49,14.49,0,0,1,1,6.89,40,40,0,0,0,.14,6.83c.43,4.16.74,8.34,1.26,12.49.47,3.84,1.19,7.66,1.74,11.49s1.05,7.68,1.58,11.52a50.2,50.2,0,0,1,.83,7.14,77.25,77.25,0,0,1-1.43,13.57,55.15,55.15,0,0,1-1.54,6.64,70.77,70.77,0,0,1-5.26,12.74A76,76,0,0,1,406.4,512a92.28,92.28,0,0,1-9.47,9.6,103,103,0,0,1-14.29,10.48,115,115,0,0,1-16.81,8.37,152,152,0,0,1-16.43,5.46,63.12,63.12,0,0,1-8,1.64c-1.4.2-2.76.58-4.16.82a156.51,156.51,0,0,1-22.46,2c-3.63.1-7.26-.33-10.89-.57-3-.19-5.89-.65-8.84-.89a43.56,43.56,0,0,1-4.93-.78,135.85,135.85,0,0,1-17.38-4.22,134.06,134.06,0,0,1-20.41-8.47,108.77,108.77,0,0,1-18.58-12.37,87.43,87.43,0,0,1-16.65-18.23A70.23,70.23,0,0,1,209.08,489a59.89,59.89,0,0,1-3.29-14.7,64.28,64.28,0,0,1-.38-8.66,66.32,66.32,0,0,1,1.48-11.33,64.94,64.94,0,0,1,3.38-10.88,75.56,75.56,0,0,1,13.8-21.72c2.68-2.95,5.07-6.18,8.25-8.68,0-.13-.09-.27-.13-.41Zm176.32,14.58c0-2.91,0-5,0-7.1,0-2.4-.91-3.07-3.24-2.66-1.88.33-3.76.68-5.65.93-2.25.31-4.52.49-6.77.78-1.89.25-3.75.77-5.62,1a91.12,91.12,0,0,0-12.06,2.72c-4.38,1.18-8.72,2.54-13.06,3.92-5.27,1.68-10.5,3.45-15.67,5.4q-7.33,2.77-14.49,5.94c-4.44,2-8.83,4-13.13,6.31a174.37,174.37,0,0,0-17.2,10c-3.12,2.13-7.54,1.25-9-1.89a10.26,10.26,0,0,1-.73-7.87,5.39,5.39,0,0,1,1.06-1.7,24.54,24.54,0,0,1,3.84-3.44c3.18-2.53,6.32-5.1,9.5-7.61,2.79-2.21,5.62-4.37,8.45-6.53,1.71-1.3,3.45-2.56,5.18-3.84s3.47-2.54,5.18-3.84c1.28-1,1.24-1.39-.14-2.29-.31-.2-.65-.36-1-.54-1.39-.79-2.76-1.61-4.17-2.37-3-1.59-5.86-3.38-9-4.76a38.07,38.07,0,0,1-6.09-3c-1.78-1.22-3.55-2.52-4.27-4.69a20.16,20.16,0,0,1-1.23-5.74,4.75,4.75,0,0,0-.38-1.79,26.82,26.82,0,0,1-1.64-5.84,19.11,19.11,0,0,0-3.68-8.54,8.49,8.49,0,0,0-4.49-3.38,1.65,1.65,0,0,0-2.17.77c-.31.53-.65,1.05-1,1.57-1.34,2.16-2.7,2.7-5.11,2-.42-.12-.85-.18-1.26-.33-2.37-.85-4.53-1.94-5.39-4.58a2.79,2.79,0,0,0-.58-.94c-2.88-3.18-5.32-6.77-8.88-9.31-4.16-3-8.65-4.87-13.86-4.77a8.2,8.2,0,0,0-2.53.44c-1.63.55-2.12,1.56-1.8,3.26a6.8,6.8,0,0,0,1.2,2.46c1.6,2.41,3.32,4.73,5.12,7a8.12,8.12,0,0,1,1.93,4.31c.18,2.07-.16,4.14-2.08,5.19-2.63,1.43-5.42,2.32-8.42.62-2.56-1.46-5.07-3-7.69-4.36a43.61,43.61,0,0,0-10.14-3.84c-5.25-1.24-10.56-2.2-16.08-1.43A48.36,48.36,0,0,0,198,375.71a13.33,13.33,0,0,0-6.38,4.81A7.83,7.83,0,0,0,192.9,391a24.9,24.9,0,0,0,7.22,4.34A82.32,82.32,0,0,0,215,399.55a75,75,0,0,0,13,1.25,85.31,85.31,0,0,0,13.84-.23,16.35,16.35,0,0,1,4.78.31,4.29,4.29,0,0,1,2,.93,13,13,0,0,1,3,3.29,5.47,5.47,0,0,1,.24,5.92,13.44,13.44,0,0,1-3,3.39c-2.82,2.55-6,4.68-8.8,7.28-2.21,2.05-4.49,4-6.68,6.07a39.82,39.82,0,0,0-3.81,4.49,58.59,58.59,0,0,0-11.58,23.61,51.63,51.63,0,0,0-1.35,12.06c0,2,.13,4.05.34,6.08a52.53,52.53,0,0,0,3.7,14.2,63.93,63.93,0,0,0,10,16.48A75.54,75.54,0,0,0,243,516.56a102.19,102.19,0,0,0,16.38,10.21,121.42,121.42,0,0,0,16.2,6.55,115.2,115.2,0,0,0,12.65,3.29,96.13,96.13,0,0,0,11.66,1.83c4.65.39,9.32.87,14,.81,2.71,0,5.42-.06,8.12-.25a65.76,65.76,0,0,0,7.18-.56c4.59-.83,9.23-1.32,13.8-2.36a128.21,128.21,0,0,0,14.86-4.28,103.14,103.14,0,0,0,13.46-5.92,98.52,98.52,0,0,0,18.33-12.29A73.24,73.24,0,0,0,403,498.42a60,60,0,0,0,8.21-19,32.26,32.26,0,0,0,.7-4.18c.34-3.11.81-6.2,0-9.31a1.52,1.52,0,0,1,0-.37,59.82,59.82,0,0,0-1.7-12.91,31.37,31.37,0,0,1-.91-7.29,62.72,62.72,0,0,0-.18-7.39,82.76,82.76,0,0,1-.55-10.79Zm-72.72-3.49-.12-.06-.12.1c.06.15.15.17.23.07v-.11Z" transform="translate(-60.19 -244.17)"/><path class="cls-1" d="M232.19,412.58v-3H229c-.72,0-1.45,0-2.2,0h-.5a22.39,22.39,0,0,1-3.36-.3c-2.38-.36-4.63-.55-6.72-.9-7.67-1.29-15-3.11-21.79-6.4a25.4,25.4,0,0,1-9.39-7.19,18.37,18.37,0,0,1-2.75-4.77,13.1,13.1,0,0,1-.89-4.74,16,16,0,0,1,1.62-6.76,19.32,19.32,0,0,1,3.7-5.39,22,22,0,0,1,5.33-4,46.17,46.17,0,0,1,14.47-4.59,66.91,66.91,0,0,1,11.31-.56h0a41.79,41.79,0,0,1,6.78,1,72.56,72.56,0,0,1,9.2,2.51l3.88,1.2v-4.07c0-.75,0-1.43,0-2.05,0-.36,0-.71,0-1a10.29,10.29,0,0,1,1.23-4.77,10.82,10.82,0,0,1,3.36-3.63,14.89,14.89,0,0,1,8.89-2.78,21.09,21.09,0,0,1,4,.4,35.77,35.77,0,0,1,15.26,6.82,47.94,47.94,0,0,1,7.52,7.71l.64.77a3.89,3.89,0,0,0,1.19,1,3.63,3.63,0,0,0,1.77.46,3.92,3.92,0,0,0,1-.13,6.6,6.6,0,0,0,.67-.22c.64-.27,1.17-.52,1.61-.7a5,5,0,0,1,1.06-.35,13.67,13.67,0,0,1,2.41-.22,12.13,12.13,0,0,1,5.06,1.11,17.69,17.69,0,0,1,4.66,3.19,22.26,22.26,0,0,1,4.46,5.86,33,33,0,0,1,2.73,7.19,15.25,15.25,0,0,0,.49,1.61,8.42,8.42,0,0,0,1,1.93,2.18,2.18,0,0,1,.3.63,6.39,6.39,0,0,1,.22,1.11c.25,1.95.54,3.82.75,5.63a6.14,6.14,0,0,0,.28,1.28,4.87,4.87,0,0,0,1.14,1.83,5.5,5.5,0,0,0,1.58,1.08c2.21,1,4.41,2.08,6.61,3.16,1.93.94,3.89,2.14,6,3.31,3.55,1.92,7,4,10.34,6.24a13.28,13.28,0,0,1,2.24,1.79,4.51,4.51,0,0,1,.92,1.31,3.16,3.16,0,0,1,.24,1.15,4.75,4.75,0,0,1-.78,2.38,28.58,28.58,0,0,1-2.85,3.61L332.42,423l1,1.82a3.63,3.63,0,0,0,1.14,1.26,3.47,3.47,0,0,0,1.89.58,4,4,0,0,0,1.17-.2l.25-.09.05,0h0l-.19-.46.18.47h0l-.19-.46.18.47h0c4.13-1.57,8.15-3.22,12.17-4.62,4.78-1.66,9.61-3.21,14.47-4.69s9.58-2.89,14.37-3.94c4.53-1,9-1.87,13.58-2.53s9-1.15,13.52-1.73a31.51,31.51,0,0,1,3.88-.3,14.77,14.77,0,0,1,2.43.19,2.71,2.71,0,0,1,1.28.55,3.32,3.32,0,0,1,.88,1.25,10.3,10.3,0,0,1,.77,4.17c0,.43,0,.86-.05,1.31q-.09,1.36-.09,2.73a43.86,43.86,0,0,0,.24,4.6c.42,4.11.73,8.31,1.26,12.56.49,4,1.21,7.8,1.76,11.55s1,7.64,1.57,11.5a49.69,49.69,0,0,1,.8,6.7v0a74.19,74.19,0,0,1-1.38,13.05A52.82,52.82,0,0,1,418,485a68.22,68.22,0,0,1-5,12.21,73.27,73.27,0,0,1-8.8,12.87,89.22,89.22,0,0,1-9.16,9.29,99.31,99.31,0,0,1-13.88,10.17,111.47,111.47,0,0,1-16.37,8.15A148.86,148.86,0,0,1,348.6,543a61.71,61.71,0,0,1-7.58,1.56c-1.66.24-3.06.63-4.26.84a153.13,153.13,0,0,1-22,2h-1.09c-3,0-6.18-.35-9.52-.57-2.78-.18-5.68-.64-8.79-.89a41.78,41.78,0,0,1-4.6-.73,135.36,135.36,0,0,1-17-4.12,130.39,130.39,0,0,1-19.94-8.28,105.36,105.36,0,0,1-18.07-12,84,84,0,0,1-16.08-17.6A67.29,67.29,0,0,1,211.91,488a57.27,57.27,0,0,1-3.14-14c-.21-2.32-.4-4.55-.4-6.71,0-.52,0-1,0-1.54a63,63,0,0,1,1.41-10.82A61.58,61.58,0,0,1,213,444.54a72.51,72.51,0,0,1,13.25-20.85c1.41-1.56,2.68-3.11,4-4.53a31.88,31.88,0,0,1,3.93-3.81l1.65-1.29-.64-2-.14-.41-.67-2.08h-2.18v3l-2.86.92c0,.14.09.28.14.41l2.85-.92-1.85-2.36a36.91,36.91,0,0,0-4.7,4.53c-1.39,1.55-2.65,3.09-3.92,4.5a78.51,78.51,0,0,0-14.35,22.57A67.34,67.34,0,0,0,204,453.61a68.93,68.93,0,0,0-1.56,11.86c0,.61,0,1.21,0,1.81,0,2.5.22,4.91.43,7.25A63.16,63.16,0,0,0,206.25,490a73.14,73.14,0,0,0,8.41,16.59,89.73,89.73,0,0,0,17.21,18.85A111.72,111.72,0,0,0,251,538.12a136.13,136.13,0,0,0,20.86,8.67,140.32,140.32,0,0,0,17.76,4.32,48,48,0,0,0,5.26.82c2.8.22,5.74.69,8.88.9s6.44.58,9.91.58c.42,0,.85,0,1.27,0a158.57,158.57,0,0,0,22.89-2.07c1.59-.28,2.92-.65,4.06-.81a66.35,66.35,0,0,0,8.34-1.72A153.59,153.59,0,0,0,367,543.22a116.55,116.55,0,0,0,17.25-8.6,105.61,105.61,0,0,0,14.72-10.78,95.24,95.24,0,0,0,9.77-9.91A79.87,79.87,0,0,0,418.21,500a75.19,75.19,0,0,0,5.48-13.28,60.23,60.23,0,0,0,1.63-7,80.29,80.29,0,0,0,1.47-14.09h0v0a53,53,0,0,0-.86-7.52c-.53-3.82-1-7.67-1.58-11.54s-1.27-7.71-1.74-11.43c-.5-4.05-.81-8.21-1.24-12.43a38.38,38.38,0,0,1-.21-4c0-.77,0-1.55.08-2.32,0-.56.06-1.14.06-1.72a16.3,16.3,0,0,0-1.27-6.58,9.29,9.29,0,0,0-2.57-3.47,8.58,8.58,0,0,0-4.09-1.83,20.33,20.33,0,0,0-3.43-.28,36.13,36.13,0,0,0-4.65.35c-4.48.57-9,1.08-13.61,1.74-4.73.69-9.39,1.6-14,2.61-5.08,1.12-10,2.6-14.83,4.06S353,414.33,348.15,416c-4.22,1.47-8.29,3.13-12.33,4.67h0l-.14.05h0l.8,2.1v-2.23a2.25,2.25,0,0,0-.8.13l.8,2.1v.38l1.46-2.17a2.62,2.62,0,0,0-1.46-.44v2.61l1.46-2.17-1.28,1.9,2-1.13a2.29,2.29,0,0,0-.73-.77l-1.28,1.9,2-1.13-2.61,1.47,2.29,1.94a32.69,32.69,0,0,0,3.43-4.42,10.7,10.7,0,0,0,1.62-5.44,9,9,0,0,0-.73-3.52,10.43,10.43,0,0,0-2.1-3.1,19.18,19.18,0,0,0-3.21-2.6c-3.52-2.37-7.14-4.54-10.85-6.55-2-1.06-4-2.3-6.25-3.42s-4.47-2.17-6.72-3.22h0l-.52.9.86-.54a1,1,0,0,0-.34-.36l-.52.9.86-.54-.86.54,1-.31a1.08,1.08,0,0,0-.11-.23l-.86.54,1-.31-.32.11.33-.07v0l-.32.11.33-.07v0c-.23-2-.53-3.87-.76-5.7a12.09,12.09,0,0,0-.44-2.15,8.36,8.36,0,0,0-1.17-2.36,1.91,1.91,0,0,1-.26-.52c-.1-.25-.19-.59-.31-1a38.09,38.09,0,0,0-3.24-8.5,28.06,28.06,0,0,0-5.68-7.43,23.6,23.6,0,0,0-6.26-4.26,18.28,18.28,0,0,0-7.53-1.64,19.74,19.74,0,0,0-3.47.32,11.22,11.22,0,0,0-2.3.7l-1.59.7h0l.61,1.61v-1.71a1.73,1.73,0,0,0-.61.1l.61,1.61V364l1.15-2.07a2.38,2.38,0,0,0-1.15-.3V364l1.15-2.07-1,1.79,1.63-1.26a2.13,2.13,0,0,0-.64-.53l-1,1.79,1.63-1.26c-.31-.4-.58-.7-.78-.94a53.55,53.55,0,0,0-8.49-8.64,41.7,41.7,0,0,0-17.78-7.94,27.1,27.1,0,0,0-5.12-.51,21,21,0,0,0-12.34,3.87,16.9,16.9,0,0,0-5.17,5.65,16.38,16.38,0,0,0-2,7.48c0,.42,0,.82,0,1.22,0,.68,0,1.35,0,2.05h3l.89-2.87a80.89,80.89,0,0,0-10-2.69,45.87,45.87,0,0,0-7.78-1h0a72.67,72.67,0,0,0-12.31.64,52.38,52.38,0,0,0-16.32,5.23,27.85,27.85,0,0,0-6.76,5,25.11,25.11,0,0,0-4.85,7.06,22,22,0,0,0-2.18,9.28,19.48,19.48,0,0,0,1.27,6.86,24.6,24.6,0,0,0,3.62,6.33,31.44,31.44,0,0,0,11.53,8.91c7.53,3.65,15.46,5.57,23.4,6.91,2.42.41,4.7.6,6.82.92a27.68,27.68,0,0,0,4.26.37l.71,0c.65,0,1.31,0,2,0h3.21v-3l-2.86.92,2.86-.92Zm176.32,14.58h3c0-1.77,0-3.24,0-4.62,0-.87,0-1.7,0-2.54a8.92,8.92,0,0,0-.21-1.9,5.6,5.6,0,0,0-.58-1.48,4.56,4.56,0,0,0-2.59-2.08,5.5,5.5,0,0,0-1.74-.25,9.13,9.13,0,0,0-1.65.16c-1.89.33-3.72.67-5.52.91-2.15.29-4.41.48-6.76.78-2.18.29-4,.81-5.61,1a93.62,93.62,0,0,0-12.46,2.8c-4.46,1.2-8.84,2.57-13.19,3.95-5.31,1.69-10.58,3.48-15.82,5.46q-7.41,2.79-14.64,6c-4.48,2-8.94,4.07-13.33,6.4a177,177,0,0,0-17.48,10.15,3.76,3.76,0,0,1-2.1.65,3.29,3.29,0,0,1-1.62-.41,2.11,2.11,0,0,1-.91-.94,8.52,8.52,0,0,1-.92-3.65,6.09,6.09,0,0,1,.32-2,.81.81,0,0,1,.12-.22,6.85,6.85,0,0,1,.42-.55,22,22,0,0,1,3.4-3c3.19-2.55,6.32-5.12,9.48-7.61,2.77-2.19,5.58-4.34,8.41-6.49,1.66-1.27,3.4-2.52,5.15-3.82s3.46-2.54,5.2-3.86a6.82,6.82,0,0,0,1.18-1.09,3.62,3.62,0,0,0,.61-1,3.56,3.56,0,0,0,.33-1.49,3.64,3.64,0,0,0-.39-1.61,4.23,4.23,0,0,0-1.05-1.32,8.77,8.77,0,0,0-1-.74c-.56-.35-.95-.53-1.13-.63-1.35-.77-2.74-1.6-4.24-2.4-2.87-1.53-5.81-3.36-9.16-4.86a35.43,35.43,0,0,1-5.62-2.79,14.83,14.83,0,0,1-2.11-1.64,3.79,3.79,0,0,1-1-1.51,17.06,17.06,0,0,1-1.08-4.87,7.88,7.88,0,0,0-.61-2.87,24.18,24.18,0,0,1-1.46-5.2,22.07,22.07,0,0,0-4.24-9.85,14.71,14.71,0,0,0-2.45-2.58,9.89,9.89,0,0,0-3.64-1.87,5.76,5.76,0,0,0-1.57-.23,4.57,4.57,0,0,0-1.19.15,4.41,4.41,0,0,0-1.71.91,5.11,5.11,0,0,0-1.08,1.31c-.27.46-.59,1-.93,1.51a3,3,0,0,1-.68.85l0,0h-.13a3.69,3.69,0,0,1-.92-.16c-.67-.18-1-.24-1-.26a9.23,9.23,0,0,1-2.48-1.2,2.88,2.88,0,0,1-1.08-1.49,5.68,5.68,0,0,0-1.21-2c-1.35-1.49-2.67-3.17-4.15-4.86a29.78,29.78,0,0,0-12.27-8.73,23.31,23.31,0,0,0-8.16-1.48h-.44a11.21,11.21,0,0,0-3.44.6,6.5,6.5,0,0,0-1.49.7,5.23,5.23,0,0,0-1.84,2,5.34,5.34,0,0,0-.59,2.53,7.52,7.52,0,0,0,.92,3.61,16.2,16.2,0,0,0,.87,1.41c1.66,2.49,3.43,4.88,5.27,7.2a7.47,7.47,0,0,1,.93,1.43,3.64,3.64,0,0,1,.36,1.27c0,.24,0,.46,0,.67a3.17,3.17,0,0,1-.19,1.23.7.7,0,0,1-.14.22,1,1,0,0,1-.23.17,11,11,0,0,1-2,.89,5.07,5.07,0,0,1-1.6.3,3.78,3.78,0,0,1-1.93-.55c-2.5-1.41-5-3-7.78-4.4a46.72,46.72,0,0,0-10.84-4.1,55.25,55.25,0,0,0-12.67-1.79,33.24,33.24,0,0,0-4.52.31A50.92,50.92,0,0,0,196.81,373a23,23,0,0,0-4.08,2.2,13.79,13.79,0,0,0-3.64,3.73,11.43,11.43,0,0,0-1.92,6.22,10.53,10.53,0,0,0,1,4.37,11.5,11.5,0,0,0,2.75,3.72,27.6,27.6,0,0,0,8.07,4.89,86.65,86.65,0,0,0,15.41,4.41,78.69,78.69,0,0,0,13.51,1.31c2.12.1,4.27.17,6.45.17a67.81,67.81,0,0,0,7.88-.42,9.08,9.08,0,0,1,.91-.05,17.23,17.23,0,0,1,3,.34,1.14,1.14,0,0,1,.61.29,10.17,10.17,0,0,1,2.29,2.53,3.17,3.17,0,0,1,.56,1.63,2.62,2.62,0,0,1-.39,1.29,5.42,5.42,0,0,1-.93,1.2c-.41.42-.92.87-1.51,1.4-2.59,2.37-5.79,4.51-8.83,7.32-2.14,2-4.43,3.95-6.69,6.08a41.05,41.05,0,0,0-4.11,4.82,61.57,61.57,0,0,0-12.15,24.81,55.3,55.3,0,0,0-1.43,12.15c0,.2,0,.4,0,.6,0,2.12.14,4.23.36,6.35a55.37,55.37,0,0,0,3.9,15,66.77,66.77,0,0,0,10.49,17.25,77.77,77.77,0,0,0,12.85,12.35A104.86,104.86,0,0,0,258,529.45a124.84,124.84,0,0,0,16.6,6.72,117.11,117.11,0,0,0,13,3.37,97.77,97.77,0,0,0,12,1.89c4.35.36,8.82.83,13.45.83h.85c2.7,0,5.47-.06,8.3-.26a70.2,70.2,0,0,0,7.49-.59c4.45-.81,9.13-1.31,13.94-2.39a131.31,131.31,0,0,0,15.2-4.39,105.07,105.07,0,0,0,13.85-6.09,101.8,101.8,0,0,0,18.88-12.66,76.15,76.15,0,0,0,13.93-15.79,63,63,0,0,0,8.62-20,34.48,34.48,0,0,0,.77-4.56,52,52,0,0,0,.46-5.76,17.66,17.66,0,0,0-.58-4.67l-2.42.66h2.51a2.74,2.74,0,0,0-.09-.66l-2.42.66H413l1.84.09v-.09H413l1.84.09h0s0-.13,0-.32v0l-2.88,0,2.88.11v-.13l-2.88,0,2.88.11v-.14A62.56,62.56,0,0,0,413.07,452a28.58,28.58,0,0,1-.83-6.43v-.16h0c0-.94,0-1.9,0-2.88a47.36,47.36,0,0,0-.21-4.85,88.29,88.29,0,0,1-.56-9c0-.49,0-1,0-1.4v-.1h-3l-3-.11c0,.52,0,1.06,0,1.61a94.74,94.74,0,0,0,.59,9.61,40.59,40.59,0,0,1,.18,4.21c0,.92,0,1.87,0,2.83h0v.22a34.52,34.52,0,0,0,1,7.78,57.55,57.55,0,0,1,1.62,12.26l3,0-3-.11v.13h0l2.72,0h-2.72v0l2.72,0h-.89l-1.83-.09v.09h1.83l-1.83-.09h0s0,.13,0,.32a3.36,3.36,0,0,0,.12.92,11.48,11.48,0,0,1,.37,3.09,47.8,47.8,0,0,1-.43,5.1,27.77,27.77,0,0,1-.62,3.79,57.09,57.09,0,0,1-7.8,18.08,70.07,70.07,0,0,1-12.83,14.55,95.56,95.56,0,0,1-17.78,11.92A100.41,100.41,0,0,1,356.8,529a125,125,0,0,1-14.51,4.19c-4.35,1-8.94,1.48-13.68,2.33-1.95.36-4.28.34-6.85.52s-5.23.21-7.95.24H313c-4.21,0-8.53-.44-13-.81a92.12,92.12,0,0,1-11.29-1.78,108.28,108.28,0,0,1-12.31-3.2,117.08,117.08,0,0,1-15.81-6.38,98.87,98.87,0,0,1-15.9-9.91,72.84,72.84,0,0,1-11.87-11.4,61.11,61.11,0,0,1-9.57-15.7,49.1,49.1,0,0,1-3.49-13.39q-.3-2.9-.33-5.8c0-.18,0-.36,0-.53a48.94,48.94,0,0,1,1.29-10.84,55.6,55.6,0,0,1,11-22.41,37,37,0,0,1,3.52-4.16c2.11-2,4.4-4,6.66-6.06,2.55-2.39,5.73-4.51,8.77-7.26.52-.47,1.14-1,1.79-1.67a11.75,11.75,0,0,0,1.88-2.49,8.74,8.74,0,0,0,1.13-4.18,9.12,9.12,0,0,0-1.44-4.75,16.07,16.07,0,0,0-3.61-4.05,7.28,7.28,0,0,0-3.34-1.56,22.66,22.66,0,0,0-4-.43,14.89,14.89,0,0,0-1.61.09,60.88,60.88,0,0,1-7.18.38c-2,0-4.1-.07-6.18-.16a72.92,72.92,0,0,1-12.49-1.19,80.65,80.65,0,0,1-14.36-4.06,21.89,21.89,0,0,1-6.37-3.8,5.62,5.62,0,0,1-1.34-1.79,4.57,4.57,0,0,1-.41-1.87,5.36,5.36,0,0,1,1-2.94,7.52,7.52,0,0,1,2.07-2.1,15.4,15.4,0,0,1,3-1.59,45,45,0,0,1,11.57-2.73,25.3,25.3,0,0,1,3.68-.26,49.09,49.09,0,0,1,11.29,1.63,41,41,0,0,1,9.44,3.58c2.5,1.3,5,2.82,7.6,4.31a9.94,9.94,0,0,0,4.89,1.32,11.26,11.26,0,0,0,3.5-.6,19,19,0,0,0,3-1.32A7,7,0,0,0,255.9,383a7.21,7.21,0,0,0,1.51-2.75,9.8,9.8,0,0,0,.36-2.72c0-.41,0-.8,0-1.18a9.81,9.81,0,0,0-.92-3.33,13.73,13.73,0,0,0-1.65-2.6c-1.76-2.2-3.43-4.46-5-6.78a10.17,10.17,0,0,1-.57-.91,1.55,1.55,0,0,1-.18-.45,1.46,1.46,0,0,1,0-.34v0l-.29,0,.28.06v0l-.29,0,.28.06-.92-.19.65.67a1.07,1.07,0,0,0,.27-.48l-.92-.19.65.67-.43-.44.37.5.06-.06-.43-.44.37.5-.11-.14.09.15h0l-.11-.14.09.15.22-.09a5,5,0,0,1,1.61-.28h.33a17.15,17.15,0,0,1,6.07,1.11,24.33,24.33,0,0,1,5.66,3.1,25.32,25.32,0,0,1,4.19,3.95c1.34,1.53,2.68,3.24,4.21,4.93l0,0h0l.63-.43-.72.24a1.07,1.07,0,0,0,.09.19l.63-.43-.72.24a8.92,8.92,0,0,0,1.32,2.57,9.53,9.53,0,0,0,2.89,2.54,17.39,17.39,0,0,0,3,1.37,13,13,0,0,0,1.46.38,9.28,9.28,0,0,0,2.53.39,6.54,6.54,0,0,0,1.84-.26,6.24,6.24,0,0,0,2.43-1.39,9.43,9.43,0,0,0,1.67-2.07c.31-.49.65-1,1-1.63h0l-1-.67.6,1a1.46,1.46,0,0,0,.43-.37l-1-.67.6,1-.77-1.33v1.55a1.54,1.54,0,0,0,.77-.22l-.77-1.33V377l-.1.6h.1V377l-.1.6.09,0a4,4,0,0,1,1.46.77,8.37,8.37,0,0,1,1.44,1.54,16.07,16.07,0,0,1,3.1,7.22,29.81,29.81,0,0,0,1.83,6.5,1.68,1.68,0,0,1,.15.69,22.32,22.32,0,0,0,1.39,6.62,9.64,9.64,0,0,0,2.46,3.89,20.36,20.36,0,0,0,3,2.34,41.32,41.32,0,0,0,6.56,3.32c2.86,1.26,5.68,3,8.78,4.66,1.32.71,2.67,1.51,4.1,2.33.47.26.75.39.81.44l.28.19,0,0h0l1-1.09-1.23.75a1.25,1.25,0,0,0,.27.34l1-1.09-1.23.75,2-1.24H323a2.42,2.42,0,0,0,.34,1.24l2-1.24h0l-2.18-1a2.43,2.43,0,0,0-.21,1h2.39l-2.18-1,1.42.64-1.12-1.11a1.69,1.69,0,0,0-.3.47l1.42.64-1.12-1.11h0l-.24.2c-1.69,1.27-3.42,2.54-5.15,3.82s-3.47,2.53-5.22,3.87c-2.83,2.16-5.67,4.33-8.49,6.55-3.21,2.54-6.36,5.11-9.51,7.63a26.89,26.89,0,0,0-4.29,3.88,13.16,13.16,0,0,0-.8,1.06,7,7,0,0,0-.78,1.57,12.16,12.16,0,0,0-.64,3.9,14.6,14.6,0,0,0,1.5,6.24,8.15,8.15,0,0,0,3.38,3.58,9.43,9.43,0,0,0,4.57,1.18,9.77,9.77,0,0,0,5.49-1.7,171.18,171.18,0,0,1,16.91-9.8c4.21-2.24,8.53-4.27,12.93-6.21q7.1-3.14,14.34-5.88c5.11-1.93,10.28-3.69,15.52-5.35,4.33-1.38,8.63-2.72,12.93-3.88a88.64,88.64,0,0,1,11.66-2.64c2.17-.29,4-.82,5.62-1,2.16-.28,4.44-.47,6.8-.79,2-.26,3.89-.62,5.76-.95a2.91,2.91,0,0,1,.6-.06h.06l.11-1-.5.87a1,1,0,0,0,.39.15l.11-1-.5.87.76-1.32-1.19.95a1.56,1.56,0,0,0,.43.37l.76-1.32-1.19.95.92-.73-1.07.49a1.06,1.06,0,0,0,.15.24l.92-.73-1.07.49.55-.26-.57.21,0,0,.55-.26-.57.21.17-.06-.18.05h0l.17-.06-.18.05a2.42,2.42,0,0,1,.06.65c0,.78,0,1.57,0,2.42,0,1.34,0,2.82,0,4.62h3l-3-.11,3,.11Zm-72.72-3.49,1.34-2.69-.12-.06-1.73-.85-3.4,2.76.92,2.09a3.42,3.42,0,0,0,.74,1.06,3.31,3.31,0,0,0,.86.59,3.16,3.16,0,0,0,1.29.27,3,3,0,0,0,1.57-.43,3.07,3.07,0,0,0,.83-.71l.61-.74.08-1.06.16-2-1.81-.9-1.34,2.69-3-.23v.11l3,.23-2.31-1.91,2.17,1.79-1.43-2.42a3.13,3.13,0,0,0-.74.63l2.17,1.79-1.43-2.42,1.48,2.5v-2.9a3,3,0,0,0-1.48.4l1.48,2.5v0l1.2-2.65a3.06,3.06,0,0,0-1.2-.26v2.91l1.2-2.65-1.18,2.6,2.22-1.8a2.92,2.92,0,0,0-1-.8l-1.18,2.6,2.22-1.8-2.06,1.67,2.42-1.07a2.32,2.32,0,0,0-.36-.6l-2.06,1.67,2.42-1.07-2.74,1.21,1.89,2.33.12-.1-1.89-2.33-1.33,2.69.12.06,1.33-2.69-3-.23,3,.23Z" transform="translate(-60.19 -244.17)"/><path class="cls-2" d="M418.73,503.15c1.53-1.23,3.08-2.37,4.48-3.67.8-.75,1.3-.57,2,0a43.36,43.36,0,0,1,10.47,11.19c5.34,8.67,5.47,17.45.24,26.25a36.39,36.39,0,0,1-5.91,7.35,4.79,4.79,0,0,0-1.35,2.14,33.1,33.1,0,0,1-2.07,5.32,55.11,55.11,0,0,1-13.31,16.7,84.56,84.56,0,0,1-13.1,9.36c-2.72,1.59-5.48,3.12-8.33,4.48-3.28,1.56-6.65,2.94-10,4.3-2.52,1-5.08,1.95-7.66,2.76q-5.4,1.7-10.86,3.14c-2.87.77-5.75,1.47-8.66,2.06-4.25.86-8.51,1.6-12.8,2.25-3.3.51-6.63.83-9.95,1.17-4.31.45-8.64.75-13,.87-8.69.23-17.36.22-26-.35-4.82-.31-9.64-.76-14.42-1.43-5.62-.79-11.24-1.75-16.79-3s-11.15-2.74-16.62-4.51a144,144,0,0,1-18.75-7.5,91.28,91.28,0,0,1-22.56-15.08,50.76,50.76,0,0,1-12.4-16.9,29.75,29.75,0,0,1-2.7-10.32,17.18,17.18,0,0,0-1.55-6.37,21.71,21.71,0,0,1-1.51-13.56,1.94,1.94,0,0,0-2.2-2.24c-3.31.43-6.37-.47-9.42-1.57-3.31-1.2-6.57-2.53-9.82-3.86s-6.76-2.69-10.14-4c-4.77-1.88-9.55-3.72-14.31-5.63-3.15-1.26-6.32-2.46-9.41-3.88-3.36-1.55-6.76-3.05-10.2-4.42-4.86-1.94-9.79-3.73-14.68-5.63-4.66-1.82-9.41-3.4-14.21-4.8-2.78-.81-5.58-1.56-8.39-2.29-2.51-.66-5-1.38-7.56-1.82a13.67,13.67,0,0,1-5.49-2c-2.53-1.74-5.32-3.25-6.67-6.24-.74-1.61-1.81-3.19-1.25-5.08A24.71,24.71,0,0,1,66.32,457a24,24,0,0,0,1.63-2,5.22,5.22,0,0,1,3.5-2.27,33.09,33.09,0,0,1,11.1,0c2.07.37,4.12.88,6.17,1.33,3,.68,6,1.3,9,2.05,4,1,7.92,1.91,11.83,3.1,3.54,1.09,7.18,1.88,10.68,3.09,4.48,1.55,9,3,13.33,5,3.42,1.56,6.93,3,10.29,4.64s6.5,3.27,9.78,4.85c5.89,2.84,11.79,5.69,17.48,8.91a130.68,130.68,0,0,1,17.6,12,11.73,11.73,0,0,1,4,5.24c.58,1.68,1.15,1.8,2.41.54a67.45,67.45,0,0,1,8.06-6.53c.75-.54,1.11-.43,1.56.37a41.51,41.51,0,0,0,3,5l-3.44,2.58a33.68,33.68,0,0,0-10,11.07,16.38,16.38,0,0,0,.07,16.22,32.82,32.82,0,0,0,7.27,8.83,40.78,40.78,0,0,0,7,5.12,3.84,3.84,0,0,0,.44-1.85,18.76,18.76,0,0,1,3.62-8.6A42.84,42.84,0,0,1,226.1,524.1c.44-.26.86-.48,1.36-.09,1.79,1.41,3.6,2.79,5.48,4.25-.39.27-.66.49-1,.66a46.86,46.86,0,0,0-8.21,5.35c-2.87,2.38-5.51,5-6.93,8.55a9.79,9.79,0,0,0-.56,6.86,2.44,2.44,0,0,0,1.37,1.61,154.55,154.55,0,0,0,19.68,7.63A208.81,208.81,0,0,0,257.64,564c6.91,1.39,13.89,2.44,20.9,3.22,6,.67,12.08,1.15,18.14,1.49,9.36.52,18.73.42,28.09.2,2.91-.07,5.82-.28,8.73-.51,3.45-.26,6.91-.55,10.35-.92,3.76-.41,7.51-.87,11.24-1.43s7.69-1.23,11.52-2c3.34-.64,6.68-1.32,10-2.17,4.42-1.14,8.86-2.26,13.19-3.73,3-1,6-2,8.89-3.21a2.59,2.59,0,0,0,1.44-1.08c1.93-3.18,3-6.45,1.65-10.2a17.32,17.32,0,0,0-3.6-6,40.85,40.85,0,0,0-9.73-7.66A18.47,18.47,0,0,1,385,528c1.7-1.3,3.36-2.5,4.92-3.8a1.72,1.72,0,0,1,2.31-.08,47.86,47.86,0,0,1,10.89,8.57c4.37,4.77,6.95,10.17,6.08,16.82a1.7,1.7,0,0,0,.05.5,1.62,1.62,0,0,0,1.07-.37,73.27,73.27,0,0,0,8.23-5c4.88-3.47,9.31-7.36,12.12-12.8a17,17,0,0,0,2.1-8.14,18.44,18.44,0,0,0-3-9.21c-2.29-3.84-5.54-6.78-9-9.54a6.94,6.94,0,0,1-2.07-1.83Zm-239.94,6.41c.48-2.79,2.26-4.77,4.58-6.38-.09-.53-.53-.76-.9-1.05A113.3,113.3,0,0,0,163,489.64c-7.85-4-15.76-7.91-23.69-11.76a152.79,152.79,0,0,0-18.62-7.73q-6.06-2-12.24-3.69c-3.63-1-7.24-2.07-10.92-2.91-3.24-.74-6.47-1.58-9.74-2.24s-6.29-1.29-9.44-1.9a8.67,8.67,0,0,1-1.27-.27c-2-.71-3.31.35-4.47,1.7a15.72,15.72,0,0,0-2.74,4.59c-.65,1.73-.46,2.25.9,3.55a16.55,16.55,0,0,0,8,4c6.31,1.45,12.58,3.06,18.76,5,8.6,2.75,17,6.13,25.34,9.4,4.67,1.82,9.15,4,13.79,5.9,3.49,1.4,7,2.75,10.5,4.13q4.22,1.65,8.41,3.34c4.18,1.68,8.34,3.4,12.53,5,3.27,1.27,6.48,2.72,9.86,3.73a1,1,0,0,0,.81,0Z" transform="translate(-60.19 -244.17)"/><path class="cls-1" d="M418.73,503.15l-.94-1.17-1,.8.62,1.11a4.92,4.92,0,0,0,1.35,1.48c.45.34.84.58,1.09.78,3.4,2.72,6.49,5.55,8.63,9.13a17,17,0,0,1,2.77,8.47v.18a15.6,15.6,0,0,1-1.93,7.25c-2.64,5.12-6.85,8.86-11.66,12.26a73.61,73.61,0,0,1-8.06,4.9c-.27.14-.4.23-.41.23l.1.21-.07-.22h0l.1.21-.07-.22.15.53v-.55l-.15,0,.15.53v0l.08-.54h-.08v.54l.08-.54-.22,1.49,1.49-.19a2.37,2.37,0,0,0-.06-.32l-.14,0,.14,0h0l-.14,0,.14,0-.64.08h.65v-.08l-.64.08h-.27l.91.12v-.12h-.92l.91.12h0a19.83,19.83,0,0,0,.19-2.74,19.53,19.53,0,0,0-1.84-8.27,27.24,27.24,0,0,0-4.8-7A49.42,49.42,0,0,0,393,522.85a4.13,4.13,0,0,0-.87-.42,3,3,0,0,0-1.07-.2,2.94,2.94,0,0,0-1.13.24,3.58,3.58,0,0,0-1,.6c-1.51,1.26-3.15,2.44-4.87,3.76l-1.41,1.08,1.3,1.21a9.17,9.17,0,0,0,2,1.35c.64.34,1.22.62,1.71.9a39.69,39.69,0,0,1,9.38,7.38,15.73,15.73,0,0,1,3.3,5.45,8.57,8.57,0,0,1,.5,2.85,11.71,11.71,0,0,1-2,6.08.71.71,0,0,1-.2.22,2.24,2.24,0,0,1-.5.25c-2.89,1.15-5.84,2.17-8.82,3.18-4.26,1.44-8.66,2.56-13.09,3.7-3.24.83-6.55,1.51-9.87,2.15-3.81.72-7.63,1.38-11.46,2s-7.44,1-11.18,1.41c-3.42.38-6.86.67-10.31.93-2.9.22-5.78.43-8.65.5-4.35.1-8.69.18-13,.18-5,0-10-.1-14.93-.38-6-.34-12.07-.81-18.07-1.48-7-.77-13.9-1.82-20.77-3.2a206.29,206.29,0,0,1-20.16-5.06,149.54,149.54,0,0,1-19.49-7.55,1,1,0,0,1-.36-.26,1.28,1.28,0,0,1-.23-.45,6.73,6.73,0,0,1-.32-2.05,10.27,10.27,0,0,1,.85-3.79,15.28,15.28,0,0,1,2.67-4.3,31,31,0,0,1,3.82-3.66,46.12,46.12,0,0,1,8-5.18,11.46,11.46,0,0,0,1.12-.74l1.7-1.17-1.63-1.26c-1.89-1.46-3.69-2.84-5.48-4.24a2.4,2.4,0,0,0-1.49-.53,2.59,2.59,0,0,0-1,.2,5.86,5.86,0,0,0-.58.3,44.56,44.56,0,0,0-13.83,12,20.27,20.27,0,0,0-3.88,9.28c0,.41-.06.7-.1.88a.62.62,0,0,1-.11.33l1.25.84.74-1.31a38.21,38.21,0,0,1-6.74-4.93,31.42,31.42,0,0,1-7-8.42,15.71,15.71,0,0,1-2-7.44,15.91,15.91,0,0,1,2-7.37,32.07,32.07,0,0,1,9.54-10.57l3.44-2.58,1.2-.9-.9-1.2a42.16,42.16,0,0,1-2.87-4.85,3.4,3.4,0,0,0-.46-.68,2.22,2.22,0,0,0-.83-.63,1.89,1.89,0,0,0-.81-.16,2.43,2.43,0,0,0-1,.21,4.09,4.09,0,0,0-.68.41,67.49,67.49,0,0,0-8.24,6.68,3.5,3.5,0,0,1-.5.43l0,0,.1.22-.08-.23h0l.1.22-.08-.23.24.66v-.69a.86.86,0,0,0-.24,0l.24.66v.2l.45-.77a.84.84,0,0,0-.45-.12v.89l.45-.77-.26.44.42-.32a1.18,1.18,0,0,0-.16-.12l-.26.44.42-.32a2.94,2.94,0,0,1-.28-.62,13.17,13.17,0,0,0-4.46-5.92,131.41,131.41,0,0,0-17.8-12.13c-5.75-3.25-11.67-6.12-17.57-9-3.26-1.57-6.5-3.21-9.76-4.84-3.44-1.71-7-3.12-10.34-4.66-4.43-2-9-3.51-13.46-5.06-3.61-1.25-7.27-2-10.73-3.1-4-1.21-8-2.13-11.9-3.12-3-.77-6.08-1.39-9.08-2.06-2-.45-4.09-1-6.23-1.35A33.91,33.91,0,0,0,77,450.7a35.91,35.91,0,0,0-5.76.48,6.78,6.78,0,0,0-4.5,2.91A21.71,21.71,0,0,1,65.18,456a26.08,26.08,0,0,0-4.77,9.81,5.34,5.34,0,0,0-.22,1.5,7,7,0,0,0,.6,2.63c.32.76.68,1.42.94,2A11.53,11.53,0,0,0,65,476.05c1.29,1.05,2.66,1.88,3.88,2.72a15.07,15.07,0,0,0,6.08,2.3c2.44.42,4.91,1.13,7.44,1.79,2.8.73,5.59,1.47,8.35,2.28,4.77,1.39,9.47,3,14.09,4.75,4.9,1.91,9.83,3.7,14.67,5.63,3.4,1.36,6.77,2.85,10.12,4.39,3.15,1.45,6.35,2.66,9.48,3.91,4.77,1.92,9.56,3.76,14.32,5.63,3.38,1.34,6.77,2.65,10.12,4s6.53,2.67,9.88,3.88a24.14,24.14,0,0,0,8.23,1.77,15.23,15.23,0,0,0,1.89-.12h.08a.44.44,0,0,1,.34.14l.12.25v.06a24.45,24.45,0,0,0-.5,4.86,23.15,23.15,0,0,0,2.11,9.62,15.57,15.57,0,0,1,1.43,5.82A31.33,31.33,0,0,0,190,550.6,52.13,52.13,0,0,0,202.74,568a92.49,92.49,0,0,0,22.92,15.34,143.38,143.38,0,0,0,19,7.57c5.53,1.79,11.12,3.23,16.74,4.55s11.27,2.28,16.92,3.07c4.83.68,9.68,1.13,14.54,1.45,5.39.35,10.78.49,16.16.49,3.34,0,6.67-.06,10-.14,4.38-.12,8.75-.43,13.09-.87,3.32-.35,6.67-.67,10-1.19q6.45-1,12.86-2.26c3-.59,5.87-1.3,8.76-2.08,3.65-1,7.3-2,10.92-3.16,2.63-.83,5.22-1.77,7.77-2.8,3.38-1.36,6.78-2.76,10.12-4.34,2.9-1.38,5.7-2.94,8.43-4.54a86.05,86.05,0,0,0,13.34-9.52A56.79,56.79,0,0,0,428,552.41a35.24,35.24,0,0,0,2.17-5.57,3.37,3.37,0,0,1,.95-1.5,36.61,36.61,0,0,0,6.15-7.66,25.21,25.21,0,0,0-.24-27.8,45.05,45.05,0,0,0-10.82-11.57,4.11,4.11,0,0,0-.8-.53,2.48,2.48,0,0,0-1.18-.29,2.39,2.39,0,0,0-1.13.27,3.76,3.76,0,0,0-.88.62c-1.3,1.22-2.83,2.34-4.39,3.6l.94,1.17,1.3-.74-1.3.74.94,1.17c1.49-1.21,3.07-2.36,4.56-3.74l.16-.13h0l-.21-.41v.45a.39.39,0,0,0,.21,0l-.21-.41v-.09l-.13.53h.13v-.54l-.13.53.06-.24-.1.23h0l.06-.24-.1.23h0a1.63,1.63,0,0,1,.29.2,42,42,0,0,1,10.13,10.8,22.25,22.25,0,0,1,.22,24.69,34.42,34.42,0,0,1-5.67,7,6.31,6.31,0,0,0-1.73,2.78,31.32,31.32,0,0,1-2,5.08,53.68,53.68,0,0,1-12.95,16.25,83,83,0,0,1-12.88,9.19c-2.7,1.58-5.43,3.1-8.21,4.42-3.24,1.54-6.58,2.92-9.95,4.27-2.49,1-5,1.92-7.55,2.72-3.57,1.12-7.18,2.15-10.8,3.13-2.84.76-5.7,1.45-8.57,2q-6.33,1.28-12.72,2.24c-3.26.49-6.56.82-9.89,1.16-4.27.44-8.56.74-12.86.86-3.31.09-6.63.14-9.93.14-5.33,0-10.65-.14-16-.48-4.8-.32-9.58-.76-14.31-1.43-5.6-.78-11.16-1.74-16.65-3s-11.1-2.72-16.51-4.47A143.27,143.27,0,0,1,227,580.64a90.18,90.18,0,0,1-22.19-14.84,49.12,49.12,0,0,1-12-16.4,28.39,28.39,0,0,1-2.58-9.8,18.57,18.57,0,0,0-1.69-6.91,20.12,20.12,0,0,1-1.84-8.38,21.55,21.55,0,0,1,.44-4.26,3.68,3.68,0,0,0,.06-.66,3.43,3.43,0,0,0-3.46-3.39,3.55,3.55,0,0,0-.46,0,12.87,12.87,0,0,1-1.51.09,21.1,21.1,0,0,1-7.21-1.59c-3.27-1.18-6.51-2.5-9.77-3.84s-6.77-2.7-10.16-4c-4.77-1.88-9.55-3.72-14.29-5.62-3.17-1.27-6.32-2.46-9.34-3.85-3.38-1.56-6.8-3.06-10.27-4.45-4.9-2-9.83-3.75-14.7-5.64-4.71-1.83-9.49-3.43-14.33-4.84-2.8-.82-5.62-1.57-8.43-2.3-2.48-.65-5-1.39-7.68-1.85a12.18,12.18,0,0,1-4.9-1.81c-1.31-.9-2.6-1.69-3.68-2.58a8.52,8.52,0,0,1-2.48-3c-.33-.72-.67-1.35-.9-1.91a3.9,3.9,0,0,1-.37-1.48,2.19,2.19,0,0,1,.1-.65c1-3.27,2.1-6.28,4.18-8.72a26.07,26.07,0,0,0,1.72-2.15,3.76,3.76,0,0,1,2.5-1.63A32.22,32.22,0,0,1,77,453.7a30.87,30.87,0,0,1,5.33.47c2,.35,4,.85,6.1,1.32,3,.67,6,1.29,9,2,4,1,7.92,1.91,11.76,3.08,3.62,1.1,7.24,1.89,10.63,3.06,4.5,1.56,9,3,13.2,5,3.46,1.58,6.95,3,10.24,4.62s6.5,3.26,9.8,4.85c5.89,2.84,11.75,5.68,17.39,8.87a129,129,0,0,1,17.4,11.86,10.27,10.27,0,0,1,3.51,4.56,6.32,6.32,0,0,0,.49,1.12,2.71,2.71,0,0,0,.94,1,2.08,2.08,0,0,0,1.07.3,2.62,2.62,0,0,0,1.4-.46,6.32,6.32,0,0,0,1-.83,65.4,65.4,0,0,1,7.88-6.37l.15-.1h0l-.27-.61v.66a.94.94,0,0,0,.27-.05l-.27-.61v-.3l-.37.88a1,1,0,0,0,.37.08v-1l-.37.88.31-.73-.54.59a1.21,1.21,0,0,0,.23.14l.31-.73-.54.59.2-.22-.23.19,0,0,.2-.22-.23.19v0l.11.16a41.6,41.6,0,0,0,3.08,5.19l1.2-.9-.9-1.2-3.45,2.58A35.19,35.19,0,0,0,193,515.26a17.82,17.82,0,0,0,.08,17.62,34.18,34.18,0,0,0,7.59,9.23,41.87,41.87,0,0,0,7.27,5.31l1.21.69.78-1.16a3.75,3.75,0,0,0,.58-1.53c.06-.44.07-.76.1-.95a17.46,17.46,0,0,1,3.34-7.93,41.66,41.66,0,0,1,12.92-11.15l.16-.09,0,0L227,525l.06.28h0L227,525l.06.28-.14-.59v.61l.14,0-.14-.59v0l-.36.47a.7.7,0,0,0,.36.1v-.57l-.36.47c1.8,1.41,3.61,2.79,5.49,4.25l.92-1.19L232.1,527c-.46.32-.72.52-.83.57a48.83,48.83,0,0,0-8.47,5.52,34.41,34.41,0,0,0-4.19,4,18.2,18.2,0,0,0-3.17,5.14,13.1,13.1,0,0,0-1.07,4.91,9.73,9.73,0,0,0,.47,3,4.34,4.34,0,0,0,.77,1.45,4,4,0,0,0,1.4,1.06,154.86,154.86,0,0,0,19.87,7.7,210.27,210.27,0,0,0,20.46,5.13c7,1.4,14,2.46,21,3.24,6.07.68,12.14,1.15,18.23,1.49,5,.29,10.07.39,15.1.39,4.37,0,8.74-.08,13.11-.18,3-.07,5.89-.29,8.8-.51,3.46-.26,6.94-.55,10.41-.93,3.76-.41,7.53-.87,11.29-1.43s7.74-1.24,11.58-2c3.35-.64,6.72-1.33,10.06-2.19,4.42-1.14,8.89-2.27,13.3-3.76,3-1,6-2,9-3.23a5.46,5.46,0,0,0,1.12-.58,3.66,3.66,0,0,0,1.05-1.12,14.7,14.7,0,0,0,2.46-7.64,11.56,11.56,0,0,0-.67-3.84,18.7,18.7,0,0,0-3.91-6.47,42.3,42.3,0,0,0-10.08-8c-.65-.38-1.28-.67-1.82-1a6.26,6.26,0,0,1-1.34-.91l-1,1.1.91,1.19c1.68-1.28,3.35-2.49,5-3.84a.82.82,0,0,1,.21-.14v0h0v0l0-.13v.13h0l0-.13v.13h0v0h0l.06,0,.34.17a46.89,46.89,0,0,1,10.56,8.3A24.78,24.78,0,0,1,406.3,540a16.76,16.76,0,0,1,1.56,7,19.2,19.2,0,0,1-.16,2.35h0a1.32,1.32,0,0,0,0,.27,2.68,2.68,0,0,0,.08.62l.18,0-.18,0h0l.18,0-.18,0,.14,1.12,1.12.17.36,0a2.59,2.59,0,0,0,1.17-.29c.27-.14.42-.24.46-.26a76.1,76.1,0,0,0,8.4-5.1c5-3.52,9.61-7.57,12.59-13.33a18.64,18.64,0,0,0,2.26-8.63v-.22a19.88,19.88,0,0,0-3.19-10,37.6,37.6,0,0,0-9.34-9.94c-.45-.36-.86-.61-1.14-.83a2,2,0,0,1-.56-.57l-1.3.74Zm-239.94,6.41-1.48-.26,1.48.26-.64-1.36.29.61v-.67a.8.8,0,0,0-.29.06l.29.61v-.08l.15-.57a.52.52,0,0,0-.15,0v.59l.15-.57-.19-.06h0c-3.24-1-6.41-2.4-9.74-3.69-4.17-1.63-8.32-3.35-12.51-5-2.8-1.13-5.61-2.24-8.42-3.35-3.51-1.38-7-2.73-10.49-4.12-4.57-1.84-9.06-4.06-13.8-5.91-8.39-3.26-16.76-6.65-25.43-9.43-6.24-2-12.55-3.62-18.89-5.07a15,15,0,0,1-7.31-3.61,5.11,5.11,0,0,1-.74-.8c-.08-.15,0-.09-.06-.17a3.23,3.23,0,0,1,.26-1,13.86,13.86,0,0,1,2.48-4.14,5.66,5.66,0,0,1,1.15-1.09,1.77,1.77,0,0,1,.95-.32,2.3,2.3,0,0,1,.72.14,9.33,9.33,0,0,0,1.49.33c3.14.61,6.28,1.27,9.43,1.9s6.43,1.49,9.71,2.24c3.61.82,7.2,1.89,10.86,2.89q6.14,1.66,12.16,3.67a151.38,151.38,0,0,1,18.43,7.65c7.93,3.85,15.83,7.74,23.67,11.74a113,113,0,0,1,19.22,12.33l.45.35.22-.2-.25.15,0,0,.22-.2-.25.15.41-.24-.47.08.06.16.41-.24-.47.08,1.47-.26-.85-1.24A14.52,14.52,0,0,0,179.2,505a9.75,9.75,0,0,0-1.89,4.28l1.48.26.64,1.35.7-.33.14-.77a6.78,6.78,0,0,1,1.31-3,11.38,11.38,0,0,1,2.65-2.43l.79-.55-.17-.95a2.54,2.54,0,0,0-.32-.85,3.27,3.27,0,0,0-.47-.58c-.31-.29-.55-.43-.65-.53a115.68,115.68,0,0,0-19.73-12.65q-11.79-6-23.72-11.77a154.67,154.67,0,0,0-18.8-7.8q-6.1-2-12.31-3.72c-3.61-1-7.25-2.07-11-2.92-3.22-.73-6.46-1.58-9.79-2.25-3.13-.63-6.28-1.29-9.45-1.91a7.48,7.48,0,0,1-1-.2,5.18,5.18,0,0,0-1.74-.32,4.7,4.7,0,0,0-2.61.82,9.29,9.29,0,0,0-1.77,1.63,17.06,17.06,0,0,0-3,5,5.55,5.55,0,0,0-.46,2,3.26,3.26,0,0,0,.54,1.8,7.43,7.43,0,0,0,1.19,1.34,17.84,17.84,0,0,0,8.71,4.36c6.29,1.44,12.52,3.05,18.65,5,8.52,2.73,16.84,6.1,25.25,9.37,4.58,1.78,9.06,4,13.77,5.89,3.5,1.41,7,2.76,10.51,4.13q4.22,1.67,8.4,3.34c4.17,1.68,8.33,3.4,12.55,5,3.22,1.26,6.46,2.73,10,3.78l0,0,0,0,.25.07a2.44,2.44,0,0,0,.64.09,2.21,2.21,0,0,0,1-.23l-.64-1.35Z" transform="translate(-60.19 -244.17)"/><path class="cls-3" d="M228,359q2.37-3.87,4.73-7.76c6.16-10.07,12.45-20.06,17.95-30.51,4.86-9.25,9.21-18.73,11.72-28.94A71.68,71.68,0,0,0,264.17,280a78.34,78.34,0,0,0,.22-11.15,62.35,62.35,0,0,0-1-8.16,18.16,18.16,0,0,1,4,2,115.64,115.64,0,0,1,19.76,15.8,131,131,0,0,1,20.11,26,155.72,155.72,0,0,1,11.41,22.17,148.47,148.47,0,0,1,8,27.12c.49,2.45,1.43,4.74,1.82,7.18q1.59,9.93,3.17,19.85a48.89,48.89,0,0,0,2.23,9.4c1.22,3.28,3.36,5.46,7,5.91a8.23,8.23,0,0,0,7.15-2.8,15.23,15.23,0,0,0,2.86-4.77,89.49,89.49,0,0,0,5.45-18.75A168.91,168.91,0,0,0,359,351.69a2.58,2.58,0,0,1,.45-1.39c.62.28.88.88,1.23,1.36,4.58,6.27,9.51,12.29,13.86,18.74a100.2,100.2,0,0,1,12,24.11c1,3,1.94,6,2.86,9.06.37,1.2.23,1.32-1,1.54a172.71,172.71,0,0,0-18.51,4.23q-11,3.14-21.83,6.87c-1.52.52-3,1.07-4.45,1.57a.56.56,0,0,1-.35-.7c.83-4.12-.77-7.29-3.94-9.74a54.71,54.71,0,0,0-5.55-3.77,168,168,0,0,0-18.81-10.17,1.72,1.72,0,0,1-1.23-1.48c-.29-3.87-1.64-7.43-2.85-11.08-1.88-5.69-4.28-11-8.57-15.25a22.49,22.49,0,0,0-13.82-6.24,12,12,0,0,0-5.11.9,1.72,1.72,0,0,1-2.2-.68,43.35,43.35,0,0,0-4.15-4.53A40.74,40.74,0,0,0,255.5,344.2,23,23,0,0,0,242,345.65a16.79,16.79,0,0,0-10.4,13.13c-.25,1.38-.32,1.46-1.68,1a4.1,4.1,0,0,1-2-.8Z" transform="translate(-60.19 -244.17)"/><path class="cls-2" d="M357.39,345.45a97.44,97.44,0,0,1-.88,10.84c-1.34,9.81-2.89,19.58-6.39,28.91a21.89,21.89,0,0,1-3.29,6.41c-3.26,4-8.83,3.45-11-1.36a34.48,34.48,0,0,1-2.31-8.95c-.81-5-1.59-10-2.39-15-.21-1.35-.43-2.69-.62-4a39.83,39.83,0,0,0-1.46-5.71c-.66-2.24-1-4.59-1.47-6.89a138.21,138.21,0,0,0-10.68-31.36,162,162,0,0,0-21.5-33.51,116.06,116.06,0,0,0-26.8-23.3c-2-1.28-4.24-2.3-6.37-3.43a.84.84,0,0,0-1,0c.31,1.77.64,3.58.93,5.4a69.18,69.18,0,0,1,.43,16.27,75.71,75.71,0,0,1-1.85,12.45,104.42,104.42,0,0,1-6.55,17.92A266.81,266.81,0,0,1,238,339.47c-3.67,5.95-7.28,11.93-10.93,17.9-.8,1.31-.81,1.23-2.3,1a42.66,42.66,0,0,0-8.66-.92,4.33,4.33,0,0,1-2-.22,52,52,0,0,1,3.2-5.34c7-11.39,14.13-22.69,20.59-34.39a129.89,129.89,0,0,0,11.64-26.84,56.33,56.33,0,0,0,1.75-10.41c.2-2.34.33-4.68.36-7A51.12,51.12,0,0,0,250,259.46a16.8,16.8,0,0,1-.62-7.69,8.29,8.29,0,0,1,6.79-6.5,15.05,15.05,0,0,1,7.77,1.36,79.63,79.63,0,0,1,16,9A132,132,0,0,1,298,271a148.37,148.37,0,0,1,20.67,27.34q4,6.68,7.54,13.64a147.44,147.44,0,0,1,10.59,28.47c.15.54.14,1.19.54,1.56,1.68,1.59,1.82,3.72,2.15,5.79,1.11,7,2.21,14,3.36,21.31a5.64,5.64,0,0,0,.84-2.84c1-5.72,2-11.45,2.39-17.25.15-2,.13-4,.09-5.94s.23-4.08.32-6.11a8.23,8.23,0,0,1,1.31-4c2.21-3.49,6.47-4.4,10.28-2.2a32.66,32.66,0,0,1,7.64,6.72c4.94,5.4,8.94,11.54,13.44,17.29a125.18,125.18,0,0,1,14.25,22.78,137.48,137.48,0,0,1,8.81,24.77,1.92,1.92,0,0,1,0,.46c-1.62.26-3.25.61-4.9.77-1.48.14-2.94.33-4.4.61-1.62.3-1.63.3-2.06-1.23q-1.68-6.07-3.86-12a100.26,100.26,0,0,0-13.11-24.46c-4.91-6.76-9.88-13.48-15.11-20a2,2,0,0,0-1.33-1Z" transform="translate(-60.19 -244.17)"/><path class="cls-1" d="M357.39,345.45l-1,0a98.06,98.06,0,0,1-.87,10.74c-1.33,9.79-2.88,19.48-6.34,28.69a20.84,20.84,0,0,1-3.12,6.13,5.81,5.81,0,0,1-4.47,2.28,5,5,0,0,1-2.76-.84,6.09,6.09,0,0,1-2.13-2.59,33.22,33.22,0,0,1-2.23-8.69q-1.22-7.5-2.39-15c-.21-1.35-.44-2.68-.62-4a40.66,40.66,0,0,0-1.49-5.85c-.63-2.13-.93-4.47-1.45-6.82a139.27,139.27,0,0,0-10.76-31.59,163.22,163.22,0,0,0-21.64-33.72,117.34,117.34,0,0,0-27-23.5c-2.11-1.32-4.34-2.35-6.44-3.47a2.05,2.05,0,0,0-1-.28,1.86,1.86,0,0,0-.94.27l-.6.35.11.68c.31,1.78.65,3.58.93,5.38a59.92,59.92,0,0,1,.7,9.36c0,2.21-.11,4.44-.28,6.68a75.11,75.11,0,0,1-1.82,12.29,102.62,102.62,0,0,1-6.49,17.75,266.67,266.67,0,0,1-16.11,29.3c-3.68,6-7.29,11.95-10.93,17.91a4.33,4.33,0,0,1-.48.71h0l.17.2-.08-.25-.09.05.17.2-.08-.25.05.18,0-.18h0l.05.18,0-.18h0c-.09,0-.42-.05-.91-.12a52.47,52.47,0,0,0-7.91-1c-.32,0-.63,0-.95,0l-.57,0a2.63,2.63,0,0,1-1-.17l-.36.93.91.42a52.18,52.18,0,0,1,3.14-5.24c7-11.38,14.14-22.69,20.62-34.43a131.09,131.09,0,0,0,11.72-27.05,55.8,55.8,0,0,0,1.78-10.59c.21-2.36.34-4.73.37-7.11v-.55a52.46,52.46,0,0,0-1.77-13.48,19.56,19.56,0,0,1-.81-5.1,11.15,11.15,0,0,1,.2-2.14,7.28,7.28,0,0,1,2.1-3.78,6.93,6.93,0,0,1,3.85-1.92,10.17,10.17,0,0,1,1.34-.09,15.85,15.85,0,0,1,5.91,1.38,78.87,78.87,0,0,1,15.8,8.85,131.17,131.17,0,0,1,17.92,15.28,147.62,147.62,0,0,1,20.53,27.16q4,6.63,7.5,13.57a146.72,146.72,0,0,1,10.52,28.28c0,.17.08.46.16.82a2.46,2.46,0,0,0,.65,1.21,4.76,4.76,0,0,1,1.31,2.26,24.59,24.59,0,0,1,.54,3c1.11,7,2.22,14,3.36,21.31l.38,2.38,1.42-1.95a4.61,4.61,0,0,0,.8-1.84c.12-.57.16-1,.22-1.42.95-5.72,2-11.47,2.4-17.35.09-1.19.12-2.38.12-3.56,0-.83,0-1.65,0-2.47,0-.14,0-.28,0-.41,0-1.82.24-3.69.33-5.64a7.22,7.22,0,0,1,1.16-3.53,6,6,0,0,1,5.2-2.93,7.49,7.49,0,0,1,3.73,1.06,32.15,32.15,0,0,1,7.41,6.53c4.86,5.33,8.85,11.44,13.39,17.23A125.3,125.3,0,0,1,392.47,378a136,136,0,0,1,8.74,24.6l.6-.16h-.62l0,.16.6-.16h-.31l-.31,0v0h.31l-.31,0v0c0,.05,0,.16,0,.31l1,.05-.16-1c-1.65.27-3.26.61-4.83.76s-3,.34-4.5.63c-.49.09-.82.14-.9.14h0l0,.23.07-.22h-.05l0,.23.07-.22-.14.45.33-.33-.19-.12-.14.45.33-.33-.23.23.27-.19,0,0-.23.23.27-.19-.12.08.12-.08h0l-.12.08.12-.08,0,0a7.85,7.85,0,0,1-.24-.79q-1.69-6.12-3.89-12.08a101.54,101.54,0,0,0-13.24-24.7c-4.91-6.76-9.89-13.49-15.14-20a5.48,5.48,0,0,0-.59-.69,2.62,2.62,0,0,0-1.32-.66l-1.17-.24,0,1.19,1,0-.2,1a.63.63,0,0,1,.36.16,5.5,5.5,0,0,1,.39.48c5.21,6.5,10.17,13.2,15.09,20a99.43,99.43,0,0,1,13,24.21c1.45,3.93,2.72,7.9,3.84,11.93a5.53,5.53,0,0,0,.49,1.35,1.6,1.6,0,0,0,.64.59,1.77,1.77,0,0,0,.8.18,8.22,8.22,0,0,0,1.27-.18c1.43-.27,2.86-.46,4.32-.6,1.72-.16,3.37-.52,5-.77l.79-.13.05-.81c0-.08,0-.15,0-.41a1.22,1.22,0,0,0-.05-.35,137.85,137.85,0,0,0-8.87-25,126.59,126.59,0,0,0-14.36-23c-4.47-5.7-8.48-11.86-13.49-17.35a33.69,33.69,0,0,0-7.88-6.91,9.5,9.5,0,0,0-4.73-1.33,8.08,8.08,0,0,0-6.89,3.86,9.28,9.28,0,0,0-1.47,4.51c-.08,1.84-.33,3.74-.33,5.73,0,.15,0,.3,0,.45,0,.81,0,1.62,0,2.43,0,1.15,0,2.29-.11,3.42-.42,5.73-1.43,11.42-2.38,17.16-.08.5-.12.94-.2,1.33a2.78,2.78,0,0,1-.47,1.08l.81.59,1-.15c-1.15-7.28-2.25-14.3-3.36-21.32a25.31,25.31,0,0,0-.6-3.19,6.75,6.75,0,0,0-1.85-3.17h0a.75.75,0,0,1-.1-.3c0-.2-.08-.46-.16-.78a148.46,148.46,0,0,0-10.67-28.67q-3.51-7-7.57-13.71a150,150,0,0,0-20.82-27.52,132.09,132.09,0,0,0-18.19-15.52,81,81,0,0,0-16.19-9.06,17.64,17.64,0,0,0-6.67-1.53,11,11,0,0,0-1.61.11,8.81,8.81,0,0,0-5,2.46,9.15,9.15,0,0,0-2.68,4.84,12.79,12.79,0,0,0-.24,2.52,22.14,22.14,0,0,0,.87,5.62,49.81,49.81,0,0,1,1.71,13v.53c0,2.32-.16,4.63-.36,7a54.15,54.15,0,0,1-1.72,10.22A128.7,128.7,0,0,1,237.09,317c-6.45,11.67-13.57,23-20.57,34.36a50.64,50.64,0,0,0-3.26,5.45l-.44,1,1,.38a4.49,4.49,0,0,0,1.7.31c.25,0,.47,0,.67,0l.85,0a51.65,51.65,0,0,1,7.61.94,10,10,0,0,0,1.21.15,1.83,1.83,0,0,0,1.53-.77,8.33,8.33,0,0,0,.57-.85c3.65-6,7.25-12,10.92-17.9a267.42,267.42,0,0,0,16.23-29.52,104.66,104.66,0,0,0,6.61-18.1,77.2,77.2,0,0,0,1.88-12.62c.17-2.28.28-4.55.28-6.83a61.72,61.72,0,0,0-.72-9.67c-.29-1.83-.63-3.65-.93-5.41l-1,.17.5.87h0l0-.11,0,.11h0l0-.11,0,.11-.06-.27v.28h.06l-.06-.27v0l-.05.27h.05v-.28l-.05.27,0-.13,0,.13h0l0-.13,0,.13.12.06c2.17,1.15,4.35,2.16,6.31,3.4a114.88,114.88,0,0,1,26.56,23.09A161.07,161.07,0,0,1,316,318.73a137.1,137.1,0,0,1,10.61,31.14c.5,2.23.79,4.61,1.48,6.95a39.58,39.58,0,0,1,1.43,5.56c.19,1.37.41,2.72.62,4.05.8,5,1.58,10,2.39,15a35.46,35.46,0,0,0,2.39,9.21,8.21,8.21,0,0,0,2.84,3.42,7,7,0,0,0,3.87,1.17,7.81,7.81,0,0,0,6-3,22.94,22.94,0,0,0,3.44-6.7c3.55-9.45,5.11-19.3,6.45-29.12a99.4,99.4,0,0,0,.89-11l-1,0-.2,1,.2-1Z" transform="translate(-60.19 -244.17)"/><path class="cls-2" d="M186.08,404.22a44.79,44.79,0,0,0,8.8,4.58c.94.34.82.83.45,1.54a77.3,77.3,0,0,0-3.6,8.3,67.1,67.1,0,0,0-4.28,16,73.74,73.74,0,0,0-.58,13.46,70.94,70.94,0,0,0,1.47,11.35,62,62,0,0,0,13.1,26c1.14,1.37,2.39,2.64,3.64,3.91a7.35,7.35,0,0,1,1.29,2.42c1.2,2.69,2.27,5.44,3.66,8a80.83,80.83,0,0,0,7.27,11.33c.17.23.48.38.44.77-.46.12-.8-.19-1.15-.39-7.38-4.22-14.36-9-20.28-15.19-10.3-10.78-17.06-23.52-19.49-38.28a79.87,79.87,0,0,1,3.88-41.52q2.16-5.81,4.85-11.38c.13-.28.29-.53.53-1Z" transform="translate(-60.19 -244.17)"/><path class="cls-1" d="M186.08,404.22l-.54.84a45.92,45.92,0,0,0,9,4.68l.17.08h0l0,0,0,0h0l0,0,0,0,.23-.27-.32.15.09.12.23-.27-.32.15.38-.18h-.42l0,.18.38-.18h-.19l-.22,0v0h.23l-.22,0h0a2.77,2.77,0,0,1-.17.37,78.68,78.68,0,0,0-3.65,8.4,68.16,68.16,0,0,0-4.33,16.28,88,88,0,0,0-.7,10.17c0,1.15,0,2.31.11,3.47a73,73,0,0,0,1.5,11.51,63,63,0,0,0,13.3,26.4c1.17,1.4,2.45,2.69,3.7,4a3.18,3.18,0,0,1,.57.88c.16.35.31.78.52,1.24,1.18,2.67,2.26,5.44,3.69,8.12a81.6,81.6,0,0,0,7.36,11.47c.19.23.31.33.32.35l.09-.08-.1.07h0l.09-.08-.1.07.37-.25h-.44l.07.25.37-.25h-.11l-.33,0v0h.33l-.33,0,1,.1-.24-1,0,.15V511h0l0,.15v0l0-.12h0v.13l0-.12-.48-.29c-7.34-4.19-14.23-8.93-20.05-15a70.21,70.21,0,0,1-19.23-37.74,82.9,82.9,0,0,1-1.14-13.62,77.91,77.91,0,0,1,5-27.39c1.44-3.85,3-7.61,4.82-11.3.09-.19.25-.45.5-.9l-.87-.49-.54.84.54-.84-.87-.49c-.22.4-.39.66-.57,1-1.81,3.75-3.42,7.57-4.88,11.47a79.79,79.79,0,0,0-5.09,28.09,85.6,85.6,0,0,0,1.16,13.94,72.32,72.32,0,0,0,19.76,38.81c6,6.28,13.08,11.12,20.51,15.37.09.05.24.16.47.28a2,2,0,0,0,1,.26,2.38,2.38,0,0,0,.45-.05l.68-.18.07-.7v-.16a1.46,1.46,0,0,0-.14-.63,1.79,1.79,0,0,0-.38-.54l-.12-.12,0,0h0a79.1,79.1,0,0,1-7.17-11.19c-1.36-2.54-2.43-5.26-3.63-8-.17-.37-.32-.8-.54-1.27a5.09,5.09,0,0,0-1-1.44c-1.25-1.27-2.48-2.52-3.59-3.85a61,61,0,0,1-12.89-25.57,71.19,71.19,0,0,1-1.44-11.19c-.08-1.11-.11-2.22-.11-3.33a85.43,85.43,0,0,1,.69-9.94,65.7,65.7,0,0,1,4.21-15.8,76.7,76.7,0,0,1,3.56-8.19,2.73,2.73,0,0,0,.38-1.27,1.54,1.54,0,0,0-.43-1.09,2.42,2.42,0,0,0-.95-.58,43.66,43.66,0,0,1-8.6-4.48l-.89-.57-.52.92.87.49Z" transform="translate(-60.19 -244.17)"/><path class="cls-3" d="M222,415c-.55,1-1.17,2-1.64,3.09-2.3,5.12-5.44,9.74-8.36,14.5a62.86,62.86,0,0,0-7,15.76c-.81,2.81-1.5,5.62-2.06,8.48a66.93,66.93,0,0,0-.89,7.58c-.53,6.88.57,13.6,2.09,20.28l.25,1.05c-.85-.26-1.12-.92-1.51-1.38A59.43,59.43,0,0,1,189.72,458a76.88,76.88,0,0,1-1.14-9.22,67.29,67.29,0,0,1,.12-9.84,65.32,65.32,0,0,1,5.11-21.26c1-2.36,2-4.69,3.1-7,.42-.87.84-1.21,1.84-.84a85.3,85.3,0,0,0,14.07,3.56,42.19,42.19,0,0,0,7.17,1.06,2.57,2.57,0,0,1,2,.56Z" transform="translate(-60.19 -244.17)"/><path class="cls-1" d="M409.28,427a82.47,82.47,0,0,0,.56,10.88,66.13,66.13,0,0,1,.18,7.45,31.51,31.51,0,0,0,.91,7.37,59.52,59.52,0,0,1,1.71,13,2.29,2.29,0,0,0,0,.37c.85,3.13.38,6.25,0,9.39a32.43,32.43,0,0,1-.7,4.21,60.41,60.41,0,0,1-8.27,19.19,73.83,73.83,0,0,1-13.47,15.3,99.86,99.86,0,0,1-18.46,12.4,104,104,0,0,1-13.56,6,132.18,132.18,0,0,1-15,4.32c-4.6,1-9.28,1.54-13.9,2.38a66.87,66.87,0,0,1-7.23.56c-2.72.19-5.45.22-8.18.26-4.73.06-9.42-.43-14.11-.82a97.16,97.16,0,0,1-11.74-1.85,114.63,114.63,0,0,1-12.74-3.32,121.89,121.89,0,0,1-16.32-6.6,103.12,103.12,0,0,1-16.5-10.31,75.83,75.83,0,0,1-12.45-12A64.16,64.16,0,0,1,220,488.54a52.68,52.68,0,0,1-3.73-14.32c-.21-2.05-.33-4.08-.35-6.13a52.51,52.51,0,0,1,1.36-12.17,59.16,59.16,0,0,1,11.66-23.81,40.66,40.66,0,0,1,3.84-4.53c2.21-2.08,4.51-4.06,6.73-6.12,2.81-2.62,6-4.77,8.86-7.35a13.68,13.68,0,0,0,3.08-3.42,5.53,5.53,0,0,0-.25-6,13.2,13.2,0,0,0-3-3.32,4.39,4.39,0,0,0-2-.93,16.13,16.13,0,0,0-4.8-.32,86.67,86.67,0,0,1-14,.24,77.08,77.08,0,0,1-13.1-1.26,84.4,84.4,0,0,1-15-4.27,25.08,25.08,0,0,1-7.27-4.39,7.9,7.9,0,0,1-1.3-10.55,13.48,13.48,0,0,1,6.43-4.85,48.64,48.64,0,0,1,12.42-3c5.56-.78,10.9.19,16.19,1.44a43.87,43.87,0,0,1,10.22,3.88c2.63,1.37,5.16,2.92,7.74,4.39,3,1.71,5.83.82,8.48-.63,1.93-1.06,2.27-3.14,2.09-5.22a8,8,0,0,0-1.94-4.35c-1.81-2.29-3.54-4.63-5.16-7.06a6.81,6.81,0,0,1-1.2-2.48c-.32-1.71.17-2.73,1.81-3.29a8.36,8.36,0,0,1,2.54-.44c5.25-.1,9.78,1.81,14,4.81,3.59,2.56,6.05,6.18,9,9.39a2.93,2.93,0,0,1,.58.95c.87,2.67,3.05,3.77,5.44,4.62.41.15.84.21,1.26.33,2.43.68,3.8.14,5.15-2,.33-.53.66-1,1-1.59a1.65,1.65,0,0,1,2.18-.77,8.53,8.53,0,0,1,4.53,3.4,19.38,19.38,0,0,1,3.7,8.62,27.43,27.43,0,0,0,1.65,5.89,5,5,0,0,1,.39,1.8,19.91,19.91,0,0,0,1.24,5.8c.72,2.19,2.5,3.5,4.3,4.72a37.44,37.44,0,0,0,6.13,3.09c3.13,1.39,6,3.19,9,4.8,1.42.76,2.81,1.59,4.21,2.38.32.19.66.34,1,.55,1.39.9,1.43,1.33.14,2.31-1.73,1.31-3.47,2.59-5.21,3.88s-3.5,2.55-5.23,3.87c-2.84,2.17-5.69,4.35-8.5,6.58-3.21,2.53-6.37,5.13-9.57,7.68a25,25,0,0,0-3.87,3.47,5.66,5.66,0,0,0-1.07,1.71,10.42,10.42,0,0,0,.74,8c1.5,3.15,6,4,9.1,1.89a176.58,176.58,0,0,1,17.32-10.06c4.33-2.31,8.75-4.39,13.23-6.36q7.2-3.19,14.58-6c5.21-2,10.48-3.76,15.79-5.45,4.37-1.39,8.74-2.76,13.15-3.95a92.51,92.51,0,0,1,12.15-2.75c1.88-.24,3.75-.77,5.66-1,2.27-.29,4.55-.48,6.82-.78,1.9-.26,3.79-.61,5.68-.94,2.36-.42,3.23.26,3.28,2.68,0,2.11,0,4.23,0,7.16Z" transform="translate(-60.19 -244.17)"/><path class="cls-1" d="M336,423.45v.12c-.08.1-.17.07-.23-.08l.12-.1.12.06Z" transform="translate(-60.19 -244.17)"/><path class="cls-1" d="M178.91,509.46c.49-2.8,2.27-4.79,4.6-6.42-.1-.53-.53-.76-.91-1.05a114.44,114.44,0,0,0-19.51-12.57c-7.87-4-15.8-7.95-23.75-11.83a154.25,154.25,0,0,0-18.66-7.77c-4.06-1.35-8.14-2.59-12.27-3.72-3.64-1-7.26-2.08-10.94-2.92-3.26-.74-6.49-1.59-9.77-2.26s-6.3-1.3-9.46-1.91a7.87,7.87,0,0,1-1.28-.27c-2-.72-3.31.36-4.47,1.71a15.68,15.68,0,0,0-2.75,4.62c-.66,1.74-.46,2.26.9,3.57a16.51,16.51,0,0,0,8,4c6.33,1.46,12.61,3.08,18.81,5.07,8.61,2.77,17,6.18,25.39,9.46,4.68,1.83,9.18,4.06,13.82,5.93,3.5,1.42,7,2.77,10.53,4.16,2.81,1.11,5.63,2.23,8.43,3.36,4.19,1.69,8.35,3.42,12.56,5.07,3.28,1.28,6.49,2.74,9.88,3.75a.94.94,0,0,0,.81,0Z" transform="translate(-60.19 -244.17)"/></svg>