<svg id="Слой_1" data-name="Слой 1" xmlns="http://www.w3.org/2000/svg" viewBox="0 0 274.31 274.38"><defs><style>.cls-1{fill:#43345d;stroke:#43345d;stroke-miterlimit:10;stroke-width:8px;}.cls-2{fill:#fff;}</style></defs><path class="cls-1" d="M304.5,512.44c-37-.53-69.85-14.45-96.12-42.69-25.45-27.36-37.13-60.21-35.29-97.46,1.77-35.91,16.12-66.43,42.49-90.84,27.42-25.38,60.25-37.07,97.5-35.2,35.9,1.8,66.42,16.17,90.8,42.57,25.36,27.43,37,60.28,35.13,97.52-1.83,35.85-16.22,66.29-42.54,90.68C371.08,500.54,340.73,512.1,304.5,512.44ZM425,380.14c-.28-32.81-11.27-60.52-33.33-83.44-21.49-22.34-48.09-34.59-79.09-36.16-34.25-1.75-64.21,9.33-89,33.08-22.37,21.46-34.6,48.08-36.19,79.07-1.76,34.25,9.31,64.22,33.05,89,21.5,22.41,48.16,34.66,79.21,36.22,34.43,1.73,64.52-9.44,89.24-33.45C412.74,441.25,424.57,412.58,425,380.14Z" transform="translate(-168.9 -242.05)"/><path class="cls-2" d="M425,380.14c-.38,32.44-12.21,61.11-36.07,84.29-24.72,24-54.81,35.18-89.24,33.45-31.05-1.56-57.71-13.81-79.21-36.22-23.74-24.75-34.81-54.72-33.05-89,1.59-31,13.82-57.61,36.19-79.07,24.75-23.75,54.71-34.83,89-33.08,31,1.57,57.6,13.82,79.09,36.16C413.68,319.62,424.67,347.33,425,380.14Zm-62.88-50a14.35,14.35,0,0,0-.18-2.13,7.16,7.16,0,0,0-11.84-2.93q-21.42,21.48-42.87,42.94c-.88.87-1.3,1-2.23,0q-21.36-21.46-42.78-42.84a6.89,6.89,0,0,0-7.27-1.85A7.11,7.11,0,0,0,252,335.21q21.48,21.42,42.94,42.88c.89.89.93,1.32,0,2.23q-21.45,21.35-42.84,42.78a6.89,6.89,0,0,0-1.9,7.15,7.13,7.13,0,0,0,11.86,3q21.46-21.45,42.89-42.93c.9-.9,1.32-.92,2.23,0q21.36,21.45,42.77,42.85a7.13,7.13,0,1,0,10.19-10q-21.44-21.47-42.92-42.89c-.89-.89-.95-1.31,0-2.23q21.4-21.3,42.73-42.68A6.1,6.1,0,0,0,362.07,330.18Z" transform="translate(-168.9 -242.05)"/><path class="cls-1" d="M362.07,330.18a6.1,6.1,0,0,1-2.16,5.24q-21.36,21.34-42.73,42.68c-.93.92-.87,1.34,0,2.23q21.49,21.41,42.92,42.89a7.13,7.13,0,1,1-10.19,10q-21.36-21.45-42.77-42.85c-.91-.91-1.33-.89-2.23,0q-21.4,21.5-42.89,42.93a7.13,7.13,0,0,1-11.86-3,6.89,6.89,0,0,1,1.9-7.15q21.42-21.39,42.84-42.78c.92-.91.88-1.34,0-2.23Q273.4,356.69,252,335.21a7.11,7.11,0,0,1,2.93-11.81,6.89,6.89,0,0,1,7.27,1.85q21.39,21.42,42.78,42.84c.93.93,1.35.84,2.23,0q21.4-21.49,42.87-42.94a7.16,7.16,0,0,1,11.84,2.93A14.35,14.35,0,0,1,362.07,330.18Z" transform="translate(-168.9 -242.05)"/></svg>