<svg id="Слой_1" data-name="Слой 1" xmlns="http://www.w3.org/2000/svg" viewBox="0 0 102.74 40.79"><defs><style>.cls-1{fill:#fff;}.cls-2{fill:none;stroke:#fff;stroke-miterlimit:10;stroke-width:3px;}</style></defs><path class="cls-1" d="M26.68,14.31a2.55,2.55,0,0,0-1.91-2.54,4.57,4.57,0,0,0-3.38.72,10,10,0,0,0-4.12,4.45c-.81,1.75-1.29,3.94-.29,5.72a3.48,3.48,0,0,0,5.51.48c1.12-1.13,1.61-2.87,2.32-4.27l-2.32-1c-.51,1.82-.81,3.7-1.22,5.54a13.54,13.54,0,0,1-1.8,5A5.4,5.4,0,0,1,15,30.81,4.09,4.09,0,0,1,11.26,28a1.27,1.27,0,0,0-2.45.67,6.81,6.81,0,0,0,9,4.15A8.55,8.55,0,0,0,22.12,29,18.66,18.66,0,0,0,23.7,24.2c.42-1.87.72-3.78,1.24-5.63.38-1.35-1.66-2.28-2.32-1s-1.08,2.46-1.8,3.6l-.13.19c.08-.11.1-.13,0-.07a1.76,1.76,0,0,1-.3.24,1.14,1.14,0,0,1-.84.19c-.44-.12-.59-.7-.62-1.17a6.27,6.27,0,0,1,1.75-4.31,7.32,7.32,0,0,1,2-1.59,3,3,0,0,1,1.19-.5.78.78,0,0,1,.33.07s0-.33-.05,0a1.27,1.27,0,0,0,2.54,0Z" transform="translate(-1.46 -1.07)"/><path class="cls-1" d="M36.88,26.51c1-3.15,1.82-8.63-2.11-10.15a4.77,4.77,0,0,0-5,1.37,18.07,18.07,0,0,0-3,4.49,33.59,33.59,0,0,0-2.41,5.86,1.27,1.27,0,0,0,2.44.68A30.14,30.14,0,0,1,29,23.5c.45-.86.94-1.71,1.47-2.54A6.76,6.76,0,0,1,32,19.12a2,2,0,0,1,1.93-.38A2.21,2.21,0,0,1,35,20.19c.51,1.78,0,3.94-.56,5.66-.51,1.56,2,2.22,2.44.67Z" transform="translate(-1.46 -1.07)"/><path class="cls-1" d="M36.62,22.67a3.43,3.43,0,0,0-2.41-.81c-.93,0-1.86,0-2.78.12a33.35,33.35,0,0,0-5.62,1,1.27,1.27,0,0,0,.67,2.45A29.31,29.31,0,0,1,31,24.54c.8-.07,1.6-.12,2.41-.14h1.22c.15.05.17.05.07,0,.13.07.15.09.06,0a1.27,1.27,0,0,0,1.91-1.66Z" transform="translate(-1.46 -1.07)"/><path class="cls-1" d="M41.44,17.9q-1.35,4.84-2.53,9.73a1.3,1.3,0,0,0,.89,1.56,1.27,1.27,0,0,0,1.55-.89q1.17-4.89,2.54-9.73A1.27,1.27,0,0,0,41.44,17.9Z" transform="translate(-1.46 -1.07)"/><path class="cls-1" d="M42.05,18.51a56.73,56.73,0,0,0,5.87,5.3,1.27,1.27,0,0,0,2-.25l3.84-7.77-2,.26a3.65,3.65,0,0,1,.55,2.08c.09,1,.21,2.07.37,3.1a37.09,37.09,0,0,0,1.52,6.15,1.3,1.3,0,0,0,1.56.89,1.28,1.28,0,0,0,.89-1.56A35.94,35.94,0,0,1,55,20.09c-.28-2-.1-4.2-1.52-5.84a1.29,1.29,0,0,0-1.81,0,1.08,1.08,0,0,0-.18.24l-3.79,7.78,2-.25a57,57,0,0,1-5.87-5.33c-1.14-1.17-2.93.62-1.79,1.79Z" transform="translate(-1.46 -1.07)"/><path class="cls-1" d="M60.92,21.65a4.71,4.71,0,0,0,4-.27,6.51,6.51,0,0,0,2.88-2.12,2.94,2.94,0,0,0-.18-3.55A3.21,3.21,0,0,0,64,15.12a12.17,12.17,0,0,0-5.36,4.69c-1.2,1.85-2.47,4.56-1,6.59a4.7,4.7,0,0,0,3.4,1.81,9.48,9.48,0,0,0,4.31-.92,1.31,1.31,0,0,0,.89-1.56,1.3,1.3,0,0,0-1.57-.89,11,11,0,0,1-2.65.83,2.69,2.69,0,0,1-1.76-.27,1.35,1.35,0,0,1-.79-1,4.27,4.27,0,0,1,.64-2.11A11,11,0,0,1,63,18.65a7.4,7.4,0,0,1,1.84-1.18,1.15,1.15,0,0,1,.87-.08c-.07,0,.08.07.09.09s0,0,0,.09a1.51,1.51,0,0,1-.4.62,4.75,4.75,0,0,1-1,.61c-.54.29-1.55.91-2.19.64a1.31,1.31,0,0,0-1.73.45,1.28,1.28,0,0,0,.46,1.74Z" transform="translate(-1.46 -1.07)"/><rect class="cls-2" x="1.5" y="1.5" width="99.74" height="37.79" rx="12"/><path class="cls-1" d="M75,20.91A20.67,20.67,0,0,1,76,14.06a6.42,6.42,0,0,1,2.12-3.19A5.36,5.36,0,0,1,83,10.15a22.44,22.44,0,0,1,10.77,6.67,5.64,5.64,0,0,1,1.53,3.44,5.08,5.08,0,0,1-1.49,3.91A18.58,18.58,0,0,1,91,26.69a22.39,22.39,0,0,1-8.23,3.79A8.76,8.76,0,0,1,80,30.6a4.77,4.77,0,0,1-3.89-3.05A14,14,0,0,1,75,22.45C75,21.94,75,21.42,75,20.91Z" transform="translate(-1.46 -1.07)"/></svg>