<svg id="Слой_1" data-name="Слой 1" xmlns="http://www.w3.org/2000/svg" viewBox="0 0 114.44 42.73"><defs><style>.cls-1{fill:#1d1d1b;}</style></defs><path class="cls-1" d="M49.41,45.26a4.92,4.92,0,0,0-3-4.68,7.05,7.05,0,0,0-5.77.29,19.49,19.49,0,0,0-8.21,6.83,16.91,16.91,0,0,0-3.26,9.44c0,3.27,1.61,6.87,5.08,7.65,4.9,1.11,8.14-3,10.12-6.83L39.81,56c-1.82,6.54-1,15-6.93,19.57a9.53,9.53,0,0,1-8,2A8,8,0,0,1,19,72.31c-.91-3.08-5.73-1.77-4.82,1.33a13,13,0,0,0,8.35,8.46,14,14,0,0,0,11.65-1.37A17.74,17.74,0,0,0,41.82,71c1.51-4.41,1.57-9.14,2.81-13.61.74-2.67-3.25-4.5-4.57-1.93-.74,1.44-2.68,5.64-5,4.37a2.8,2.8,0,0,1-.91-2,8.13,8.13,0,0,1,.48-3.48,14.86,14.86,0,0,1,4.43-6.64,13,13,0,0,1,3.39-2.19,6.27,6.27,0,0,1,1.65-.43c.14,0,.28.13.35.16s0-.69-.09,0a2.5,2.5,0,0,0,5,0Z" transform="translate(-14.05 -40.08)"/><path class="cls-1" d="M67.52,69.31c2-6.21,3.58-17-4.17-20C59.86,47.92,56,49.5,53.52,52a36.24,36.24,0,0,0-5.92,8.85,67,67,0,0,0-4.75,11.57c-.94,3.08,3.88,4.4,4.82,1.33a59.62,59.62,0,0,1,4.25-10.37q1.34-2.55,2.91-5a13.47,13.47,0,0,1,3.08-3.64A4.06,4.06,0,0,1,61.72,54a4.29,4.29,0,0,1,2.09,2.85c1,3.52-.05,7.78-1.11,11.16-1,3.08,3.86,4.39,4.82,1.33Z" transform="translate(-14.05 -40.08)"/><path class="cls-1" d="M67,61.74a6.71,6.71,0,0,0-4.75-1.59c-1.83,0-3.66.07-5.48.23a66,66,0,0,0-11.08,1.9c-3.11.82-1.8,5.65,1.32,4.83a57.77,57.77,0,0,1,9-1.67c1.57-.15,3.15-.25,4.74-.28h2c.55,0-.09,0,.41,0,.29.1.33.1.14,0,.26.14.3.17.12.06A2.5,2.5,0,1,0,67,61.74Z" transform="translate(-14.05 -40.08)"/><path class="cls-1" d="M76.52,52.34q-2.68,9.54-5,19.18a2.56,2.56,0,0,0,1.75,3.08,2.52,2.52,0,0,0,3.07-1.75q2.31-9.64,5-19.18c.88-3.11-3.94-4.43-4.82-1.33Z" transform="translate(-14.05 -40.08)"/><path class="cls-1" d="M77.71,53.54A114.51,114.51,0,0,0,89.28,64c1.16.92,3.14,1.09,3.92-.5l7.56-15.32-3.93.51c.92,1.07,1,2.76,1.09,4.1.18,2,.41,4.08.73,6.11a72.37,72.37,0,0,0,3,12.14,2.57,2.57,0,0,0,3.08,1.75,2.52,2.52,0,0,0,1.74-3.08,70.7,70.7,0,0,1-3.18-13.06c-.56-4-.2-8.27-3-11.5a2.52,2.52,0,0,0-3.93.51L88.89,61l3.92-.5A115.72,115.72,0,0,1,81.24,50c-2.24-2.32-5.77,1.22-3.53,3.53Z" transform="translate(-14.05 -40.08)"/><path class="cls-1" d="M113.92,59.74c2.75,1.16,5.26.66,7.91-.53,2.11-1,4.39-2.17,5.67-4.19a5.79,5.79,0,0,0-.36-7c-1.83-2-4.75-2.11-7.11-1.17-4.34,1.73-8,5.38-10.57,9.25-2.37,3.65-4.87,9-1.9,13a9.35,9.35,0,0,0,6.71,3.57c2.94.28,5.81-.76,8.5-1.81a2.59,2.59,0,0,0,1.75-3.08,2.53,2.53,0,0,0-3.08-1.75,22.35,22.35,0,0,1-5.23,1.63,5.35,5.35,0,0,1-3.47-.53,2.64,2.64,0,0,1-1.56-2.05c-.15-1.38.66-3,1.26-4.16a21.71,21.71,0,0,1,5.63-7.1,15,15,0,0,1,3.64-2.33,2.26,2.26,0,0,1,1.71-.16c-.14-.07.16.15.18.18-.12-.22,0,0-.08.18a2.83,2.83,0,0,1-.79,1.22,10.22,10.22,0,0,1-2,1.21c-1.07.56-3.06,1.78-4.32,1.25a2.59,2.59,0,0,0-3.42.9,2.52,2.52,0,0,0,.9,3.42Z" transform="translate(-14.05 -40.08)"/></svg>