<svg id="Слой_1" data-name="Слой 1" xmlns="http://www.w3.org/2000/svg" viewBox="0 0 45.48 93.36"><defs><style>.cls-1{fill:#fff;stroke:#fff;stroke-miterlimit:10;stroke-width:3px;}.cls-2{fill:#43345d;}</style></defs><path class="cls-1" d="M41.73,90.18C50.56,89.6,32.48,28.37,30,15.39a85.5,85.5,0,0,0-2.3-9.91c-.5-1.71-.84-2.66-1.33-2.72C25,2.58,23.65,9.41,23.23,11.5c-3.76,18.69-8.11,74.57-9.56,74.6-.85,0-1.87-17.21-3-25.64-.22-1.57-.45-2.15-1-5.25-.42-2.51-1.32-4-1.57-4.08-.74-.18-2,6.77-2.79,11.27C2.77,77,1,88.67,1.92,89.4c3.66,2.8,16,5.33,34.37,2.43C38.72,91.45,40.33,90.27,41.73,90.18Z" transform="translate(-0.16 -1.25)"/><path class="cls-2" d="M21.12,33.81q.55-2.61,1.18-5.2a5.76,5.76,0,0,0,.26-1.07l0-.14c.17-.38-.11-.36-.82.07a3.15,3.15,0,0,0,.17.45,20.46,20.46,0,0,1,.45,2.46q.9,5.4,1.94,10.78c.35,1.78.7,3.56,1.07,5.33.23,1.14.7,3.4,2.43,2.52,1.33-.68,1.28-3.08,1.47-4.33.28-1.78.55-3.56.79-5.34.27-2,.53-3.94.76-5.92l.33-2.91c.06-.55.12-1.11.17-1.66,0-.3.32-1.45-.15-1.21H29.94c.24.12.65,1.43.78,1.72l1,2,1.92,4.06c.68,1.45,2.84.18,2.16-1.27l-1.92-4.05A40.25,40.25,0,0,0,32,26.32a1.57,1.57,0,0,0-2.49-.56c-.84.86-.65,2.81-.76,3.92q-.47,4.41-1.06,8.79c-.21,1.51-.43,3-.66,4.52-.1.68-.21,1.36-.32,2-.07.4-.13.81-.2,1.22,0,.24-.35.86,0,.59l1-.12-.16-.07.75.58a8.56,8.56,0,0,1-.44-2L27.24,43c-.3-1.51-.6-3-.88-4.53q-.84-4.45-1.58-8.92a8.23,8.23,0,0,0-1-3.55A1.91,1.91,0,0,0,21,25.44c-.91.74-1,2.23-1.28,3.3-.35,1.47-.68,2.93-1,4.41s2.08,2.24,2.41.66Z" transform="translate(-0.16 -1.25)"/></svg>