<svg id="Слой_1" data-name="Слой 1" xmlns="http://www.w3.org/2000/svg" viewBox="0 0 93.61 64.86"><defs><style>.cls-1{fill:#fff;stroke:#fff;stroke-miterlimit:10;stroke-width:3px;}.cls-2{fill:#43345d;}</style></defs><path class="cls-1" d="M92.4,61.79c7.68-3.3-3.3-39.14-8.28-48.18a63,63,0,0,0-6.37-8.69c-1-1.19-5.85-3.63-9.23-2.35A11.9,11.9,0,0,0,61.8,9.05c-6.56,13.8-7.36,41.23-10.28,41.25-1.7,0-3-5-5.34-10.83-.43-1.09-2.76-5-5.1-5.46-4.86-.91-10.73,14.35-11.42,16.42C29.25,51.69,22,7.69,17.35,12.9,7.19,24.29,3,61.55,4.89,62.06c7.35,2,39.67,2.9,76.58.88C86.35,62.67,89.82,62.91,92.4,61.79Z" transform="translate(-2.94 -0.71)"/><path class="cls-2" d="M58.13,23.06c.54-.84,1.1-1.66,1.67-2.48.48-.67,1-1.92,2-1.93s1.35.61,1.74,1.36c.5,1,1,2,1.53,2.95q1.59,3,3.32,5.85.81,1.35,1.65,2.7c.46.73.9,1.74,1.77,2.08,1.85.73,2.86-1,3.54-2.39.79-1.57,1.55-3.15,2.25-4.75a48.51,48.51,0,0,0,2.17-5.94,15.09,15.09,0,0,0,.41-1.46c0-.08.09-.21.08-.29l.06-.19-.5.31c0,.06,1.34.88,1.53,1l6.57,4.54c1.32.92,2.57-1.25,1.26-2.16L83,18c-1.25-.87-3.56-2.76-4.84-.82a11.45,11.45,0,0,0-.9,2.91c-.29,1-.6,1.95-1,2.91-.5,1.35-1.09,2.67-1.7,4-.4.85-.81,1.69-1.22,2.53a8.11,8.11,0,0,0-.86,1.68c.06.13.44.56.31.07a4.61,4.61,0,0,0-.65-1Q70.23,27.17,68.45,24c-1.1-2-2-4.16-3.23-6.05a4.16,4.16,0,0,0-5-1.47,5.4,5.4,0,0,0-1.84,1.9c-.82,1.11-1.6,2.26-2.36,3.42-.87,1.35,1.29,2.61,2.16,1.26Z" transform="translate(-2.94 -0.71)"/><path class="cls-2" d="M9.45,32.39c.36-.74.74-1.48,1.14-2.2l.3-.55q.34-.34,0-.27c.23,0,.13,0,.29.24a10.55,10.55,0,0,1,.89,2.25c.28.71.58,1.42.88,2.12.64,1.53,1.32,3,2,4.53.3.63.54,1.35,1.24,1.65a1.77,1.77,0,0,0,2-.5,6,6,0,0,0,.89-1.95q.39-1,.75-2c.33-.93.64-1.88.91-2.83.2-.69.37-1.39.53-2.09.06-.3.13-.6.19-.9s.08-.35.11-.52l.06-.28c.11-.37-.05-.23-.49.43h-.67c.41.09,1.49,1.32,2,1.77l2.26,2.07c1.19,1.08,3-.68,1.77-1.77L23.73,29c-.73-.67-1.56-1.75-2.58-1.95-1.78-.37-2,1.59-2.24,2.82-.23,1.05-.5,2.09-.82,3.11-.23.76-.48,1.5-.74,2.24-.15.42-.3.84-.46,1.26s-.21.56-.32.83l-.11.3c-.22.37-.14.42.24.13l.88.37a3,3,0,0,1-.44-.89c-.19-.39-.38-.8-.57-1.2l-1.08-2.41c-.7-1.63-1.31-3.29-2-4.93a2.7,2.7,0,0,0-3.55-1.61,3.51,3.51,0,0,0-1.43,1.7c-.43.77-.83,1.55-1.22,2.34-.7,1.44,1.45,2.71,2.16,1.26Z" transform="translate(-2.94 -0.71)"/></svg>