<svg id="Слой_1" data-name="Слой 1" xmlns="http://www.w3.org/2000/svg" viewBox="0 0 564.12 443.88"><defs><style>.cls-1{fill:#44345c;}.cls-2{fill:#f3911d;}.cls-3{fill:#838080;}.cls-4{fill:#949091;}.cls-5{fill:#e8e7e8;}.cls-6{fill:#dedddd;}.cls-7{fill:#aaa6a7;}.cls-8{fill:#cbc9c9;}.cls-9{fill:#b7b4b4;}.cls-10{fill:#c3c0c1;}.cls-11{fill:#302640;}.cls-12{fill:#f0efef;}.cls-13{fill:#3a2c53;}.cls-14{fill:#d5d3d3;}.cls-15{fill:#2f224c;}.cls-16{fill:#fff;}</style></defs><path class="cls-1" d="M214.57,451.56A138.39,138.39,0,0,1,181,395.43a118.22,118.22,0,0,1-5.15-27.76c1.22-1,.84-2.36.83-3.61,0-14.81,1.6-29.35,6.54-43.43.57-1.62,2.14-3.6.43-5.58,6.65-17.91,16.87-33.6,29.72-47.65,1.83-2,3.75-3.92,5.63-5.87,1.53.53.49-.71.74-1.06l-.08.1c.31-.35.61-.7.91-1.06l-.13.14a1.08,1.08,0,0,0,1-1l-.13.14a1.09,1.09,0,0,0,1-1l-.14.17,1.06-1.05.57-.65,1.13-1.06-.17.18c.36-.39.71-.78,1.06-1.18l.71-.51c.34-.3,1.65.71,1.09-.8.83-1.31.33-1.61-1.05-1.6-3.1,0-6.2-.08-9.3-.12a2.89,2.89,0,0,0-4.32,0c-23.39-2.34-46.34-6.39-67.12-18.22-9.88-5.62-17.56-13.42-21.3-24.45-4-11.87-1-22.68,5.69-32.64a36,36,0,0,1,12.77-12c.61.83,1.25.28,1.85,0,4.71-2.24,9.21-5,14.32-6.34.94-.25,1.87-.75,2-2,24-7.54,47.8-6.05,71.88,2.55-1.61-9,.31-16.83,6.17-23.22,8.71-9.5,19.91-12.08,32.26-10.23,20.87,3.14,37,14.14,49.74,30.56,1.16,1.51,1.88,3.17,4.72,1.87,13-6,24.14-1.25,33.93,7.39,7.6,6.71,11.72,15.74,14.93,25.27,2.88,8.54,6.1,16.94,6.54,26.07.09,2,1.92,2.35,3.29,3a333.3,333.3,0,0,1,44.33,24.69,35.81,35.81,0,0,1,5.39,4.26c4.78,4.77,5.44,10.69,2,16.49a51.76,51.76,0,0,1-6.69,8.36c-.26.22-.76.58-.73.64.37.66.81.19,1.23,0C455.12,263.09,480.86,255,507,247.88a13.49,13.49,0,0,1,2.12-.24,1.32,1.32,0,0,0,1.6.78c.07,0,.12-.49.08-.51a11.11,11.11,0,0,0-1.11-.37l2.89-.71c1.81,1.37,2,2.57.37,4.52-3.86,4.68-7.59,9.51-11,14.55-1.56,2.33-4.84,3.92-4.05,7.55l-1.74,1a8.41,8.41,0,0,0-5.17,1.62c-1.52.37-3.07.66-4.58,1.12a545,545,0,0,0-60.84,22.47c-21.6,9.4-42.63,19.83-62.19,33.05-6.64,4.49-15.51,2.44-18.58-4.13-3.65-7.82-1.89-16.24,4.81-21.68,19.15-15.54,38.51-30.8,58.53-45.22,2.76-2,3-3.42-.12-5.11-11.11-6-21.86-12.61-33.49-17.63-7.78-3.35-14.37-8.35-15.36-17.57-.87-8.2-4.12-15.76-5.64-23.78a30.58,30.58,0,0,0-9.82-17.28c-5.13-4.6-7.84-4.23-11.41,1.45-1.5,2.39-3.34,4.87-6.26,4.69-6-.38-12.25-2-15.28-7.42-2.85-5.15-6.72-9.26-10.36-13.62-9.11-10.9-20.51-17.74-35-18.49-3.71-.19-7.63.06-9.64,3.45s.53,6.57,2.5,9.37c3.65,5.15,7.53,10.14,11.09,15.35,4.26,6.23,2.77,15.79-6.25,18.19A17.43,17.43,0,0,1,248,190.77a109.23,109.23,0,0,0-48-17.39c-.21-1.54-1.33-1.59-2.54-1.65a76.39,76.39,0,0,0-18.3,1.44c-1.8.35-4.21-.61-5.38,1.8-6.15,2.27-12.56,3.81-18.31,7.21-10.15,6-15.25,20.12-1.66,29.43,8.94,6.12,19,9.34,29.28,12C204,229,225.26,229.33,246.68,228c10.08-.64,14.31,1.21,19.16,10.44,2.44,4.65,1.43,9.29-2.24,12.93-6.62,6.56-14.24,11.9-21.34,17.87-.85-.67-.63.17-.75.52-4.15,3.94-8.53,7.66-12.4,11.86-17.56,19.05-28.79,41.17-31.84,67.13-.47.29-1.31.55-1.33.88a139.5,139.5,0,0,0-.06,18.85c0,.34.83.63,1.27.95a128.84,128.84,0,0,0,8.27,30.89c5.63,13.32,13.9,24.9,23.1,35.89l1.08,1.36c6.41,5.91,12.57,12.1,19.55,17.37,26.49,20,56.41,32.21,88.75,38.86,11.48,2.36,23.15,3.45,34.8,4.61.27,1.27,1.21,1.4,2.29,1.4h26.23c1.21,0,2.34-.08,2.51-1.64a226.7,226.7,0,0,0,31.95-3.93,223.85,223.85,0,0,0,49.14-15.11c29.34-13.07,55.34-30.33,73.68-57.48,13.13-19.44,21.44-40.32,19.7-64.29,1.69-2.16.74-4.67.74-7,0-1.71,1.34-4.11-1.51-5.08,0-.29-.07-.59-.11-.89,1.16-1.45,1.57-2.74-.75-3.42a30.86,30.86,0,0,0-.62-5,71.34,71.34,0,0,1-3-26.05c1.94-3.32.5-6.94.9-10.4.14-1.19-.06-2.33-1.6-2.55-.05-.57-.11-1.14-.16-1.71,1.29-.93,1.11-2.37.87-3.55-1.58-7.84,1.56-13.34,8.25-17.2a15.73,15.73,0,0,0,3.1-2.27,5,5,0,0,1,5.82-1.18c1.2,9.93,2.27,19.87,3.63,29.78,2.12,15.42,4.45,30.82,6.67,46.23.12.85.11,1.71.16,2.57a18.15,18.15,0,0,0,0,12.06,132,132,0,0,1-16.05,58.27c-15.93,29-39.43,50.41-67.73,67-20.94,12.26-43.44,20.55-67,26.16-6.95,1.66-14.08,2.62-21.12,3.9-1.76-1.51-3.9-.91-5.77-.71-6.23.67-12.46,1.3-18.7,1.84a197.8,197.8,0,0,1-41.85-.83c-2.32-.29-4.82-1-7,.61a230.91,230.91,0,0,1-52-11.2c-22.05-7.25-42.76-17.19-61.57-30.88-6.26-4.55-12.51-9.12-17.86-14.78l.35-.69-1.25-.19-1.62-1.49-1-1.05.17.15-1.11-1-.6-.65-1-1.07.14.15-1-1,.15.13-1.06-1-.64-.71C215.22,452.14,216.07,450.79,214.57,451.56Z" transform="translate(-91.93 -99.14)"/><path class="cls-2" d="M584.8,206.85,618,218.28c.81.28,1.62.61,2.45.83,2.64.72,4.86,1.91,5.32,4.94.44,2.85-1.34,4.47-3.35,6Q603.67,244.62,585,259.21L480.46,340.54l-1.7,1.32c-2.45,1.91-5,2.38-7.37,0s-2.18-5-.1-7.66c8-10.36,15.88-20.8,23.8-31.2q25.08-32.94,50.22-65.83c2.11-2.75,2.38-3.83-1.38-5-10.94-3.49-21.77-7.34-32.63-11.1-6.24-2.17-7.16-5.58-2.77-10.55Q552.94,160.23,597.37,110c2.72-3.09,5.3-4,9.4-2.51,14.05,5.06,28.24,9.72,42.37,14.54,8.1,2.77,9,6.07,3.21,12.22q-32,34.23-63.88,68.47C587.31,203.91,586.22,205.22,584.8,206.85Z" transform="translate(-91.93 -99.14)"/><path class="cls-3" d="M137.06,160.54c-2.61,2.63-5.38,5.12-7.83,7.9-17.65,20-15.33,46.66,5.49,63.4C148.67,243.05,165.28,248,182.31,252c10.6,2.48,21.43,3.59,32.84,5.32-3.94,4.44-7.54,8.3-10.91,12.34-18.74,22.49-30.6,47.94-33.64,77.33-2.35,22.71,1.8,44.22,10.86,65,13.8,31.64,36.92,55.08,65.29,73.75,29.88,19.66,63,30.83,98.12,36.45a261.68,261.68,0,0,0,76.83,1.31,321.89,321.89,0,0,0,60.64-14.27c-.84,3.05-3.79,3.42-6,4.19-9.6,3.3-19.06,6.93-28.82,9.82-23.49,7-47.58,9.44-71.84,11.12-7.77.54-15.45-.72-23.19-1a113,113,0,0,1-17.88-1.88c-17.49-3.44-35.1-6.21-52-12.4-10.36-3.78-20.75-7.47-30.55-12.41-21.39-10.79-40.77-24.46-57.35-41.91-1.43-1.51-2.57-3.57-5-3.85A4.37,4.37,0,0,0,188,457.1c-3.56-3.2-6-7.3-8.76-11.12a141.19,141.19,0,0,1-24-56c-1.6-8.15-2.85-16.52-2.43-24.68a151.63,151.63,0,0,1,7.14-39.06,147.85,147.85,0,0,1,18.89-37.83c3.61-5.32,8-10.08,11.48-15.49,2.68-4.22.58-7.89-4.21-8.83-8.69-1.71-17.51-2.94-26-5.27-19.15-5.23-38-11.12-50.89-28a40.07,40.07,0,0,1-8-31.55c1.68-11.1,7.33-20,15.42-27.55,1.07-1,3.81-1.62,2.29-4.23,1.65-1.22,2.83-3.13,5.11-3.41,1.75,1.78,3.06-.06,4.48-.6C131.29,162.35,133.71,160.07,137.06,160.54Z" transform="translate(-91.93 -99.14)"/><path class="cls-4" d="M591.31,108.76c-10.77,12.32-21.49,24.67-32.31,36.94Q531.52,176.87,504,208c-5.63,6.39-3.38,14.65,4.66,17.55q9.28,3.36,18.59,6.69c-.16,1.83-1.7,2-3,2.56-2.28,1-4.1,2.44-4.74,5l-1,.34-2.48,0a5,5,0,0,0-3.47-5.3c-6.26-2.49-12.65-4.68-19-7l-.86-.86c-1.27-4.7-1.33-9.33.83-13.82a1.91,1.91,0,0,1,.89-1.71,3.55,3.55,0,0,0,3.43-3.47,2.78,2.78,0,0,1,1.75-2.57c2.94-1,5.05-2.66,5.19-6l1.72-1.73a6.7,6.7,0,0,0,5.14-5.2l.91-1.7a6.76,6.76,0,0,0,5.14-5.21l.9-1.69c3.41-1.62,6.34-3.65,6.91-7.78l.86-.86a5,5,0,0,0,4.29-4.34l1.76-2.56c2.93-1,5-2.67,5.19-6.05l1.71-1.73c2.94-1,5.05-2.66,5.19-6,.58-.57,1.15-1.15,1.72-1.72a6.73,6.73,0,0,0,5.14-5.21l.91-1.69c2.93-1,5-2.68,5.19-6.05l1.71-1.73a6.7,6.7,0,0,0,5.14-5.2l.91-1.7a6.78,6.78,0,0,0,5.15-5.21c.14-1.7,1.26-2.65,2.61-3.43a5,5,0,0,0,4.29-4.33,2.78,2.78,0,0,1,1.76-2.57,9.18,9.18,0,0,0,6.05-6l.83,0C587.72,109.32,589.42,108.38,591.31,108.76Z" transform="translate(-91.93 -99.14)"/><path class="cls-5" d="M444.36,257.23c-.32-1.83.74-2.49,2.31-3,10.26-3,20.34-6.63,30.72-9.33,5-1.29,9.93-2.64,14.87-4.06,1.09-.32,2.47-.21,2.66-1.66s-1.26-1.71-2.18-2.3c-6.86-4.4-11.39-10.24-10.29-18.82.85-6.58,5.46-11.21,9.61-15.93q19.26-21.92,38.61-43.74c7.88-8.88,15.94-17.6,23.81-26.49,7.29-8.24,14.53-16.53,21.59-25,5-5.93,14.87-9.49,20.81-7.07.77.31,1.85.34,1.8,1.48-.06,1.46-1.29,1.23-2.26,1.3-8.47-1.15-14.64,2.81-19.83,8.93-3.05,3.6-6,7.26-9.16,10.8q-19.87,22.54-39.83,45c-11.78,13.27-23.63,26.48-35.4,39.76-10.44,11.8-8.11,22.23,6.14,28.31,1.94.83,5.32.75,5.12,3.71s-3.58,2.25-5.56,3.13c-3.13,1.4-7.22.13-9.66,3.47l-1.6.06c-2.34-1.25-4-.47-5.32,1.67l-1.59.1c-1.79-1.22-3,.06-4.31,1l-1.65.09c-2.52.73-5.47.47-7.13,3.14l-4.11.29c-2.71.92-5.93.58-7.94,3.22l-3.29.22Z" transform="translate(-91.93 -99.14)"/><path class="cls-6" d="M121.43,158.83l.82,0,24.18-9.52,1.69,0c3.8-.68,7.7-.9,11.27-2.56l1.69,0c1.48-.13,3.13.63,4.35-.84l4.28,0c2.27.49,4.77-.79,6.89.88-5.71.08-10.91,2.61-16.47,3.41-.87-1.15-2.1-.85-3.17-.62-11.09,2.38-22,5.19-32.13,10.61-18.56,9.93-32,31.74-28.48,52.53,2,12,8.06,21.51,17,29.49,4.69,4.16,10.22,7,15.42,10.31,1.28.82,2.9,2.15,4.72.76,1-.22,1.61.44,2.35.83l1,1.58c.44,2.12,2.16,1.53,3.54,1.67.26,0,.52,0,.78.07,1.38,2.74,4.31,2.47,6.62,3.23,10.74,3.51,21.86,5.52,32.92,7.72,4,.8,4.79,3.32,2.27,6.36a156.76,156.76,0,0,0-22.59,35.86,137,137,0,0,0-12.09,47.14,134.2,134.2,0,0,0,10.64,62.08c1.16,2.71,3.15,5.21,3,8.41h-1.73c-.58-1.87-.48-4.07-2.58-5.19-.29-.86-.58-1.72-.88-2.58-1.49-5-2.6-10.08-5.18-14.67,0-.57,0-1.13,0-1.69-.28-1.56-.5-3.15-1.69-4.35l0-1.7a18,18,0,0,0-1.71-6.94c0-.56,0-1.13,0-1.69-.06-1.22.45-2.57-.85-3.48,0-.86,0-1.71,0-2.56-.13-1.48.63-3.13-.84-4.35l0-3.42q0-9.53,0-19.05c0-.57,0-1.13,0-1.7,1.47-1.22.71-2.87.83-4.36l0-2.55c1.3-.91.79-2.26.85-3.48l0-1.7c1-.63.86-1.65.83-2.62,0-.56,0-1.13,0-1.69,1.06-.63.88-1.65.85-2.62l0-1.7c1.19-1.21,1.41-2.79,1.69-4.35,0-.56,0-1.13,0-1.69a42.34,42.34,0,0,0,4.32-13c3.91-10.92,9.71-20.81,16.4-30.22,1.42-.73,2.54-1.69,2.6-3.44,0-.28,0-.55,0-.83a2.46,2.46,0,0,0,2.55-2.63l.89-1.69a1.61,1.61,0,0,0,1.71-1.75h0c1.29-.66,2.23-1.69,1.35-3.06-1.3-2-3.48-2.26-5.7-2.09l-1.7,0c-.63-1.05-1.65-.87-2.62-.84l-1.7,0c-.63-1.05-1.65-.87-2.62-.85l-1.7,0a1.66,1.66,0,0,0-1.76-.82l-1.69,0c-2.66-1.63-5.78-1.71-8.67-2.56l-1.69,0a45.05,45.05,0,0,0-13-4.31,1.81,1.81,0,0,0-1.72-.85,1.66,1.66,0,0,0-1.76-.85c-2.3-.18-4-1.76-6-2.61a1.68,1.68,0,0,0-1.74-.87,1.82,1.82,0,0,0-1.73-.86c-.89-1.77-2.52-2.31-4.31-2.6h0a2.55,2.55,0,0,0-2.59-1.73h0a2.57,2.57,0,0,0-2.58-1.73,1.86,1.86,0,0,0-1.7-.89,3.61,3.61,0,0,0-3.5-3.4,14.47,14.47,0,0,1-4.32-4.32c0-1.77-1.17-2.72-2.59-3.46l-.85-.87a1.59,1.59,0,0,0-1.7-1.76c0-.27,0-.55,0-.83a2.52,2.52,0,0,0-1.72-2.59,1.86,1.86,0,0,1-.86-1.72c-.27-1.59-.53-3.18-2.55-3.49-.14-2.13-2.07-3.75-1.7-6,1.36-2.27,0-4.12-1-6l0-2.55v-7.84c0-.85,0-1.71,0-2.56a170,170,0,0,1,7.8-20.72,5.07,5.07,0,0,0,1.76-3.42,2.46,2.46,0,0,0,2.56-2.62A56.4,56.4,0,0,0,114.5,164a2.58,2.58,0,0,0,2.58-1.74l2.58-1.73A1.59,1.59,0,0,0,121.43,158.83Z" transform="translate(-91.93 -99.14)"/><path class="cls-4" d="M189.65,460.87c2.43.28,3.57,2.34,5,3.85,16.58,17.45,36,31.12,57.35,41.91,9.8,4.94,20.19,8.63,30.55,12.41,16.93,6.19,34.54,9,52,12.4a113,113,0,0,0,17.88,1.88c7.74.25,15.42,1.51,23.19,1,24.26-1.68,48.35-4.15,71.84-11.12,9.76-2.89,19.22-6.52,28.82-9.82,2.24-.77,5.19-1.14,6-4.19l22.34-9.55.12,2.79-2.41,1c-2.47.44-5.14.59-5.48,4l-1.63,1-3.34.13c-1.78-.18-1.87,1.05-1.92,2.3l-1.63.24c-3.21-.77-5.3.83-7,3.28l-2.43.21q-10.39,3.62-20.77,7.24a2.23,2.23,0,0,0-1.81,2.1l.1.16-1.8-.13c-4.83-.82-8.94,1.82-13.33,3-2.53.66-5.94-.34-7.46,3l-1.66.06a5.23,5.23,0,0,0-7,1.66l-1.67,0c-1.36-1.31-2.21-.91-2.65.81l-1.66.06c-3.49-1.16-6.73-.88-9.55,1.71l-1.68,0c-1.93-.92-3.88-2-5.23.82l-1.68,0c-2.72-.83-5.5-2.15-7.82.85h-1.67c-2.73-.84-5.51-2.13-7.83.84l-3.4,0a42.31,42.31,0,0,0-18.13,0l-2.54,0c-2.32-3-5.09-1.68-7.82-.84l-2.54,0c-2-3-4.5-1.76-7-.83l-1.68,0c-1.68-2.76-3.87-1.92-6.09-.85l-1.68,0a8.09,8.09,0,0,0-8.68-1.67l-1.67,0c-.42-1.79-1.29-2.12-2.64-.8l-1.68-.07c-.17-1.24-1-1.44-2.12-1.66a268.16,268.16,0,0,1-49.6-14.72c-2-.8-3.85-2-6.12-1.72a42.19,42.19,0,0,0-15.61-7.7l-.81-.08c-.14-1.64-1.37-1.67-2.58-1.72-1.17-2.66-3.57-3.14-6.09-3.4h0c-.32-2-1.89-2.32-3.51-2.53l-1.69-.9c-1.21-2.59-3.43-3.74-6.08-4.28l-1.68-.91a1.52,1.52,0,0,0-1.79-1.66l-.79-.09a1.54,1.54,0,0,0-1.78-1.66l-1.67-.93a1.55,1.55,0,0,0-1.79-1.66,1.88,1.88,0,0,1-1.66-.93,3.54,3.54,0,0,0-3.54-3.36l-1.66-.94a3.54,3.54,0,0,0-3.51-3.4c-1.72-1.43-4-2.2-5.13-4.36a6.9,6.9,0,0,0-5.18-5.17c-1.82-1.4-3.78-2.69-4.38-5.13l0-1.76Z" transform="translate(-91.93 -99.14)"/><path class="cls-6" d="M496.13,274.49l1.74-1,1.7.08a4,4,0,0,1-.67,2.86C493,284,487.12,291.5,481.39,299.18c-9.25,12.36-19.06,24.31-27.83,37-1.79,2.59-2.76,5.33-2.07,8.49a13.48,13.48,0,0,0,10,10.64c4.72,1.35,11.46-1.9,14.74-6.6,9.91-4.79,17.66-12.58,26.27-19.13,21.59-16.44,42.81-33.36,64.21-50,1.32-1,2.59-2.29,4.39-2.57,0,1.17,0,2.34.08,3.5-1.6-.23-2.64.7-3.8,1.62-5.93,4.72-11.93,9.34-17.91,14-12.29,9.59-24.55,19.22-36.89,28.75C499.45,335,486.34,345.18,473,355c-6.88,5.07-14.25,4.24-19.87-1.44-5.38-5.43-6.18-12.82-1.21-19.63,9.69-13.29,19.85-26.23,29.69-39.41C486.54,287.94,492.11,281.77,496.13,274.49Z" transform="translate(-91.93 -99.14)"/><path class="cls-7" d="M513.37,270.1q-12.11,16.2-24.23,32.38c-7,9.3-14.08,18.54-21.12,27.81-5.49,7.23-4.55,12.62,3.07,17.56-1.72,3.68-7.16,5.67-10.85,4-4.12-1.91-6.82-7.93-5.05-11.59a36.78,36.78,0,0,1,3.65-6.33C473,315.23,487.35,296.65,501.5,278c1.3-1.72,3.53-3.16,3.17-5.86A18.77,18.77,0,0,1,513.37,270.1Z" transform="translate(-91.93 -99.14)"/><path class="cls-4" d="M250.81,120.33c-7.85,4-14.75,8.21-19.05,15.69a31.2,31.2,0,0,0-4.27,11.63c-.27,2.16-1,3-3.35,2.32-4.55-1.27-9.17-2.34-13.8-3.28-2.83-.58-3.11-1.63-1.73-4.08,8.39-14.94,21.61-21.48,38.21-22.27C248,120.28,249.1,120.33,250.81,120.33Z" transform="translate(-91.93 -99.14)"/><path class="cls-8" d="M488.24,245.82c2.44-3.34,6.53-2.07,9.66-3.47,2-.88,5.35-.23,5.56-3.13s-3.18-2.88-5.12-3.71c-14.25-6.08-16.58-16.51-6.14-28.31,11.77-13.28,23.62-26.49,35.4-39.76q19.95-22.49,39.83-45c3.12-3.54,6.11-7.2,9.16-10.8,5.19-6.12,11.36-10.08,19.83-8.93a3,3,0,0,1-2.28,2.63c-4.08.21-8.9-1.46-10.86,4.21a5.55,5.55,0,0,0-4.31,4.32,9.44,9.44,0,0,0-6,6.1l-.06.8a12,12,0,0,0-6.85,7l-.86.87c-2.11,1.69-4.53,3.11-5.19,6l-.85.87c-2.37,2-5.12,3.65-6,6.9l-.91,1.67a7.14,7.14,0,0,0-5.14,5.23l-.85.87c-2.38,2-5.12,3.65-6.06,6.9l-.85.87c-2.37,2-5.12,3.65-6,6.9l-.86.87c-2.37,2-5.12,3.65-6,6.9,0,.27,0,.54-.05.81a11.88,11.88,0,0,0-6.85,7c-.31.56-.61,1.12-.92,1.67a7.11,7.11,0,0,0-5.13,5.23l-.86.87a196.4,196.4,0,0,0-22.27,24.92c-2.42,3.14-3.72,7.07-1.85,11.33,3.08,7,9.41,9.22,15.94,11.17,4.36,1.31,5,2.54,3,6.54L496.93,245C493.87,243.51,491.18,246,488.24,245.82Z" transform="translate(-91.93 -99.14)"/><path class="cls-9" d="M133.53,253.16c-1.82,1.39-3.44.06-4.72-.76-5.2-3.33-10.73-6.15-15.42-10.31-9-8-15-17.53-17-29.49-3.53-20.79,9.92-42.6,28.48-52.53,10.12-5.42,21-8.23,32.13-10.61,1.07-.23,2.3-.53,3.17.62-3.68,1.44-7.38,2.81-11,4.34-1.59.67-3.1,1.4-4.88.94-2.95,1-6.14,1.51-8.8,3-3.73,2.1-8.57,1.93-11.44,5.67-2.28.28-3.46,2.19-5.11,3.41a44.37,44.37,0,0,0-9.34,8.67c-8.32,10.78-13,22.37-10.47,36.33,2.25,12.6,8.89,22.28,18.69,29.95C122.76,246.3,128.26,249.59,133.53,253.16Z" transform="translate(-91.93 -99.14)"/><path class="cls-10" d="M504.67,272.1c.36,2.7-1.87,4.14-3.17,5.86-14.15,18.69-28.47,37.27-42.66,55.93a36.78,36.78,0,0,0-3.65,6.33c-1.77,3.66.93,9.68,5.05,11.59,3.69,1.71,9.13-.28,10.85-4l5.14.9c-3.28,4.7-10,7.95-14.74,6.6a13.48,13.48,0,0,1-10-10.64c-.69-3.16.28-5.9,2.07-8.49,8.77-12.73,18.58-24.68,27.83-37C487.12,291.5,493,284,498.9,276.39a4,4,0,0,0,.67-2.86c.09-.21.19-.42.3-.62l1.41-.25.93-.17Z" transform="translate(-91.93 -99.14)"/><path class="cls-11" d="M504.67,272.1l-2.46.39c5.36-6.88,10.77-13.73,16.07-20.67,1.48-1.95,3.5-3.91,2-6.81.08-.15.16-.3.25-.44a8.41,8.41,0,0,0,4.26-.93c3.14.44,6.21-2.17,9.39-.25q-9,11.78-17.94,23.54c-.86,1.12-1.89,2.12-2.85,3.17A18.77,18.77,0,0,0,504.67,272.1Z" transform="translate(-91.93 -99.14)"/><path class="cls-12" d="M655,140.82a18.78,18.78,0,0,1-5,7.88q-18.12,19.47-36.22,39c-5.14,5.53-10.42,10.94-15.52,16.5-1.19,1.31-2.69,1.8-3.72.86-1.44-1.31.5-2.16,1.24-3,10.21-10.87,20.62-21.56,30.68-32.57,7.94-8.68,15.75-17.47,24.13-25.72C651.69,142.71,652.49,141.21,655,140.82Z" transform="translate(-91.93 -99.14)"/><path class="cls-6" d="M589.36,262.23l35-27.34c-.13,6.26-4.3,8.6-7.4,11.27-6.14,5.29-12.65,10.18-19.18,15-2.24,1.65-5,2.57-7.53,3.82C589.73,264.13,590.46,262.88,589.36,262.23Z" transform="translate(-91.93 -99.14)"/><path class="cls-13" d="M520.26,245c1.52,2.9-.5,4.86-2,6.81-5.3,6.94-10.71,13.79-16.07,20.67l-.93.17c-.41-.65-1-1-1.68-.58s0,.6.27.83c-.11.2-.21.41-.3.62l-1.7-.08c-.79-3.63,2.49-5.22,4.05-7.55,3.39-5,7.12-9.87,11-14.55,1.6-1.95,1.44-3.15-.37-4.52l.93-.67,3.42-.19c.5.73.65.32.74-.23A3.32,3.32,0,0,1,520.26,245Z" transform="translate(-91.93 -99.14)"/><path class="cls-9" d="M507.39,242.1c2-4,1.33-5.23-3-6.54-6.53-1.95-12.86-4.18-15.94-11.17-1.87-4.26-.57-8.19,1.85-11.33a196.4,196.4,0,0,1,22.27-24.92c0,.87,0,1.74,0,2.6l-.91,1.7a6.89,6.89,0,0,0-5.14,5.2l-1.72,1.73c-2.12,1.68-4.55,3.09-5.19,6a2.78,2.78,0,0,0-1.75,2.57,3.6,3.6,0,0,0-3.43,3.47,1.91,1.91,0,0,0-.89,1.71c-4.58,3.31-5,9.61-.83,13.82.29.28.57.57.86.86a6.17,6.17,0,0,0,3.83,3.21c3.6,1.35,7.25,2.56,10.88,3.82,2.82,1,4.76,2.6,4.27,6l-1.76.94Z" transform="translate(-91.93 -99.14)"/><path class="cls-13" d="M589.36,262.23c1.1.65.37,1.9.9,2.74l-.15,6a5,5,0,0,0-5.82,1.18,15.73,15.73,0,0,1-3.1,2.27c-6.69,3.86-9.83,9.36-8.25,17.2.24,1.18.42,2.62-.87,3.55-1.16-3.68-.48-7.5-.91-11.23,0-1.15,0-2.31,0-3.46s-.06-2.33-.08-3.5C576.7,271.49,583.37,267.28,589.36,262.23Z" transform="translate(-91.93 -99.14)"/><path class="cls-13" d="M355.4,517.85c2.21-1.64,4.71-.9,7-.61a197.8,197.8,0,0,0,41.85.83c6.24-.54,12.47-1.17,18.7-1.84,1.87-.2,4-.8,5.77.71a254.37,254.37,0,0,1-47.81,3.26c-7.29-.2-14.56-1-21.85-1.38A13,13,0,0,1,355.4,517.85Z" transform="translate(-91.93 -99.14)"/><path class="cls-9" d="M488.24,245.82c2.94.22,5.63-2.31,8.69-.79-14.63,4.35-29.22,8.8-43.62,13.87a70.82,70.82,0,0,1-7.7,2.55c-2.77.63-2.48-.88-1.38-2.58,2.45-.9,5.5-.51,7.07-3.28l3.3-.22c2.9-.45,6-.39,7.93-3.22l4.11-.29c2.53-.71,5.48-.45,7.13-3.14l1.65-.09c1.79,1.22,3-.1,4.31-1l1.59-.1c1.84-.34,3.81-.3,5.32-1.67Z" transform="translate(-91.93 -99.14)"/><path class="cls-12" d="M306.17,533.4c-2.05,1.91-4.26.21-6-.26-12.76-3.5-25.46-7.33-37.51-12.81-3.7-1.69-8.56-1.59-10.91-5.87l.09-.15a4.17,4.17,0,0,0,.71.06l1.87,0a3.73,3.73,0,0,1,.82,0l1.5.06,1.07.8c4.12,4.11,9.52,5.46,14.9,6.84.24.72.9.76,1.49.88,2,2.14,4.55.63,6.82,1,.87.64.27,2,2.18,2.46C291,528.45,298.53,531,306.17,533.4Z" transform="translate(-91.93 -99.14)"/><path class="cls-12" d="M541.06,480.8c-.29,5-5,6.41-8,8.83-9,7.38-19,13.51-29,19.52a7.12,7.12,0,0,1-4.53.94c3.81-4.17,9.3-5.78,13.76-9,6.45-4.63,13.73-8.15,19-14.35l0,0c1.81,0,2.75-1.1,3.44-2.56l.85-.89C538.74,483.55,539.4,481.29,541.06,480.8Z" transform="translate(-91.93 -99.14)"/><path class="cls-14" d="M532.33,486.76c-5.27,6.2-12.55,9.72-19,14.35-4.46,3.2-10,4.81-13.76,9l-4.17.2c-.17-.63.89-1.32-.12-1.9l1.64-1c2.5-.39,4.5-1.47,5.47-4l2.41-1,2.54-.07a1.59,1.59,0,0,0,1.8-1.62l2.5-1a2.43,2.43,0,0,0,2.6-1.72h0a1.56,1.56,0,0,0,1.81-1.62l3.37-1.82c1.3.09,2-1,3-1.51C525.85,491.19,528.16,487.49,532.33,486.76Z" transform="translate(-91.93 -99.14)"/><path class="cls-13" d="M183.62,315.05c1.71,2,.14,4-.43,5.58-4.94,14.08-6.57,28.62-6.54,43.43,0,1.25.39,2.63-.83,3.61-1.37-12.22.09-24.23,2.73-36.14A79.34,79.34,0,0,1,183.62,315.05Z" transform="translate(-91.93 -99.14)"/><path class="cls-14" d="M306.17,533.4c-7.64-2.36-15.22-4.95-23-6.9-1.91-.49-1.31-1.82-2.18-2.46l.11-.12,4.37.81,3.32.2a1.53,1.53,0,0,0,1.89,1.49l4.15.23a1.53,1.53,0,0,0,1.9,1.49l5,.29c.82,2.13,2.79,2,4.53,2.27l2.47.09a1.55,1.55,0,0,0,1.84.79l2.48.08c.52.88,1.09,1,1.72.11l2.51.09c0,.78.09,1.57.14,2.35-3.25.44-6.41-.27-9.59-.7Z" transform="translate(-91.93 -99.14)"/><path class="cls-14" d="M488.39,511.06l1.63-.23,1.74.09a1.83,1.83,0,0,1,1,1.65c-.87.64-1.28,1.92-2.64,1.88-2.1-.55-3.42,1.19-5.09,1.85-8.42,3.31-16.76,6.82-25.13,10.26l-2.52.13-1-.23c0-.8.07-1.6.11-2.41l-.1-.16,3.42,0a1.66,1.66,0,0,0,1.79-.83l3.37-.92c1.7-.39,3.72-.18,4.48-2.37,1.51-1.1,3.3-1,5-1.07a1.55,1.55,0,0,0,1.86-1.55l2.43-.2c1.66-.1,3.15-.46,3.61-2.38C484.76,514,487.3,513.79,488.39,511.06Z" transform="translate(-91.93 -99.14)"/><path class="cls-6" d="M181.83,460.92l-.86-.87.09-1.82,4.16,1.88,1,1.63a14.48,14.48,0,0,0,7.67,7.86,4.26,4.26,0,0,0,3.46,3.46,11.62,11.62,0,0,0,7,6.8l1.63,1a5.08,5.08,0,0,0,4.43,4.2l.76.12c.33,1.1.67,2.2,1,3.3l-1.81.09h0c-.74-1.41-1.7-2.52-3.44-2.6l-1.75-1.71c-1-1.64-2.12-3.24-4.3-3.47a5.75,5.75,0,0,0-2.6-2.58A17.18,17.18,0,0,0,193,473h0a12.08,12.08,0,0,0-4.31-4.33,9.29,9.29,0,0,0-3.43-3.47C185.07,463,183.46,462,181.83,460.92Z" transform="translate(-91.93 -99.14)"/><path class="cls-7" d="M534.16,243.39c-3.18-1.92-6.25.69-9.39.25-.35-1.5-.7-3-1-4.51,4.6-2.34,10-1.1,14.64-3.41,1.86,1.13.13,1.82-.38,2.54C536.77,240,535.45,241.69,534.16,243.39Z" transform="translate(-91.93 -99.14)"/><path class="cls-3" d="M538.37,235.72c-4.61,2.31-10,1.07-14.64,3.41l-4.24.64c.64-2.56,2.46-4,4.74-5,1.28-.56,2.82-.73,3-2.56Z" transform="translate(-91.93 -99.14)"/><path class="cls-12" d="M459.88,526.56c8.37-3.44,16.71-6.95,25.13-10.26,1.67-.66,3-2.4,5.09-1.85-1.83,4.15-6.24,4-9.54,5.73a115.68,115.68,0,0,1-17.14,6.73C462.17,527.32,461,527.81,459.88,526.56Z" transform="translate(-91.93 -99.14)"/><path class="cls-10" d="M212.14,488.45c-.33-1.1-.67-2.2-1-3.3l1.81-.1a1.88,1.88,0,0,0,1.66.93,1.56,1.56,0,0,0,1.79,1.66l1.67.93a1.55,1.55,0,0,0,1.78,1.66l.79.09a1.6,1.6,0,0,0,1.79,1.66l1.68.91c1.17,2.64,3.5,3.63,6.08,4.28l1.69.9c.34,2,1.9,2.3,3.51,2.53h0l.82,1.77-3.37-.09a1.84,1.84,0,0,0-1.81-.78l-.77-.11c-4.83-5.57-11.21-9-17.34-12.85Z" transform="translate(-91.93 -99.14)"/><path class="cls-5" d="M549.67,471.2c3.6-5,8.72-8.33,13.14-12.49-3.73,7.27-10,12.29-15.73,17.74l-1.75,0c.49-1.2,1.92-1.93,1.74-3.47l0,0a1.77,1.77,0,0,0,1.77-.9l0,0Z" transform="translate(-91.93 -99.14)"/><path class="cls-7" d="M511.64,499.72l-2.5,1a1.51,1.51,0,0,0-1.8,1.62l-2.54.07-.12-2.79v.12l.88-.66L522,490.53c.15,2-2.58,2.13-2.58,4L516,496.37a1.55,1.55,0,0,0-1.81,1.62h0C513,498,511.78,498.05,511.64,499.72Z" transform="translate(-91.93 -99.14)"/><path class="cls-14" d="M380.45,540.44l-2.54,0H364.82l-2.54,0v-1.65c0-.32,0-.64,0-1h18.13l0,1C380.45,539.34,380.45,539.89,380.45,540.44Z" transform="translate(-91.93 -99.14)"/><path class="cls-7" d="M244.87,505.8a42.19,42.19,0,0,1,15.61,7.7l-.09.1c-1.5-.09-2.82-1.24-4.41-.74l-.69-.1a2.63,2.63,0,0,0-.84-.13c-.71,0-1.42,0-1.86.7l-.27,0-.24,0-.92-.15a.34.34,0,0,0-.1-.41l.17,0c.61-.51.34-.8-.24-1-1-.86-1.91-1.91-3.43-1.77a2.62,2.62,0,0,0-2.68-1.63l.12-.12A2.27,2.27,0,0,0,244.87,505.8Z" transform="translate(-91.93 -99.14)"/><path class="cls-10" d="M519.41,494.55c0-1.89,2.73-2,2.58-4a113.92,113.92,0,0,1,13.84-9.16l.82,1.92-.85.89c-1.81,0-3.24.44-3.44,2.56l0,0c-4.17.73-6.48,4.43-10,6.28C521.39,493.56,520.71,494.64,519.41,494.55Z" transform="translate(-91.93 -99.14)"/><path class="cls-5" d="M510.77,241.77l1.76-.94c1.18-.08,2.46.3,3.47-.7l2.48,0,2,4.46c-.09.14-.17.29-.25.44a3.32,3.32,0,0,0-2.64.73.68.68,0,0,0-.74.23l-3.42.19C513.6,244.06,510.64,243.86,510.77,241.77Z" transform="translate(-91.93 -99.14)"/><path class="cls-4" d="M124,164c2.87-3.74,7.71-3.57,11.44-5.67,2.66-1.49,5.85-2,8.8-3-1.67,2.72-4.66,3.62-7.17,5.18-3.35-.47-5.77,1.81-8.59,2.89C127.05,164,125.74,165.81,124,164Z" transform="translate(-91.93 -99.14)"/><path class="cls-6" d="M212.92,488.54c6.13,3.81,12.51,7.28,17.34,12.85a6,6,0,0,1-4.34-.82c-.64-2.76-2.95-3.49-5.23-4.27l-.82,0a2.46,2.46,0,0,0-2.64-2.54h0a2.54,2.54,0,0,0-2.57-1.74l-.88-.85C213.49,490.27,213.2,489.41,212.92,488.54Z" transform="translate(-91.93 -99.14)"/><path class="cls-12" d="M146.43,149.27l-24.18,9.52c2.18-3.66,6.19-4.29,9.67-5.65C136.6,151.33,141.08,148.62,146.43,149.27Z" transform="translate(-91.93 -99.14)"/><path class="cls-6" d="M178.42,457.43l-.9-1.7a1.58,1.58,0,0,0-1.7-1.75l-.85-.87c0-1.24,0-2.48-1.73-2.59q-1.76-3-3.5-6v-1.73l.15-.13c1.85.5,2.2,2.41,3.35,3.56,1.72,1.73,2.19,4.67,5.08,5.25l.12.76c-.27,2.28,2.71,3,2.52,5.24Z" transform="translate(-91.93 -99.14)"/><path class="cls-12" d="M101.53,178.64a170,170,0,0,0-7.8,20.72c-.67-5.55,1.32-10.54,3.78-15.23C98.51,182.21,98.15,178.92,101.53,178.64Z" transform="translate(-91.93 -99.14)"/><path class="cls-14" d="M536.65,483.29l-.82-1.92c3.79-2.75,7-6.26,11.24-8.41.18,1.54-1.25,2.27-1.74,3.47l.77.9c-1.44,1.52-4,1.43-5,3.47C539.4,481.29,538.74,483.55,536.65,483.29Z" transform="translate(-91.93 -99.14)"/><path class="cls-12" d="M364.82,540.47h13.09c-.2.67-.3,1.85-.63,1.92a28.25,28.25,0,0,1-11.83,0C365.12,542.33,365,541.14,364.82,540.47Z" transform="translate(-91.93 -99.14)"/><path class="cls-12" d="M247.56,510c1.52-.14,2.42.91,3.42,1.77.09.34.17.67.25,1l-.17,0c-4.21,1.26-9.29-.92-12.24-5.23l4.37.78,1.81-.06-.12.12A2.22,2.22,0,0,0,247.56,510Z" transform="translate(-91.93 -99.14)"/><path class="cls-12" d="M146.4,356.44q0,9.53,0,19.05C143.92,373,143.94,358.9,146.4,356.44Z" transform="translate(-91.93 -99.14)"/><path class="cls-13" d="M161.1,155.62c-.1,1.21-1,1.71-2,2-5.11,1.38-9.61,4.1-14.32,6.34-.6.28-1.24.83-1.85,0C148.45,159.94,154.66,157.54,161.1,155.62Z" transform="translate(-91.93 -99.14)"/><path class="cls-12" d="M446.93,530.88a19.07,19.07,0,0,1-13,3.41c0-.54,0-1.08,0-1.63,4.71,1,8.37-3,12.95-2.69C446.92,530.27,446.92,530.58,446.93,530.88Z" transform="translate(-91.93 -99.14)"/><path class="cls-12" d="M176.6,146.67c-2.12-1.67-4.62-.39-6.89-.88.15-.72.45-1.52,1.23-1.54,4-.1,8.05-.48,13.33.44A24,24,0,0,1,176.6,146.67Z" transform="translate(-91.93 -99.14)"/><path class="cls-14" d="M243.19,508.31l-4.37-.78h0c-1.42-2.19-3.72-2.85-6-3.45a5.62,5.62,0,0,1,0-.82l.09-1,3.37.09,3.44,1.77c.15,1.68,1.37,1.69,2.61,1.68a5.71,5.71,0,0,1,.82.09Z" transform="translate(-91.93 -99.14)"/><path class="cls-6" d="M168,441.93l-.84-.88c0-1.25,0-2.49-1.71-2.61,0-.28,0-.55-.05-.83-.08-2.85-3.35-4.64-2.58-7.77a33.14,33.14,0,0,1,7,12.82l-.15.13Z" transform="translate(-91.93 -99.14)"/><path class="cls-12" d="M151.61,405.67c2.58,4.59,3.69,9.7,5.18,14.67-3.44-1.79-2.89-5.6-4-8.49C152.1,410,149.53,408.15,151.61,405.67Z" transform="translate(-91.93 -99.14)"/><path class="cls-12" d="M138.66,259.8a45.05,45.05,0,0,1,13,4.31A16.31,16.31,0,0,1,138.66,259.8Z" transform="translate(-91.93 -99.14)"/><path class="cls-14" d="M336.32,537.9l-1.67,0c0-.59,0-1.19,0-1.78l4.27-.75c.77,2.08,2,1.94,3.51.79l4.35.72v1c-1,1.13-2.28.62-3.46.75l-3.49-.79Z" transform="translate(-91.93 -99.14)"/><path class="cls-12" d="M155.93,315a42.34,42.34,0,0,1-4.32,13c-2-2.12.27-3.7.9-5.3C153.53,320.1,153.05,316.78,155.93,315Z" transform="translate(-91.93 -99.14)"/><path class="cls-12" d="M307.86,533.51c3.18.43,6.34,1.14,9.58.7l.87,0-.05,1C315.91,537.46,310.79,536.6,307.86,533.51Z" transform="translate(-91.93 -99.14)"/><path class="cls-9" d="M583.28,109.53c2-5.67,6.78-4,10.86-4.21L592.08,108c-2.56-1.48-4.91-2.14-6.17,1.55l-.83,0Z" transform="translate(-91.93 -99.14)"/><path class="cls-12" d="M162.84,429.84c-.77,3.13,2.5,4.92,2.58,7.77-3.82-2-4.55-5.73-5.17-9.5H162A1.86,1.86,0,0,1,162.84,429.84Z" transform="translate(-91.93 -99.14)"/><path class="cls-12" d="M343.31,538.63c1.18-.14,2.5.37,3.46-.76l2.54.15,0,2.32c-2.2,1.11-4.38,2-6.06-.8C343.29,539.23,343.3,538.93,343.31,538.63Z" transform="translate(-91.93 -99.14)"/><path class="cls-12" d="M159.39,146.68c-3.57,1.66-7.47,1.88-11.27,2.56C151.39,146.23,155.24,145.82,159.39,146.68Z" transform="translate(-91.93 -99.14)"/><path class="cls-12" d="M389.94,540.35c-1.65,2.89-3.85,1.93-6.06.87,0-.78,0-1.57,0-2.36l1.71-.12c1.25,1.28,2.86.52,4.29.75Z" transform="translate(-91.93 -99.14)"/><path class="cls-12" d="M358.85,541.22c-1.93.89-3.91,2.1-5.19-.86,0-.29,0-.58,0-.87,1.16-.15,2.47.38,3.42-.75l1.71.13Z" transform="translate(-91.93 -99.14)"/><path class="cls-12" d="M399.49,538.75c-.69,4-3,2.64-5.24,1.59l0-2.34,1.68-.12C396.93,539,398.32,538.41,399.49,538.75Z" transform="translate(-91.93 -99.14)"/><path class="cls-12" d="M153.31,264.15c2.89.85,6,.93,8.67,2.56C158.65,267.35,155.43,267.62,153.31,264.15Z" transform="translate(-91.93 -99.14)"/><path class="cls-12" d="M175.77,269.32c2.22-.17,4.4.09,5.7,2.09.88,1.37-.06,2.4-1.35,3.06C181.24,270.58,176.14,271.94,175.77,269.32Z" transform="translate(-91.93 -99.14)"/><path class="cls-12" d="M93.71,201.92v7.84A5.2,5.2,0,0,1,93.71,201.92Z" transform="translate(-91.93 -99.14)"/><path class="cls-10" d="M492.74,512.57a1.83,1.83,0,0,0-1-1.65l.18-2.4,3.34-.13c1,.58,0,1.27.12,1.9C495.11,511.75,493.86,512.09,492.74,512.57Z" transform="translate(-91.93 -99.14)"/><path class="cls-12" d="M408.06,538.61c-1.5,1.61-3.1,2.64-5.18.89,0-.57,0-1.14,0-1.71a5.58,5.58,0,0,1,.82-.11l4.35.08Z" transform="translate(-91.93 -99.14)"/><path class="cls-12" d="M148.14,391a18,18,0,0,1,1.71,6.94C147.36,396.09,146.82,393.77,148.14,391Z" transform="translate(-91.93 -99.14)"/><path class="cls-12" d="M232.78,504.08c2.32.6,4.62,1.26,6,3.45C236.18,507.47,233.49,507.5,232.78,504.08Z" transform="translate(-91.93 -99.14)"/><path class="cls-12" d="M193,473a17.18,17.18,0,0,1,5.2,5.16C195,478,193.24,476.28,193,473Z" transform="translate(-91.93 -99.14)"/><path class="cls-7" d="M585.91,109.55c1.26-3.69,3.61-3,6.17-1.55l-.77.76C589.42,108.38,587.72,109.32,585.91,109.55Z" transform="translate(-91.93 -99.14)"/><path class="cls-15" d="M600.61,361.64a18.15,18.15,0,0,1,0-12.06A54,54,0,0,1,600.61,361.64Z" transform="translate(-91.93 -99.14)"/><path class="cls-8" d="M451.3,255.59c-1.57,2.77-4.62,2.38-7.07,3.28,0-.55.09-1.09.13-1.64Z" transform="translate(-91.93 -99.14)"/><path class="cls-12" d="M220.69,496.3c2.28.78,4.59,1.51,5.23,4.27C223.59,499.86,221.28,499.13,220.69,496.3Z" transform="translate(-91.93 -99.14)"/><path class="cls-12" d="M93.74,212.31c.92,1.92,2.31,3.77,1,6C93.71,216.44,92.33,214.6,93.74,212.31Z" transform="translate(-91.93 -99.14)"/><path class="cls-12" d="M414.11,537.75c-1,2.66-2.59,2-4.32.86l0-1.63,4.25.66Z" transform="translate(-91.93 -99.14)"/><path class="cls-14" d="M399.49,538.75c-1.17-.34-2.56.27-3.53-.87,0-.35,0-.69,0-1l5.15-.15c0,.34,0,.67,0,1v1Z" transform="translate(-91.93 -99.14)"/><path class="cls-12" d="M419.29,536.89c-.62,2.42-1.94,2-3.46.85l0-1.64,3.43-.07Z" transform="translate(-91.93 -99.14)"/><path class="cls-12" d="M336.32,537.9l3.5-.07c0,.55,0,1.11,0,1.67C337.74,541,336.53,540.56,336.32,537.9Z" transform="translate(-91.93 -99.14)"/><path class="cls-12" d="M188.73,468.69A12.08,12.08,0,0,1,193,473C190.15,473,188.7,471.59,188.73,468.69Z" transform="translate(-91.93 -99.14)"/><path class="cls-12" d="M333,538.63c-1.52,1.15-2.84,1.5-3.47-.88,0-.28,0-.56,0-.85l3.44.1Z" transform="translate(-91.93 -99.14)"/><path class="cls-5" d="M358.85,541.22c0-.78,0-1.57,0-2.36l3.47-.07v1.65C361.34,541.61,360,541.08,358.85,541.22Z" transform="translate(-91.93 -99.14)"/><path class="cls-5" d="M383.92,538.87c0,.78,0,1.57,0,2.35-1.17-.14-2.49.39-3.43-.78v-1.65Z" transform="translate(-91.93 -99.14)"/><path class="cls-12" d="M181.83,460.92c1.63,1.05,3.24,2.12,3.47,4.3C182.78,464.89,181.77,463.34,181.83,460.92Z" transform="translate(-91.93 -99.14)"/><path class="cls-12" d="M200.84,480.76c2.18.23,3.26,1.83,4.3,3.47C202.72,484.29,201.18,483.28,200.84,480.76Z" transform="translate(-91.93 -99.14)"/><path class="cls-12" d="M157.67,422.92c2.1,1.12,2,3.32,2.58,5.19C157.41,427.36,157.69,425.07,157.67,422.92Z" transform="translate(-91.93 -99.14)"/><path class="cls-5" d="M394.28,538l0,2.34h-4.31c0-.28,0-.57,0-.86,1-.07,1.69-.47,1.76-1.57Z" transform="translate(-91.93 -99.14)"/><path class="cls-12" d="M146.41,378.91c1.47,1.22.71,2.87.84,4.35C144.67,382.25,145.24,380.64,146.41,378.91Z" transform="translate(-91.93 -99.14)"/><path class="cls-12" d="M456.38,526.46l1,.23c-.08,4-2.95.87-4.29,1.65l-.1-.09,1.73-1.66Z" transform="translate(-91.93 -99.14)"/><path class="cls-12" d="M111,243.41a3.61,3.61,0,0,1,3.5,3.4A3.55,3.55,0,0,1,111,243.41Z" transform="translate(-91.93 -99.14)"/><path class="cls-12" d="M147.24,350.38c-.12,1.49.64,3.14-.83,4.36C145.24,353,144.67,351.4,147.24,350.38Z" transform="translate(-91.93 -99.14)"/><path class="cls-14" d="M318.26,535.26c0-.34,0-.68.05-1l1.68-1.57,1.64.05,1,1.67-1.89.88Z" transform="translate(-91.93 -99.14)"/><path class="cls-12" d="M165.43,145.82c-1.22,1.47-2.87.71-4.35.84C162.08,144.07,163.7,144.66,165.43,145.82Z" transform="translate(-91.93 -99.14)"/><path class="cls-5" d="M446.93,530.88c0-.3,0-.61,0-.91a4.27,4.27,0,0,1,3.48-1.63c0,.82,0,1.64,0,2.46C449.21,530.8,448.05,530,446.93,530.88Z" transform="translate(-91.93 -99.14)"/><path class="cls-12" d="M450.35,530.8c0-.82,0-1.64,0-2.46l2.57-.09.1.09C453.09,530.19,452.24,531.06,450.35,530.8Z" transform="translate(-91.93 -99.14)"/><path class="cls-12" d="M432.24,534.3c-.35,1.84-1.18,2.24-2.59.85v-1.61l2.59-.1Z" transform="translate(-91.93 -99.14)"/><path class="cls-12" d="M427.93,535.16c-.36,1.84-1.18,2.25-2.6.86v-1.63l2.59-.09C427.92,534.59,427.92,534.88,427.93,535.16Z" transform="translate(-91.93 -99.14)"/><path class="cls-12" d="M326.9,537.74c-1.36,1.33-2.23,1-2.61-.8,0-.3,0-.61,0-.92l2.59.06Z" transform="translate(-91.93 -99.14)"/><path class="cls-12" d="M151.57,329.67c-.28,1.56-.5,3.14-1.69,4.35C149,332,149.44,330.52,151.57,329.67Z" transform="translate(-91.93 -99.14)"/><path class="cls-12" d="M423.61,536c-.36,1.84-1.18,2.24-2.6.85v-1.63l2.6-.09Q423.6,535.6,423.61,536Z" transform="translate(-91.93 -99.14)"/><path class="cls-12" d="M212.92,488.54c.28.87.57,1.73.86,2.59-1.86.08-3.32-.36-3.45-2.59l1.81-.09Z" transform="translate(-91.93 -99.14)"/><path class="cls-5" d="M353.68,539.49c0,.29,0,.58,0,.87l-4.31,0c0-.77,0-1.54,0-2.32l.86-.19A5.45,5.45,0,0,0,353.68,539.49Z" transform="translate(-91.93 -99.14)"/><path class="cls-12" d="M121.39,251.16c1.79.29,3.42.83,4.31,2.6C123.82,253.62,121.88,253.6,121.39,251.16Z" transform="translate(-91.93 -99.14)"/><path class="cls-12" d="M149.88,399.63c1.19,1.2,1.41,2.79,1.69,4.35C149.43,403.14,149,401.62,149.88,399.63Z" transform="translate(-91.93 -99.14)"/><path class="cls-12" d="M206.89,485.94c1.74.08,2.7,1.19,3.44,2.6C208.47,488.61,207,488.18,206.89,485.94Z" transform="translate(-91.93 -99.14)"/><path class="cls-12" d="M147.27,385.82c1.3.91.79,2.26.85,3.48C145.8,388.63,146.09,387.33,147.27,385.82Z" transform="translate(-91.93 -99.14)"/><path class="cls-12" d="M148.12,344.35c-.06,1.22.45,2.57-.85,3.48C146.09,346.32,145.8,345,148.12,344.35Z" transform="translate(-91.93 -99.14)"/><path class="cls-5" d="M324.31,536c0,.31,0,.62,0,.92l-1.7,0a1.75,1.75,0,0,0-1.77-.86c0-.25-.05-.51-.07-.77l1.89-.88,1.7-.14-.06.08Z" transform="translate(-91.93 -99.14)"/><path class="cls-12" d="M174.93,281.37c-.06,1.75-1.18,2.71-2.6,3.44C172.26,283,172.69,281.48,174.93,281.37Z" transform="translate(-91.93 -99.14)"/><path class="cls-12" d="M96.39,224.37c2,.31,2.28,1.9,2.55,3.49C96.89,227.57,96.63,226,96.39,224.37Z" transform="translate(-91.93 -99.14)"/><path class="cls-12" d="M104.11,235.63c1.42.74,2.55,1.69,2.59,3.46C104.5,238.94,104,237.49,104.11,235.63Z" transform="translate(-91.93 -99.14)"/><path class="cls-12" d="M178.42,457.43l2.54,0c0,.25.07.51.1.76l-.09,1.82A2.37,2.37,0,0,1,178.42,457.43Z" transform="translate(-91.93 -99.14)"/><path class="cls-5" d="M326.9,537.74v-1.66c0-.29,0-.57.05-.85l1.72-.15-.07.11a1.8,1.8,0,0,0,.9,1.71c0,.29,0,.57,0,.85Z" transform="translate(-91.93 -99.14)"/><path class="cls-12" d="M105.85,172.6a2.46,2.46,0,0,1-2.56,2.62A2.39,2.39,0,0,1,105.85,172.6Z" transform="translate(-91.93 -99.14)"/><path class="cls-12" d="M177.52,277.91a2.46,2.46,0,0,1-2.55,2.63A2.38,2.38,0,0,1,177.52,277.91Z" transform="translate(-91.93 -99.14)"/><path class="cls-12" d="M217.23,493.72a2.46,2.46,0,0,1,2.64,2.54A2.37,2.37,0,0,1,217.23,493.72Z" transform="translate(-91.93 -99.14)"/><path class="cls-5" d="M333,538.63c0-.54,0-1.09,0-1.63,0-.3,0-.59.07-.89l1.7-.15-.08.11c0,.59,0,1.19,0,1.78A1.81,1.81,0,0,1,333,538.63Z" transform="translate(-91.93 -99.14)"/><path class="cls-5" d="M339.86,539.5c0-.56,0-1.12,0-1.67l3.49.79c0,.31,0,.61,0,.92Z" transform="translate(-91.93 -99.14)"/><path class="cls-12" d="M171.45,268.46c1,0,2-.21,2.62.84C172.66,270.69,171.84,270.25,171.45,268.46Z" transform="translate(-91.93 -99.14)"/><path class="cls-12" d="M167.13,267.59c1,0,2-.2,2.62.85C168.36,269.77,167.5,269.43,167.13,267.59Z" transform="translate(-91.93 -99.14)"/><path class="cls-5" d="M432.24,534.3v-.86c0-.56,0-1.11.05-1.67l-.08-.11,1.71.11.05.89c0,.55,0,1.09,0,1.63Z" transform="translate(-91.93 -99.14)"/><path class="cls-5" d="M421,535.25v1.63h-1.72V536l0-1.56,1.64-.11Z" transform="translate(-91.93 -99.14)"/><path class="cls-12" d="M149.85,335.72c0,1,.21,2-.85,2.62C147.62,336.93,148.06,336.1,149.85,335.72Z" transform="translate(-91.93 -99.14)"/><path class="cls-12" d="M149,340c0,1,.21,2-.83,2.62C146.81,341.27,147.15,340.41,149,340Z" transform="translate(-91.93 -99.14)"/><path class="cls-5" d="M423.61,536q0-.43,0-.87l0-1.54,1.64-.12.05.89V536Z" transform="translate(-91.93 -99.14)"/><path class="cls-5" d="M427.93,535.16c0-.28,0-.57,0-.86,0-.56,0-1.11.05-1.67l-.08-.11,1.7.13.06.89v1.61Z" transform="translate(-91.93 -99.14)"/><path class="cls-12" d="M168,441.93l1.72.86v1.73C168,444.43,168,443.19,168,441.93Z" transform="translate(-91.93 -99.14)"/><path class="cls-12" d="M99.8,229.58a2.52,2.52,0,0,1,1.72,2.59C99.78,232.08,99.78,230.84,99.8,229.58Z" transform="translate(-91.93 -99.14)"/><path class="cls-12" d="M173.24,450.52c1.7.11,1.72,1.35,1.73,2.59A2.42,2.42,0,0,1,173.24,450.52Z" transform="translate(-91.93 -99.14)"/><path class="cls-12" d="M165.47,438.44c1.71.12,1.72,1.36,1.71,2.61A2.48,2.48,0,0,1,165.47,438.44Z" transform="translate(-91.93 -99.14)"/><path class="cls-15" d="M212.92,251.18a2.89,2.89,0,0,1,4.32,0Z" transform="translate(-91.93 -99.14)"/><path class="cls-12" d="M118.8,249.43a2.55,2.55,0,0,1,2.59,1.73C120.13,251.18,118.88,251.18,118.8,249.43Z" transform="translate(-91.93 -99.14)"/><path class="cls-12" d="M117.08,162.24A2.58,2.58,0,0,1,114.5,164C114.56,162.21,115.81,162.22,117.08,162.24Z" transform="translate(-91.93 -99.14)"/><path class="cls-12" d="M116.22,247.7a2.57,2.57,0,0,1,2.58,1.73C117.54,249.45,116.29,249.46,116.22,247.7Z" transform="translate(-91.93 -99.14)"/><path class="cls-12" d="M214.66,492a2.54,2.54,0,0,1,2.57,1.74C216,493.74,214.72,493.74,214.66,492Z" transform="translate(-91.93 -99.14)"/><path class="cls-12" d="M135.18,258.1a1.66,1.66,0,0,1,1.76.85C135.59,260.24,135.38,259.17,135.18,258.1Z" transform="translate(-91.93 -99.14)"/><path class="cls-12" d="M163.67,266.74a1.66,1.66,0,0,1,1.76.82C164.1,268.88,163.88,267.82,163.67,266.74Z" transform="translate(-91.93 -99.14)"/><path class="cls-12" d="M127.43,254.62a1.68,1.68,0,0,1,1.74.87C127.79,256.78,127.6,255.72,127.43,254.62Z" transform="translate(-91.93 -99.14)"/><path class="cls-12" d="M101.56,233a1.59,1.59,0,0,1,1.7,1.76A1.55,1.55,0,0,1,101.56,233Z" transform="translate(-91.93 -99.14)"/><path class="cls-12" d="M121.43,158.83a1.59,1.59,0,0,1-1.77,1.68A1.53,1.53,0,0,1,121.43,158.83Z" transform="translate(-91.93 -99.14)"/><path class="cls-12" d="M180.12,274.47a1.61,1.61,0,0,1-1.71,1.75A1.53,1.53,0,0,1,180.12,274.47Z" transform="translate(-91.93 -99.14)"/><path class="cls-12" d="M320.82,536a1.75,1.75,0,0,1,1.77.86C321.23,538.19,321,537.12,320.82,536Z" transform="translate(-91.93 -99.14)"/><path class="cls-5" d="M415.86,536.1l0,1.64h-1.72l0-.1A1.49,1.49,0,0,1,415.86,536.1Z" transform="translate(-91.93 -99.14)"/><path class="cls-6" d="M232.84,502.28l-.09,1A1.61,1.61,0,0,1,231,501.5,1.84,1.84,0,0,1,232.84,502.28Z" transform="translate(-91.93 -99.14)"/><path class="cls-5" d="M409.82,537l0,1.63h-1.73v-.85A1.6,1.6,0,0,1,409.82,537Z" transform="translate(-91.93 -99.14)"/><path class="cls-12" d="M175.82,454a1.58,1.58,0,0,1,1.7,1.75A1.54,1.54,0,0,1,175.82,454Z" transform="translate(-91.93 -99.14)"/><path class="cls-5" d="M401.17,538.71v-1l1.73.09c0,.57,0,1.14,0,1.71A1.85,1.85,0,0,1,401.17,538.71Z" transform="translate(-91.93 -99.14)"/><path class="cls-13" d="M509.64,247.54a11.11,11.11,0,0,1,1.11.37s0,.49-.08.51a1.32,1.32,0,0,1-1.6-.78A.38.38,0,0,1,509.64,247.54Z" transform="translate(-91.93 -99.14)"/><path class="cls-14" d="M548.81,472.09a1.77,1.77,0,0,1-1.77.9A1.94,1.94,0,0,1,548.81,472.09Z" transform="translate(-91.93 -99.14)"/><path class="cls-15" d="M214.57,451.56c1.5-.77.65.58.87,1Z" transform="translate(-91.93 -99.14)"/><path class="cls-15" d="M227.59,252.88c.56,1.51-.75.5-1.09.8Z" transform="translate(-91.93 -99.14)"/><path class="cls-12" d="M546.1,477.33l-.77-.9,1.75,0Z" transform="translate(-91.93 -99.14)"/><path class="cls-15" d="M219.71,260.47c-.25.35.79,1.59-.74,1.06Z" transform="translate(-91.93 -99.14)"/><path class="cls-15" d="M223.1,460.11l1.25.19L224,461Z" transform="translate(-91.93 -99.14)"/><path class="cls-5" d="M251.16,513.17l.91.15c-.07.33-.15.66-.22,1l-.09.15Z" transform="translate(-91.93 -99.14)"/><path class="cls-14" d="M549.67,471.2l-.9.93Z" transform="translate(-91.93 -99.14)"/><path class="cls-15" d="M225.79,254.19c-.35.4-.7.79-1.06,1.18Z" transform="translate(-91.93 -99.14)"/><path class="cls-15" d="M224.9,255.19l-1.13,1.06Z" transform="translate(-91.93 -99.14)"/><path class="cls-15" d="M217,454.13l1,1Z" transform="translate(-91.93 -99.14)"/><path class="cls-4" d="M505.56,499.07l-.88.66C504.77,499.24,505,499,505.56,499.07Z" transform="translate(-91.93 -99.14)"/><path class="cls-15" d="M217.85,455l1,1.07Z" transform="translate(-91.93 -99.14)"/><path class="cls-15" d="M220.43,457.57l1,1.05Z" transform="translate(-91.93 -99.14)"/><path class="cls-15" d="M220.54,259.51c-.3.36-.6.71-.91,1.06C219.94,260.22,220.24,259.87,220.54,259.51Z" transform="translate(-91.93 -99.14)"/><path class="cls-15" d="M219.49,456.69l1.11,1Z" transform="translate(-91.93 -99.14)"/><path class="cls-15" d="M221.41,258.65a1.08,1.08,0,0,1-1,1C220.75,259.32,221.08,259,221.41,258.65Z" transform="translate(-91.93 -99.14)"/><path class="cls-15" d="M222.28,257.78a1.09,1.09,0,0,1-1,1Z" transform="translate(-91.93 -99.14)"/><path class="cls-15" d="M223.2,256.9,222.14,258Z" transform="translate(-91.93 -99.14)"/><path class="cls-15" d="M216.08,453.23l1.06,1Z" transform="translate(-91.93 -99.14)"/><path class="cls-16" d="M571.16,284c.43,3.73-.25,7.55.91,11.23,0,.57.11,1.14.16,1.71q.16,5.22.31,10.43a1.29,1.29,0,0,0,.1,1.79.94.94,0,0,0,.29.73,71.34,71.34,0,0,0,3,26.05,30.86,30.86,0,0,1,.62,5,3.36,3.36,0,0,0,.75,3.42c0,.3.07.6.11.89-.54,4.07.57,8,.77,12.06,1.74,24-6.57,44.85-19.7,64.29-18.34,27.15-44.34,44.41-73.68,57.48a223.85,223.85,0,0,1-49.14,15.11,226.7,226.7,0,0,1-31.95,3.93c-8.78.76-17.59.58-26.4.59a.81.81,0,0,0-1.19-.3l-3.44-.05c-11.65-1.16-23.32-2.25-34.8-4.61-32.34-6.65-62.26-18.84-88.75-38.86-7-5.27-13.14-11.46-19.55-17.37l-1.08-1.36c-9.2-11-17.47-22.57-23.1-35.89a128.84,128.84,0,0,1-8.27-30.89,126.37,126.37,0,0,1,.12-20.68c3-26,14.28-48.08,31.84-67.13,3.87-4.2,8.25-7.92,12.4-11.86l.75-.52c7.1-6,14.72-11.31,21.34-17.87,3.67-3.64,4.68-8.28,2.24-12.93-4.85-9.23-9.08-11.08-19.16-10.44-21.42,1.37-42.71,1-63.63-4.37-10.28-2.64-20.34-5.86-29.28-12-13.59-9.31-8.49-23.44,1.66-29.43,5.75-3.4,12.16-4.94,18.31-7.22a7.62,7.62,0,0,0,3.79-.24c7.42-1.35,14.86-2.5,22.43-1.34a109.23,109.23,0,0,1,48,17.39A17.43,17.43,0,0,0,263,193.32c9-2.4,10.51-12,6.25-18.19-3.56-5.21-7.44-10.2-11.09-15.35-2-2.8-4.56-5.9-2.5-9.37s5.93-3.64,9.64-3.45c14.53.75,25.93,7.59,35,18.49,3.64,4.36,7.51,8.47,10.36,13.62,3,5.44,9.27,7,15.28,7.42,2.92.18,4.76-2.3,6.26-4.69,3.57-5.68,6.28-6.05,11.41-1.45a30.58,30.58,0,0,1,9.82,17.28c1.52,8,4.77,15.58,5.64,23.78,1,9.22,7.58,14.22,15.36,17.57,11.63,5,22.38,11.65,33.49,17.63,3.15,1.69,2.88,3.12.12,5.11-20,14.42-39.38,29.68-58.53,45.22-6.7,5.44-8.46,13.86-4.81,21.68,3.07,6.57,11.94,8.62,18.58,4.13,19.56-13.22,40.59-23.65,62.19-33.05a545,545,0,0,1,60.84-22.47c1.51-.46,3.06-.75,4.58-1.12a4.91,4.91,0,0,1-1.23,3.52c-5.51,7.12-10.94,14.3-16.36,21.48-8,10.6-16.12,21.14-24,31.85-5.58,7.59-4.39,17.81,4,24.35,5.88,4.61,13.95,5.2,20,.71,14.78-11,29.37-22.25,43.94-33.54,13.66-10.59,27.08-21.49,40.85-31.93C562.24,289.43,565.77,285.23,571.16,284Z" transform="translate(-91.93 -99.14)"/><path class="cls-12" d="M571.16,284c-5.39,1.26-8.92,5.46-13,8.58-13.77,10.44-27.19,21.34-40.85,31.93C502.7,335.77,488.11,347,473.33,358c-6,4.49-14.09,3.9-20-.71-8.36-6.54-9.55-16.76-4-24.35,7.86-10.71,16-21.25,24-31.85,5.42-7.18,10.85-14.36,16.36-21.48a4.91,4.91,0,0,0,1.23-3.52,8.41,8.41,0,0,1,5.17-1.62c-4,7.28-9.59,13.45-14.52,20.07-9.84,13.18-20,26.12-29.69,39.41-5,6.81-4.17,14.2,1.21,19.63,5.62,5.68,13,6.51,19.87,1.44,13.34-9.86,26.45-20,39.58-30.16,12.34-9.53,24.6-19.16,36.89-28.75,6-4.66,12-9.28,17.91-14,1.16-.92,2.2-1.85,3.8-1.62C571.17,281.66,571.17,282.82,571.16,284Z" transform="translate(-91.93 -99.14)"/><path class="cls-15" d="M200,173.38c-7.57-1.16-15,0-22.43,1.34a7.62,7.62,0,0,1-3.79.24c1.17-2.4,3.58-1.44,5.38-1.79a76.39,76.39,0,0,1,18.3-1.44C198.63,171.79,199.75,171.84,200,173.38Z" transform="translate(-91.93 -99.14)"/><path class="cls-15" d="M372.7,498.37l3.44.05,1.19.3c8.81,0,17.62.17,26.4-.59-.17,1.56-1.3,1.64-2.51,1.64H375C373.91,499.77,373,499.64,372.7,498.37Z" transform="translate(-91.93 -99.14)"/><path class="cls-15" d="M197.27,348.71a126.37,126.37,0,0,0-.12,20.68c-.44-.32-1.25-.61-1.27-.95a139.5,139.5,0,0,1,.06-18.85C196,349.26,196.8,349,197.27,348.71Z" transform="translate(-91.93 -99.14)"/><path class="cls-13" d="M572.93,309.86a.94.94,0,0,1-.29-.72,1.5,1.5,0,0,0-.1-1.8q-.15-5.2-.31-10.43c1.54.22,1.74,1.36,1.6,2.55C573.43,302.92,574.87,306.54,572.93,309.86Z" transform="translate(-91.93 -99.14)"/><path class="cls-15" d="M578.2,357.32c-.2-4-1.31-8-.77-12.06,2.85,1,1.5,3.37,1.51,5.08C578.94,352.65,579.89,355.16,578.2,357.32Z" transform="translate(-91.93 -99.14)"/><path class="cls-15" d="M577.32,344.37a3.36,3.36,0,0,1-.75-3.42C578.89,341.63,578.48,342.92,577.32,344.37Z" transform="translate(-91.93 -99.14)"/><path class="cls-16" d="M430.07,273.31c-.42.18-.86.65-1.23,0,0-.06.47-.42.73-.64A3.21,3.21,0,0,1,430.07,273.31Z" transform="translate(-91.93 -99.14)"/><path class="cls-15" d="M228.52,436.17l1.08,1.36Z" transform="translate(-91.93 -99.14)"/><path class="cls-15" d="M242.26,269.2l-.75.52C241.63,269.37,241.41,268.53,242.26,269.2Z" transform="translate(-91.93 -99.14)"/><path class="cls-4" d="M133.53,253.16c-5.27-3.57-10.77-6.86-15.77-10.77-9.8-7.67-16.44-17.35-18.69-29.95-2.49-14,2.15-25.55,10.47-36.33a44.37,44.37,0,0,1,9.34-8.67c1.52,2.61-1.22,3.22-2.29,4.23-8.09,7.57-13.74,16.45-15.42,27.55a40.07,40.07,0,0,0,8,31.55c12.86,16.9,31.74,22.79,50.89,28,8.52,2.33,17.34,3.56,26,5.27,4.79.94,6.89,4.61,4.21,8.83-3.44,5.41-7.87,10.17-11.48,15.49a147.85,147.85,0,0,0-18.89,37.83,151.63,151.63,0,0,0-7.14,39.06c-.42,8.16.83,16.53,2.43,24.68a141.19,141.19,0,0,0,24,56c2.75,3.82,5.2,7.92,8.76,11.12a4.37,4.37,0,0,1,1.69,3.77l-.06.06c-1.59-.62-2.28-2.69-4.28-2.62l-1.78-2.54a1.53,1.53,0,0,0-1.68-1.77l-.84-.89c.05-1.83-.41-3.28-2.59-3.44,0-.26-.07-.53-.09-.79a1.52,1.52,0,0,0-1.66-1.79l-.91-1.68c-.22-1.62-.51-3.2-2.55-3.5,0-.26-.06-.52-.08-.79a1.51,1.51,0,0,0-1.63-1.81c0-.26-.05-.53-.07-.79-.19-1.64-.5-3.19-2.51-3.53l-1.83-4.23a9.86,9.86,0,0,0-.53-2,150.77,150.77,0,0,1-13.83-42.16c-.31-1.94,1.27-4.84-1.9-6l0-1.67c.85-2.73,2.14-5.5-.83-7.82v-8.53c3-2.32,1.69-5.09.84-7.82l0-1.68c1.81-.3,1.51-1.72,1.66-3,.89-7.23,2.89-14.21,4.61-21.27,1.9-7.85,6.05-14.8,8.21-22.5,3.78-6.12,6.59-12.74,10.93-18.63,3.51-4.76,7.5-9.16,10.74-14.11,2.5-.43,2.56-2.39,2.55-4.26s-1.21-2.78-2.79-3.42a15,15,0,0,0-7.6-.77l-2.48-.13c-.4-.82-1.09-.86-1.85-.72l-3.33-.1a1.5,1.5,0,0,0-1.84-.78l-1.62-.13c-.39-.81-1.08-.86-1.85-.71l-2.46-.11a1.5,1.5,0,0,0-1.85-.77l-1.61-.13c-.39-.82-1.08-.87-1.85-.72l-1.6-.14c-.39-.81-1.07-.87-1.84-.75l-4.21-.94a1.51,1.51,0,0,0-1.82-.8l-6.81-1.88c-.62-1-1.65-.8-2.59-.82-.37-.72-1-.8-1.74-.83a1.36,1.36,0,0,0-1.91-.65C135.14,253.6,134.49,252.94,133.53,253.16Z" transform="translate(-91.93 -99.14)"/><path class="cls-7" d="M516,240.13c-1,1-2.29.62-3.47.7.49-3.36-1.45-5-4.27-6-3.63-1.26-7.28-2.47-10.88-3.82a6.17,6.17,0,0,1-3.83-3.21c6.33,2.31,12.72,4.5,19,7A5,5,0,0,1,516,240.13Z" transform="translate(-91.93 -99.14)"/><path class="cls-10" d="M520.51,244.57l-2-4.46,1-.34,4.24-.64c.34,1.5.69,3,1,4.51A8.41,8.41,0,0,1,520.51,244.57Z" transform="translate(-91.93 -99.14)"/><path class="cls-7" d="M492.69,227c-4.13-4.21-3.75-10.51.83-13.82C491.36,217.65,491.42,222.28,492.69,227Z" transform="translate(-91.93 -99.14)"/><path class="cls-7" d="M583.28,109.53l1.8.07a9.18,9.18,0,0,1-6.05,6l-.06-1.79A5.55,5.55,0,0,1,583.28,109.53Z" transform="translate(-91.93 -99.14)"/><path class="cls-7" d="M518.53,182l.92-1.67c2.88-.22,3.68-3.36,6-4.31-.57,4.13-3.5,6.16-6.91,7.78Z" transform="translate(-91.93 -99.14)"/><path class="cls-9" d="M566.07,127.71a12,12,0,0,1,6.85-7l.06,1.79c-1.35.78-2.47,1.73-2.61,3.43Z" transform="translate(-91.93 -99.14)"/><path class="cls-9" d="M526.35,172.6c.93-3.25,3.68-4.91,6-6.9,0,.87,0,1.73,0,2.6l-1.76,2.56Z" transform="translate(-91.93 -99.14)"/><path class="cls-9" d="M525.5,176.06c-2.37.95-3.17,4.09-6,4.31a11.88,11.88,0,0,1,6.85-7l.06,1.79Z" transform="translate(-91.93 -99.14)"/><path class="cls-9" d="M553.12,142.39c.93-3.25,3.68-4.91,6-6.9v2.59l-1.71,1.73C555.83,140.37,555.14,142.5,553.12,142.39Z" transform="translate(-91.93 -99.14)"/><path class="cls-9" d="M579,113.85l.06,1.79a2.78,2.78,0,0,0-1.76,2.57L573,120A9.44,9.44,0,0,1,579,113.85Z" transform="translate(-91.93 -99.14)"/><path class="cls-9" d="M540.16,157.06c.94-3.25,3.68-4.91,6.06-6.9v2.6c-.57.57-1.14,1.15-1.72,1.72C542.88,155,542.19,157.17,540.16,157.06Z" transform="translate(-91.93 -99.14)"/><path class="cls-9" d="M533.26,164.83c.93-3.25,3.68-4.91,6-6.9v2.59l-1.71,1.73C536,162.81,535.28,164.94,533.26,164.83Z" transform="translate(-91.93 -99.14)"/><path class="cls-7" d="M533.26,164.83c2,.11,2.71-2,4.34-2.58-.15,3.38-2.26,5.06-5.19,6.05,0-.87,0-1.73,0-2.6Z" transform="translate(-91.93 -99.14)"/><path class="cls-7" d="M539.31,160.52v-2.59l.85-.87c2,.11,2.72-2,4.34-2.58C544.36,157.86,542.25,159.55,539.31,160.52Z" transform="translate(-91.93 -99.14)"/><path class="cls-7" d="M566.07,127.71l4.3-1.74a6.78,6.78,0,0,1-5.15,5.21c0-.86,0-1.73,0-2.6Z" transform="translate(-91.93 -99.14)"/><path class="cls-9" d="M565.21,128.58c0,.87,0,1.74,0,2.6l-.9,1.7-4.3,1.74C560.68,131.69,563.1,130.27,565.21,128.58Z" transform="translate(-91.93 -99.14)"/><path class="cls-7" d="M560,134.62l4.3-1.74a6.73,6.73,0,0,1-5.15,5.2v-2.59Z" transform="translate(-91.93 -99.14)"/><path class="cls-7" d="M553.12,142.39c2,.11,2.71-2,4.34-2.58-.15,3.37-2.26,5.06-5.19,6.05l-.06-1.8Z" transform="translate(-91.93 -99.14)"/><path class="cls-7" d="M512.55,190.74c0-.86,0-1.73,0-2.6l.86-.87,4.29-1.74A6.76,6.76,0,0,1,512.55,190.74Z" transform="translate(-91.93 -99.14)"/><path class="cls-7" d="M546.22,152.76v-2.6l.85-.87,4.29-1.74A6.73,6.73,0,0,1,546.22,152.76Z" transform="translate(-91.93 -99.14)"/><path class="cls-9" d="M551.36,147.55l-4.29,1.74a7.14,7.14,0,0,1,5.14-5.23l.06,1.8Z" transform="translate(-91.93 -99.14)"/><path class="cls-9" d="M517.69,185.53l-4.29,1.74a7.11,7.11,0,0,1,5.13-5.23l.06,1.8Z" transform="translate(-91.93 -99.14)"/><path class="cls-7" d="M499.59,205.41c.64-2.95,3.07-4.36,5.19-6C504.64,202.75,502.53,204.43,499.59,205.41Z" transform="translate(-91.93 -99.14)"/><path class="cls-7" d="M506.5,197.64a6.89,6.89,0,0,1,5.14-5.2A6.7,6.7,0,0,1,506.5,197.64Z" transform="translate(-91.93 -99.14)"/><path class="cls-7" d="M573,120l4.29-1.74a5,5,0,0,1-4.29,4.33l-.06-1.79Z" transform="translate(-91.93 -99.14)"/><path class="cls-7" d="M526.36,175.2l-.06-1.79c0-.27,0-.54.05-.81l4.3-1.74A5,5,0,0,1,526.36,175.2Z" transform="translate(-91.93 -99.14)"/><path class="cls-7" d="M494.41,211.45a3.6,3.6,0,0,1,3.43-3.47A3.55,3.55,0,0,1,494.41,211.45Z" transform="translate(-91.93 -99.14)"/><path class="cls-8" d="M462.53,252.15c-1.93,2.83-5,2.77-7.93,3.22C456.6,252.73,459.82,253.07,462.53,252.15Z" transform="translate(-91.93 -99.14)"/><path class="cls-8" d="M473.77,248.72c-1.65,2.69-4.6,2.43-7.13,3.14C468.3,249.19,471.25,249.45,473.77,248.72Z" transform="translate(-91.93 -99.14)"/><path class="cls-8" d="M486.64,245.88c-1.51,1.37-3.48,1.33-5.32,1.67C482.6,245.41,484.3,244.63,486.64,245.88Z" transform="translate(-91.93 -99.14)"/><path class="cls-8" d="M479.73,247.65c-1.31.88-2.52,2.2-4.31,1C476.72,247.71,477.94,246.43,479.73,247.65Z" transform="translate(-91.93 -99.14)"/><path class="cls-10" d="M160.25,261.53l1.61.12c.31,1,.59,2,1.85.78l2.46.1c.32,1,.63,2.05,1.85.72l1.62.13c.3,1,.59,2,1.84.78l3.33.1c.32,1,.62,2.05,1.85.72l2.48.13c.25,1.19,1.07,1.54,2.19,1.58,4.46.16,6.5,2.34,5.65,6.87-3.24,4.95-7.23,9.35-10.74,14.11-4.34,5.89-7.15,12.51-10.93,18.63-1.57.23-1.93,1.59-2.47,2.73a126.34,126.34,0,0,0-8.67,24.67c-1.56,6.36-3.48,12.69-3.34,19.36l0,1.68c-1.75,2.45-.64,5.2-.84,7.82q0,4.26,0,8.53c.19,2.61-.92,5.37.83,7.82l0,1.67a12.94,12.94,0,0,0-.06,2.15,145.25,145.25,0,0,0,14.39,46.54,2.37,2.37,0,0,0,1.93,1.49l1.83,4.23c.22,1.62.53,3.16,2.51,3.53,0,.26,0,.53.07.79a1.59,1.59,0,0,0,1.63,1.81c0,.27.05.53.08.79.25,1.6.55,3.17,2.55,3.5.3.56.6,1.12.91,1.68a1.59,1.59,0,0,0,1.66,1.79c0,.26,0,.53.09.79,0,.6-.07,1.2-.1,1.8-2.89-.58-3.36-3.52-5.08-5.25-1.15-1.15-1.5-3.06-3.35-3.56a33.14,33.14,0,0,0-7-12.82,1.86,1.86,0,0,0-.86-1.73c.1-3.2-1.89-5.7-3-8.41a134.2,134.2,0,0,1-10.64-62.08,137,137,0,0,1,12.09-47.14A156.76,156.76,0,0,1,183,274.62c2.52-3,1.76-5.56-2.27-6.36-11.06-2.2-22.18-4.21-32.92-7.72-2.31-.76-5.24-.49-6.62-3.23l1-1,6.81,1.88c.28,1,.55,2.05,1.82.8l4.21.94c.31,1,.59,2.06,1.84.75l1.6.13C158.72,261.8,159,262.85,160.25,261.53Z" transform="translate(-91.93 -99.14)"/><path class="cls-10" d="M137.79,254.65c.7,0,1.37.11,1.74.83s.56,1.17.85,1.76c-1.38-.14-3.1.45-3.54-1.67Z" transform="translate(-91.93 -99.14)"/><path class="cls-9" d="M140.38,257.24c-.29-.59-.57-1.18-.85-1.76.94,0,2-.22,2.59.82l-1,1C140.9,257.28,140.64,257.25,140.38,257.24Z" transform="translate(-91.93 -99.14)"/><path class="cls-9" d="M137.79,254.65l-.95.92-1-1.58A1.37,1.37,0,0,1,137.79,254.65Z" transform="translate(-91.93 -99.14)"/><path class="cls-7" d="M308.76,530.79l-2.47-.09c-.81-2.14-2.76-2-4.53-2.27l-5-.29a1.52,1.52,0,0,0-1.9-1.49l-4.15-.23a1.51,1.51,0,0,0-1.89-1.49l-3.32-.2c-1-2.46-3.26-2.29-5.34-2.5-1.43-1.54-3.28-1.14-5.06-1.07a1.45,1.45,0,0,0-1.81-1.45c-4.24-.17-7.27-3.45-11.21-4.37l-1.7-1.74.09-.1c2.27-.26,4.15.92,6.12,1.72a268.16,268.16,0,0,0,49.6,14.72c1.09.22,1.95.42,2.12,1.66l-1,.26-2.51-.09c-.52-.92-1.09-1-1.72-.11l-2.48-.08C310.31,530.57,310,529.52,308.76,530.79Z" transform="translate(-91.93 -99.14)"/><path class="cls-7" d="M465,522.12l-3.37.92c-1.32-1.28-1.55-.22-1.79.83l-3.42,0a2.23,2.23,0,0,1,1.81-2.1q10.37-3.64,20.77-7.24c-.07.79-.14,1.58-.2,2.37l-2.43.21a1.53,1.53,0,0,0-1.86,1.55c-1.73.11-3.52,0-5,1.07C467.71,520.08,465.7,519.9,465,522.12Z" transform="translate(-91.93 -99.14)"/><path class="cls-7" d="M433.9,529.86c1.52-3.32,4.93-2.32,7.46-3,4.39-1.14,8.5-3.78,13.33-3-.57,1.18-2.7.7-2.67,2.51l-1.65.09c-1.56.28-3.68-.92-4.4,1.64l-1.64.08c-1.79-1.3-3,.07-4.31.93l-1.65.1a1.44,1.44,0,0,0-1.81.77l-1.66.06Z" transform="translate(-91.93 -99.14)"/><path class="cls-7" d="M380.43,537.82H362.3v-1a42.31,42.31,0,0,1,18.13,0Z" transform="translate(-91.93 -99.14)"/><path class="cls-10" d="M193.86,469.6a14.48,14.48,0,0,1-7.67-7.86l3.36.95c.6,2.44,2.56,3.73,4.38,5.13C193.91,468.41,193.88,469,193.86,469.6Z" transform="translate(-91.93 -99.14)"/><path class="cls-7" d="M409.74,534.21c2.82-2.59,6.06-2.87,9.55-1.71v1l-2.51.07c-1.3-.22-2.47-.2-2.77,1.46l-3.36.1Z" transform="translate(-91.93 -99.14)"/><path class="cls-7" d="M324.31,532.52a8.09,8.09,0,0,1,8.68,1.67l-.92.94-3.47.06.07-.11c-.4-1.76-1.25-2.14-2.64-.85l-1.75.1.06-.08Z" transform="translate(-91.93 -99.14)"/><path class="cls-10" d="M204.32,479.86a11.62,11.62,0,0,1-7-6.8l1.79-.07c1.12,2.16,3.41,2.93,5.13,4.36C204.27,478.19,204.3,479,204.32,479.86Z" transform="translate(-91.93 -99.14)"/><path class="cls-7" d="M351.94,536c2.73-.84,5.5-2.15,7.82.85-.93.16-2-.11-2.64.9l-5.09-.08Z" transform="translate(-91.93 -99.14)"/><path class="cls-7" d="M401.12,536.69l-5.15.15c-.64-1-1.71-.74-2.64-.9,2.32-3,5.1-1.68,7.82-.85Z" transform="translate(-91.93 -99.14)"/><path class="cls-7" d="M199.11,473l-1.79.07a4.26,4.26,0,0,1-3.46-3.46c0-.59,0-1.19.07-1.78A6.9,6.9,0,0,1,199.11,473Z" transform="translate(-91.93 -99.14)"/><path class="cls-7" d="M488.39,511.06c-1.09,2.73-3.63,3-6,3.49l-1-.21C483.09,511.89,485.18,510.29,488.39,511.06Z" transform="translate(-91.93 -99.14)"/><path class="cls-7" d="M383.83,536.79c2.32-3,5.1-1.68,7.83-.84v1l-6.05.76Z" transform="translate(-91.93 -99.14)"/><path class="cls-7" d="M425.27,531.58a5.22,5.22,0,0,1,7-1.65l0,1.73.08.11-1.78-.14c-1.4-1.27-2.25-.9-2.62.89l.08.11-1.76-.14Z" transform="translate(-91.93 -99.14)"/><path class="cls-7" d="M346.76,536.83l-4.35-.72,0-1c2.46-.93,5-2.17,7,.83C348.48,536.1,347.4,535.83,346.76,536.83Z" transform="translate(-91.93 -99.14)"/><path class="cls-7" d="M402.83,535.06c1.35-2.8,3.3-1.74,5.23-.82L408,535.9l-4.22.09Z" transform="translate(-91.93 -99.14)"/><path class="cls-7" d="M338.9,535.32l-4.27.75.08-.11c0-.58,0-1.15,0-1.73,2.22-1.07,4.41-1.91,6.09.85Z" transform="translate(-91.93 -99.14)"/><path class="cls-7" d="M239.65,504.14l-3.44-1.77-.82-1.77c2.52.26,4.92.74,6.09,3.4l-.09.11Z" transform="translate(-91.93 -99.14)"/><path class="cls-7" d="M502.39,503.38c-1,2.5-3,3.58-5.47,4C497.25,504,499.92,503.82,502.39,503.38Z" transform="translate(-91.93 -99.14)"/><path class="cls-7" d="M189.55,462.69l-3.36-.95c-.32-.54-.65-1.08-1-1.63l.09-1.8c2-.07,2.69,2,4.28,2.62C189.58,461.51,189.57,462.1,189.55,462.69Z" transform="translate(-91.93 -99.14)"/><path class="cls-7" d="M230.19,497.17c-2.58-.65-4.91-1.64-6.08-4.28C226.76,493.43,229,494.58,230.19,497.17Z" transform="translate(-91.93 -99.14)"/><path class="cls-10" d="M210.38,485a5.08,5.08,0,0,1-4.43-4.2l1.8-.08,1.66.94C209.73,482.8,210.05,483.92,210.38,485Z" transform="translate(-91.93 -99.14)"/><path class="cls-7" d="M207.75,480.75l-1.8.08-1.63-1c0-.83,0-1.67-.08-2.51A3.54,3.54,0,0,1,207.75,480.75Z" transform="translate(-91.93 -99.14)"/><path class="cls-10" d="M346.76,536.83c.64-1,1.72-.73,2.64-.89l2.54,0,.09,1.67-1.86.2-.86.19-2.54-.15C346.77,537.53,346.77,537.18,346.76,536.83Z" transform="translate(-91.93 -99.14)"/><path class="cls-10" d="M357.12,537.71c.63-1,1.71-.74,2.64-.9h2.54v1c0,.32,0,.64,0,1l-3.47.07-1.71-.12C357.11,538.39,357.11,538.05,357.12,537.71Z" transform="translate(-91.93 -99.14)"/><path class="cls-10" d="M383.83,536.79l1.78.92c0,.34,0,.69,0,1l-1.71.12-3.47-.07c0-.32,0-.65,0-1v-1Z" transform="translate(-91.93 -99.14)"/><path class="cls-7" d="M210.38,485c-.33-1.11-.65-2.23-1-3.34a3.54,3.54,0,0,1,3.54,3.36l-1.81.1Z" transform="translate(-91.93 -99.14)"/><path class="cls-10" d="M452,526.43c0-1.81,2.1-1.33,2.67-2.51l1.8.13c0,.81-.07,1.61-.11,2.41l-1.68.13C453.87,525.47,452.89,526.87,452,526.43Z" transform="translate(-91.93 -99.14)"/><path class="cls-10" d="M481.4,514.34l1,.21c-.46,1.92-1.95,2.28-3.61,2.38.06-.8.13-1.59.2-2.38Z" transform="translate(-91.93 -99.14)"/><path class="cls-10" d="M391.66,537v-1h1.67c.93.16,2-.11,2.64.9,0,.35,0,.69,0,1l-1.68.12-2.6-.08Z" transform="translate(-91.93 -99.14)"/><path class="cls-10" d="M402.83,535.06l.92.93,0,1.69a5.58,5.58,0,0,0-.82.11l-1.73-.09c0-.34,0-.67,0-1l0-1.6Z" transform="translate(-91.93 -99.14)"/><path class="cls-10" d="M338.9,535.32l1.86-.24,1.68,0,0,1C340.93,537.26,339.67,537.4,338.9,535.32Z" transform="translate(-91.93 -99.14)"/><path class="cls-7" d="M235.39,500.6c-1.61-.23-3.17-.54-3.51-2.53C233.5,498.28,235.07,498.57,235.39,500.6Z" transform="translate(-91.93 -99.14)"/><path class="cls-10" d="M317.31,531.86l1-.26,1.68.07c0,.34,0,.67,0,1l-1.68,1.57-.87,0C317.4,533.43,317.35,532.64,317.31,531.86Z" transform="translate(-91.93 -99.14)"/><path class="cls-10" d="M243.19,508.31c0-.8-.07-1.6-.11-2.4l1-.19.81.08a2.27,2.27,0,0,1,.13,2.45Z" transform="translate(-91.93 -99.14)"/><path class="cls-7" d="M320,532.67c0-.33,0-.66,0-1,1.35-1.32,2.22-1,2.64.8l-1,.25Z" transform="translate(-91.93 -99.14)"/><path class="cls-7" d="M421,532.44c.44-1.72,1.29-2.12,2.65-.81v1l-1.64.06Z" transform="translate(-91.93 -99.14)"/><path class="cls-7" d="M491.94,508.52l-.18,2.4-1.74-.09C490.07,509.57,490.16,508.34,491.94,508.52Z" transform="translate(-91.93 -99.14)"/><path class="cls-10" d="M408,535.9l.09-1.66,1.68,0,.91.93C410,536.19,409,536,408,535.9Z" transform="translate(-91.93 -99.14)"/><path class="cls-10" d="M423.6,532.64v-1l1.67,0,.94.91-.93,1-1.65.11Z" transform="translate(-91.93 -99.14)"/><path class="cls-10" d="M334.67,534.23c0,.58,0,1.15,0,1.73l-1.7.15-.94-1,.92-.94Z" transform="translate(-91.93 -99.14)"/><path class="cls-10" d="M321.63,532.72l1-.25,1.67,0,0,1.73-1.7.14C322.3,533.83,322,533.27,321.63,532.72Z" transform="translate(-91.93 -99.14)"/><path class="cls-10" d="M421,532.44l1,.26c-.34.55-.67,1.11-1,1.66l-1.64.11,0-1v-1Z" transform="translate(-91.93 -99.14)"/><path class="cls-10" d="M432.21,531.66l0-1.73,1.66-.07,1,.24-1,1.67Z" transform="translate(-91.93 -99.14)"/><path class="cls-7" d="M244.06,505.72l-1,.19a5.71,5.71,0,0,0-.82-.09l-.87-1.71.09-.11C242.69,504.05,243.92,504.08,244.06,505.72Z" transform="translate(-91.93 -99.14)"/><path class="cls-7" d="M216.4,487.64a1.56,1.56,0,0,1-1.79-1.66A1.56,1.56,0,0,1,216.4,487.64Z" transform="translate(-91.93 -99.14)"/><path class="cls-7" d="M219.85,490.23a1.55,1.55,0,0,1-1.78-1.66A1.55,1.55,0,0,1,219.85,490.23Z" transform="translate(-91.93 -99.14)"/><path class="cls-7" d="M222.43,492a1.6,1.6,0,0,1-1.79-1.66A1.52,1.52,0,0,1,222.43,492Z" transform="translate(-91.93 -99.14)"/><path class="cls-11" d="M499.87,272.91c-.27-.23-.82-.51-.27-.83s1.27-.07,1.68.58Z" transform="translate(-91.93 -99.14)"/><path class="cls-11" d="M516.88,246a.68.68,0,0,1,.74-.23C517.53,246.29,517.38,246.7,516.88,246Z" transform="translate(-91.93 -99.14)"/><path class="cls-14" d="M262.09,515.34c3.94.92,7,4.2,11.21,4.37,0,.86.27,1.78-.58,2.43-5.38-1.38-10.78-2.73-14.9-6.84Z" transform="translate(-91.93 -99.14)"/><path class="cls-14" d="M275.11,521.16c1.78-.07,3.63-.47,5.07,1.07-.73,1.16,1,.9,1,1.69L281,524c-2.27-.39-4.81,1.12-6.82-1v0l.89-.84Z" transform="translate(-91.93 -99.14)"/><path class="cls-10" d="M262.09,515.34l-4.27,0-1.07-.8c-.25-.55-.51-1.1-.77-1.64,1.59-.5,2.91.65,4.41.74Z" transform="translate(-91.93 -99.14)"/><path class="cls-10" d="M275.11,521.16c0,.36,0,.71,0,1.06l-.89.84v0c-.59-.12-1.25-.16-1.49-.88.85-.65.58-1.57.58-2.43A1.45,1.45,0,0,1,275.11,521.16Z" transform="translate(-91.93 -99.14)"/><path class="cls-5" d="M256,512.86c.26.54.52,1.09.77,1.64l-1.5-.06c0-.56,0-1.12,0-1.68Z" transform="translate(-91.93 -99.14)"/><path class="cls-10" d="M255.29,512.76c0,.56,0,1.12,0,1.68a3.73,3.73,0,0,0-.82,0q0-.42-.06-.84l.08-.93A2.63,2.63,0,0,1,255.29,512.76Z" transform="translate(-91.93 -99.14)"/><path class="cls-5" d="M254.37,513.56q0,.42.06.84l-1.87,0-.24-1,.27,0Z" transform="translate(-91.93 -99.14)"/><path class="cls-14" d="M252.32,513.35l.24,1a4.17,4.17,0,0,1-.71-.06c.07-.33.15-.66.22-1Z" transform="translate(-91.93 -99.14)"/><path class="cls-14" d="M532.36,486.74c.2-2.12,1.63-2.6,3.44-2.56C535.11,485.64,534.17,486.78,532.36,486.74Z" transform="translate(-91.93 -99.14)"/><path class="cls-10" d="M511.64,499.72c.14-1.67,1.35-1.72,2.6-1.72A2.43,2.43,0,0,1,511.64,499.72Z" transform="translate(-91.93 -99.14)"/><path class="cls-10" d="M514.23,498a1.55,1.55,0,0,1,1.81-1.62A1.56,1.56,0,0,1,514.23,498Z" transform="translate(-91.93 -99.14)"/><path class="cls-10" d="M507.34,502.33a1.51,1.51,0,0,1,1.8-1.62A1.59,1.59,0,0,1,507.34,502.33Z" transform="translate(-91.93 -99.14)"/><path class="cls-10" d="M281.14,523.92c.06-.79-1.69-.53-1-1.69,2.07.21,4.31,0,5.33,2.5Z" transform="translate(-91.93 -99.14)"/><path class="cls-10" d="M301.76,528.43c1.77.24,3.72.13,4.53,2.27C304.55,530.41,302.58,530.56,301.76,528.43Z" transform="translate(-91.93 -99.14)"/><path class="cls-10" d="M288.83,524.93a1.51,1.51,0,0,1,1.89,1.49A1.53,1.53,0,0,1,288.83,524.93Z" transform="translate(-91.93 -99.14)"/><path class="cls-10" d="M294.87,526.65a1.52,1.52,0,0,1,1.9,1.49A1.52,1.52,0,0,1,294.87,526.65Z" transform="translate(-91.93 -99.14)"/><path class="cls-10" d="M308.76,530.79c1.27-1.27,1.55-.22,1.84.79A1.55,1.55,0,0,1,308.76,530.79Z" transform="translate(-91.93 -99.14)"/><path class="cls-10" d="M313.08,531.66c.63-.87,1.2-.81,1.72.11C314.17,532.62,313.6,532.54,313.08,531.66Z" transform="translate(-91.93 -99.14)"/><path class="cls-10" d="M465,522.12c.73-2.22,2.74-2,4.47-2.37C468.69,521.94,466.67,521.73,465,522.12Z" transform="translate(-91.93 -99.14)"/><path class="cls-10" d="M459.81,523.87c.24-1,.47-2.11,1.79-.83A1.66,1.66,0,0,1,459.81,523.87Z" transform="translate(-91.93 -99.14)"/><path class="cls-10" d="M474.48,518.68a1.53,1.53,0,0,1,1.86-1.55A1.55,1.55,0,0,1,474.48,518.68Z" transform="translate(-91.93 -99.14)"/><path class="cls-10" d="M185.31,458.31l-.09,1.8-4.16-1.88c0-.25-.06-.51-.1-.76.19-2.24-2.79-3-2.52-5.24l2.57.88.84.89a1.58,1.58,0,0,0,1.68,1.77Z" transform="translate(-91.93 -99.14)"/><path class="cls-14" d="M247.56,510a2.22,2.22,0,0,1-2.68-1.63A2.62,2.62,0,0,1,247.56,510Z" transform="translate(-91.93 -99.14)"/><path class="cls-14" d="M254.37,513.56l-1.78-.23c.44-.73,1.15-.71,1.86-.7C254.43,512.94,254.4,513.25,254.37,513.56Z" transform="translate(-91.93 -99.14)"/><path class="cls-14" d="M251.23,512.78c-.08-.34-.16-.67-.25-1C251.57,512,251.84,512.27,251.23,512.78Z" transform="translate(-91.93 -99.14)"/><path class="cls-7" d="M181,453.11l-2.57-.88-.12-.76c0-.6.06-1.2.1-1.8C180.6,449.83,181.06,451.28,181,453.11Z" transform="translate(-91.93 -99.14)"/><path class="cls-14" d="M433.92,531.77l1-1.67,1.66-.06c1.24,1.23,1.53.24,1.81-.77l1.65-.1c1.77,1.24,3-.12,4.31-.93l1.64-.08a7.27,7.27,0,0,0,4.4-1.64l1.65-.09c.87.44,1.85-1,2.68.16L453,528.25l-2.57.09a4.27,4.27,0,0,0-3.48,1.63c-4.58-.33-8.24,3.73-12.95,2.69C434,532.37,433.93,532.07,433.92,531.77Z" transform="translate(-91.93 -99.14)"/><path class="cls-10" d="M241.39,504.11l.87,1.71c-1.24,0-2.46,0-2.61-1.68Z" transform="translate(-91.93 -99.14)"/><path class="cls-14" d="M391.66,537l0,1c-.07,1.1-.77,1.5-1.76,1.57-1.43-.23-3,.53-4.29-.75,0-.34,0-.69,0-1Z" transform="translate(-91.93 -99.14)"/><path class="cls-14" d="M357.12,537.71c0,.34,0,.68,0,1-1,1.13-2.26.6-3.42.75a5.45,5.45,0,0,1-3.51-1.66l1.86-.2Z" transform="translate(-91.93 -99.14)"/><path class="cls-14" d="M419.29,533.51l0,1,0,1.56-3.43.07a1.49,1.49,0,0,0-1.79,1.55l-4.25-.67a1.6,1.6,0,0,0-1.76.78l-4.35-.08c0-.56,0-1.12,0-1.69l4.22-.09c1,.11,2,.29,2.68-.76L414,535c1.26.15,2.47.21,2.77-1.46Z" transform="translate(-91.93 -99.14)"/><path class="cls-14" d="M332.07,535.13l.94,1c0,.3-.05.59-.07.89l-3.44-.1a1.8,1.8,0,0,1-.9-1.71Z" transform="translate(-91.93 -99.14)"/><path class="cls-14" d="M430.51,531.63l1.78.14c0,.56,0,1.11-.05,1.67l-2.59.1-.06-.9C429.9,532.31,430.21,532,430.51,531.63Z" transform="translate(-91.93 -99.14)"/><path class="cls-14" d="M425.28,533.5l.93-1,1.76.14c0,.56,0,1.11-.05,1.67l-2.59.09C425.31,534.09,425.3,533.8,425.28,533.5Z" transform="translate(-91.93 -99.14)"/><path class="cls-14" d="M324.28,534.33l1.75-.1.92,1c0,.28,0,.56-.05.85l-2.59-.06Z" transform="translate(-91.93 -99.14)"/><path class="cls-14" d="M421,534.36c.33-.55.66-1.11,1-1.66l1.64-.06,0,1c0,.52,0,1,0,1.55l-2.6.09C421,535,421,534.66,421,534.36Z" transform="translate(-91.93 -99.14)"/><path class="cls-10" d="M327,535.23l-.92-1c1.39-1.29,2.24-.91,2.64.85Z" transform="translate(-91.93 -99.14)"/><path class="cls-10" d="M430.51,531.63c-.3.34-.61.68-.92,1l-1.7-.12C428.26,530.73,429.11,530.36,430.51,531.63Z" transform="translate(-91.93 -99.14)"/><path class="cls-3" d="M572.54,307.34a1.5,1.5,0,0,1,.1,1.8A1.31,1.31,0,0,1,572.54,307.34Z" transform="translate(-91.93 -99.14)"/><path class="cls-1" d="M377.33,498.72l-1.19-.3A.81.81,0,0,1,377.33,498.72Z" transform="translate(-91.93 -99.14)"/><path class="cls-7" d="M167.09,430.76a2.37,2.37,0,0,1-1.93-1.49,145.25,145.25,0,0,1-14.39-46.54,12.94,12.94,0,0,1,.06-2.15c3.17,1.14,1.59,4,1.9,6a150.77,150.77,0,0,0,13.83,42.16A9.86,9.86,0,0,1,167.09,430.76Z" transform="translate(-91.93 -99.14)"/><path class="cls-7" d="M150.83,353.06c-.14-6.67,1.78-13,3.34-19.36A126.34,126.34,0,0,1,162.84,309c.54-1.14.9-2.5,2.47-2.73C163.15,314,159,321,157.1,328.8c-1.72,7.06-3.72,14-4.61,21.27C152.34,351.34,152.64,352.76,150.83,353.06Z" transform="translate(-91.93 -99.14)"/><path class="cls-7" d="M187,273.56c.85-4.53-1.19-6.71-5.65-6.87-1.12,0-1.94-.39-2.19-1.58a15,15,0,0,1,7.6.77c1.58.64,2.79,1.61,2.79,3.42S189.48,273.13,187,273.56Z" transform="translate(-91.93 -99.14)"/><path class="cls-7" d="M150.8,378.91c-1.75-2.45-.64-5.21-.83-7.82C152.94,373.41,151.65,376.18,150.8,378.91Z" transform="translate(-91.93 -99.14)"/><path class="cls-7" d="M150,362.56c.2-2.62-.91-5.37.84-7.82C151.65,357.47,153,360.24,150,362.56Z" transform="translate(-91.93 -99.14)"/><path class="cls-7" d="M175.76,445.41c-2-.33-2.3-1.9-2.55-3.5C175.25,442.21,175.54,443.79,175.76,445.41Z" transform="translate(-91.93 -99.14)"/><path class="cls-7" d="M171.43,438.52c-2-.37-2.29-1.91-2.51-3.53C170.93,435.33,171.24,436.88,171.43,438.52Z" transform="translate(-91.93 -99.14)"/><path class="cls-7" d="M156.8,260.67c-1.25,1.31-1.53.26-1.84-.75C155.73,259.8,156.41,259.86,156.8,260.67Z" transform="translate(-91.93 -99.14)"/><path class="cls-7" d="M150.75,259c-1.27,1.25-1.54.2-1.82-.8A1.51,1.51,0,0,1,150.75,259Z" transform="translate(-91.93 -99.14)"/><path class="cls-7" d="M183.53,455.77a1.58,1.58,0,0,1-1.68-1.77A1.53,1.53,0,0,1,183.53,455.77Z" transform="translate(-91.93 -99.14)"/><path class="cls-7" d="M178.33,448.88a1.59,1.59,0,0,1-1.66-1.79A1.52,1.52,0,0,1,178.33,448.88Z" transform="translate(-91.93 -99.14)"/><path class="cls-7" d="M173.13,441.12a1.59,1.59,0,0,1-1.63-1.81A1.51,1.51,0,0,1,173.13,441.12Z" transform="translate(-91.93 -99.14)"/><path class="cls-7" d="M176.66,265c-1.23,1.33-1.53.28-1.85-.72C175.57,264.12,176.26,264.16,176.66,265Z" transform="translate(-91.93 -99.14)"/><path class="cls-7" d="M171.48,264.16c-1.25,1.25-1.54.22-1.84-.78A1.5,1.5,0,0,1,171.48,264.16Z" transform="translate(-91.93 -99.14)"/><path class="cls-7" d="M168,263.25c-1.22,1.33-1.53.29-1.85-.72C166.94,262.39,167.63,262.44,168,263.25Z" transform="translate(-91.93 -99.14)"/><path class="cls-7" d="M163.71,262.43c-1.26,1.25-1.54.22-1.85-.78A1.51,1.51,0,0,1,163.71,262.43Z" transform="translate(-91.93 -99.14)"/><path class="cls-7" d="M160.25,261.53c-1.23,1.32-1.53.27-1.85-.73C159.17,260.66,159.86,260.71,160.25,261.53Z" transform="translate(-91.93 -99.14)"/><path class="cls-10" d="M444.33,528.24c-1.33.81-2.54,2.17-4.31.93C441.33,528.31,442.54,526.94,444.33,528.24Z" transform="translate(-91.93 -99.14)"/><path class="cls-10" d="M450.37,526.52a7.27,7.27,0,0,1-4.4,1.64C446.69,525.6,448.81,526.8,450.37,526.52Z" transform="translate(-91.93 -99.14)"/><path class="cls-10" d="M438.37,529.27c-.28,1-.57,2-1.81.77A1.44,1.44,0,0,1,438.37,529.27Z" transform="translate(-91.93 -99.14)"/><path class="cls-10" d="M416.78,533.58c-.3,1.67-1.51,1.61-2.77,1.46C414.31,533.38,415.48,533.36,416.78,533.58Z" transform="translate(-91.93 -99.14)"/><path class="cls-12" d="M274.2,523.06l.89-.84Z" transform="translate(-91.93 -99.14)"/></svg>