<svg id="Слой_1" data-name="Слой 1" xmlns="http://www.w3.org/2000/svg" viewBox="0 0 30.54 24.83"><defs><style>.cls-1{fill:#fff;}</style></defs><path class="cls-1" d="M18.37,28a3.42,3.42,0,0,1-2.19,4.27,3.31,3.31,0,0,1-4-1.76,3.4,3.4,0,0,1,1.47-4.46c-.12-.31-.23-.63-.35-.94q-2.85-7.53-5.68-15.06a.22.22,0,0,0-.25-.17H4.71a1.14,1.14,0,0,1-.5-2.17,1.17,1.17,0,0,1,.52-.12H8.32a1.11,1.11,0,0,1,1.12.77c.33.85.65,1.7,1,2.55.08.21.15.43.24.64a.3.3,0,0,0,.17.12.47.47,0,0,0,.17,0H32.88A1.15,1.15,0,0,1,34,13.25q-1.51,5-3,9.91a1.16,1.16,0,0,1-1.24.91H15.37c.17.44.33.86.48,1.27s.13.35.5.35H28.19a3.37,3.37,0,1,1-3.22,3c0-.22.08-.43.12-.66Zm-.22-10.51L17.88,14h-6.3s0,.07,0,.1c.41,1.09.83,2.18,1.23,3.28.05.12.12.13.23.13h5.09Zm7.15,0h4.92c.12,0,.16,0,.19-.15.22-.74.45-1.47.67-2.2.12-.38.24-.76.36-1.16H25.57Zm-6,0h4.87L24.43,14H19Zm.09,1.18.24,3.11h4.21l.24-3.11Zm-.9,3.12c0-.09,0-.16,0-.24-.07-.89-.14-1.79-.2-2.68,0-.17-.07-.21-.23-.21H13.32l1.18,3.13Zm6.49,0,.13,0c1.27,0,2.54,0,3.81,0,.12,0,.15-.06.18-.15.18-.6.37-1.2.55-1.8L30,18.66H25.21Zm4.33,7.29a1,1,0,1,0-2.09,0,1,1,0,1,0,2.09,0Zm-15.14,0a1,1,0,1,0,2.09,0,1.07,1.07,0,0,0-1-1.06A1.06,1.06,0,0,0,14.16,29.05Z" transform="translate(-3.57 -7.58)"/><path class="cls-1" d="M29.3,29.05a1,1,0,1,1-2.09,0,1,1,0,1,1,2.09,0Z" transform="translate(-3.57 -7.58)"/><path class="cls-1" d="M14.16,29.05A1.06,1.06,0,0,1,15.21,28a1.07,1.07,0,0,1,1,1.06,1,1,0,1,1-2.09,0Z" transform="translate(-3.57 -7.58)"/></svg>