<svg id="Слой_1" data-name="Слой 1" xmlns="http://www.w3.org/2000/svg" viewBox="0 0 457.71 141.73"><defs><style>.cls-1,.cls-3,.cls-4{fill:#fff;}.cls-1{stroke:#fff;}.cls-1,.cls-3{stroke-miterlimit:10;}.cls-2{fill:#43345d;}.cls-3{stroke:#43345d;stroke-width:3px;}.cls-5{opacity:0.01;}</style></defs><path class="cls-1" d="M85.54,28.43c-8-7.28-18.13-5.1-19.4-4.68-4.53,1.53-5.17,2.16-8,6.17-4.7,6.53,2.09,18.06-1.82,23.7-5.43,7.82-20.6-.55-30.41,7.67-6.9,5.79-8.33,17.41-5.4,25.18,6.59,17.48,40,28.06,58.81,13,19.67-15.75,11.35-49.8,3.8-55.07-.44-.31-2.24-1.47-2-2.36.69-2.58,19.88.9,18.2-1.58C97.48,37.79,86.64,29.44,85.54,28.43Z"/><path class="cls-2" d="M64.46,62q-2.31,4.89-4.69,9.76c-1.27,2.58-2.44,5.91-5,7.54l2.83,1.62a67.24,67.24,0,0,0-1.53-8.67c-.33-1.57-.28-3.43-1.58-4.57a3.57,3.57,0,0,0-4.55.13,42.93,42.93,0,0,0-3.73,3.42c-1.27,1.15-2.58,2.28-3.91,3.36a91.57,91.57,0,0,1-8.74,6.28l2.82,1.62a88.73,88.73,0,0,1,.76-11.4,1.89,1.89,0,0,0-1.87-1.87,1.92,1.92,0,0,0-1.88,1.87,88.73,88.73,0,0,0-.76,11.4,1.89,1.89,0,0,0,2.82,1.62A98.82,98.82,0,0,0,49.39,73.43c.5-.45,1-.92,1.47-1.38.27-.26.53-.54.81-.79s.63-.4.68-.53c.25-.09.22-.15-.1-.16-.34-.18-.4,0-.19.4a4.61,4.61,0,0,0,.19,1.1c.11.58.22,1.17.35,1.75a50.45,50.45,0,0,1,1.28,7.11,1.89,1.89,0,0,0,2.82,1.62c2.94-1.89,4.38-5,5.88-8C64.32,71,66,67.45,67.7,63.9c1-2.17-2.21-4.08-3.24-1.89Z"/><ellipse class="cls-3" cx="68.75" cy="32.68" rx="4.69" ry="4.61"/><ellipse class="cls-3" cx="78.61" cy="32.3" rx="3.17" ry="3.12"/><path class="cls-4" d="M29.08,58.77c-2.47-3.76-6-6.67-9.58-9.31A27.34,27.34,0,0,0,7.6,44.05,2.58,2.58,0,0,0,4.52,45.8a2.51,2.51,0,0,0,1.75,3.07,24,24,0,0,1,10.43,4.7,31.7,31.7,0,0,1,8.07,7.72,2.55,2.55,0,0,0,3.42.9,2.52,2.52,0,0,0,.89-3.42Z"/><path class="cls-4" d="M23.75,65.88c0-2-1.65-3.12-3.26-3.95a28.7,28.7,0,0,0-4.28-1.8,28.24,28.24,0,0,0-8.79-1.38,2.5,2.5,0,0,0,0,5c.61,0,1.21,0,1.82.06l.85.07.48,0h.06a26.9,26.9,0,0,1,3.32.72c.54.16,1.08.33,1.62.53.3.11.6.22.9.35l.3.13c.51.23,1,.48,1.52.75.29.15.56.34.85.47s.22.14,0,0a1.75,1.75,0,0,1-.37-1,2.53,2.53,0,0,0,2.5,2.5,2.55,2.55,0,0,0,2.5-2.5Z"/><path class="cls-4" d="M70.72,22.13a26.2,26.2,0,0,0-.66-6.95,10,10,0,0,0-2.44-5.06c-1.32-1.27-3.8-2.06-5.23-.49s-1.17,4.46-.61,6.31l1.83-1.42c-2.38-1.39-5.86-2.85-8.64-1.79a3.72,3.72,0,0,0-2.49,3.18,6.74,6.74,0,0,0,1.78,4.44A1.29,1.29,0,0,0,56,20.8a1.27,1.27,0,0,0,.45-1.71c-.94-1.21-2.57-3.8,0-4.16,2-.29,4.27.78,6,1.75a1.26,1.26,0,0,0,1.84-1.41A6.77,6.77,0,0,1,63.87,13c0-.4,0-1.45.41-1.69s1,.17,1.34.38A4.09,4.09,0,0,1,66.69,13a13.65,13.65,0,0,1,1.2,4,23.4,23.4,0,0,1,.33,5.15c-.06,1.61,2.44,1.61,2.5,0Z"/><path class="cls-4" d="M37.48,104.22v24.34c0,1.24-.16,2.58.68,3.6a4.06,4.06,0,0,0,3,1.2c4.46.4,9.53.61,13.5-1.85a6.77,6.77,0,0,0,3.51-5.21,6.69,6.69,0,0,0-2.6-5.39c-4.45-3.66-10.54-1.7-15.19.45-2.18,1-.28,4.25,1.9,3.24,2.95-1.36,7-3,10.12-1.34,1,.54,2.18,1.69,2,3s-1.84,2.28-3,2.74a14.93,14.93,0,0,1-5.09.88c-.93,0-1.87,0-2.8-.06l-1.29-.09c-.28,0-1.12-.24-1.36-.12s.42.47.39.48a6.07,6.07,0,0,0,0-.74V104.22a1.88,1.88,0,0,0-3.75,0Z"/><path class="cls-4" d="M63.11,104.22v24.34c0,1.24-.17,2.58.67,3.6a4.09,4.09,0,0,0,3,1.2c4.47.4,9.54.61,13.51-1.85a6.76,6.76,0,0,0,3.5-5.21,6.68,6.68,0,0,0-2.59-5.39c-4.46-3.66-10.55-1.7-15.19.45-2.19,1-.29,4.25,1.89,3.24,2.95-1.36,7-3,10.12-1.34,1,.54,2.19,1.69,2,3s-1.85,2.28-3,2.74a15,15,0,0,1-5.1.88c-.93,0-1.86,0-2.79-.06l-1.29-.09c-.29,0-1.13-.24-1.37-.12s.43.47.4.48a6.07,6.07,0,0,0,0-.74V104.22a1.88,1.88,0,0,0-3.75,0Z"/><path class="cls-1" d="M185.35,29.4c-8-7.27-18.13-5.1-19.39-4.68-4.54,1.53-5.18,2.16-8.06,6.17-4.69,6.53,2.1,18.06-1.82,23.7-5.42,7.82-20.59-.55-30.4,7.68-6.9,5.78-8.34,17.4-5.4,25.17,6.59,17.48,40,28.06,58.8,13,19.68-15.74,11.35-49.8,3.81-55.07-.44-.31-2.24-1.47-2-2.36.69-2.57,19.88.91,18.2-1.57C197.29,38.76,186.46,30.41,185.35,29.4Z"/><path class="cls-2" d="M164.28,63q-2.31,4.89-4.7,9.76c-1.27,2.58-2.43,5.91-5,7.54l2.82,1.62a63.56,63.56,0,0,0-1.53-8.66c-.32-1.57-.27-3.44-1.57-4.58a3.59,3.59,0,0,0-4.55.13,43.06,43.06,0,0,0-3.73,3.42c-1.27,1.16-2.58,2.28-3.91,3.37a96,96,0,0,1-8.74,6.27l2.82,1.62A86.81,86.81,0,0,1,137,72.08a1.89,1.89,0,0,0-1.88-1.88,1.92,1.92,0,0,0-1.87,1.88,86.81,86.81,0,0,0-.76,11.39,1.89,1.89,0,0,0,2.82,1.62A99.4,99.4,0,0,0,149.21,74.4L150.68,73c.27-.26.53-.53.8-.78s.63-.41.68-.54c.25-.09.22-.14-.09-.16-.34-.18-.4,0-.19.4a4.61,4.61,0,0,0,.19,1.1c.1.58.22,1.17.35,1.75a49,49,0,0,1,1.27,7.11,1.89,1.89,0,0,0,2.82,1.62c2.94-1.89,4.39-5,5.88-8q2.61-5.3,5.13-10.63c1-2.17-2.21-4.08-3.24-1.89Z"/><ellipse class="cls-3" cx="168.57" cy="33.65" rx="4.69" ry="4.61"/><ellipse class="cls-3" cx="178.43" cy="33.27" rx="3.17" ry="3.12"/><path class="cls-4" d="M173.78,105.78c5.36-.61,8.83,5.17,10.38,9.5a25.46,25.46,0,0,1,1.52,8.6,23,23,0,0,1-.25,3.7c-.24,1.58-.9,3.22-.29,4.79,1.06,2.76,4.93,3.33,7.47,3.66a21,21,0,0,0,7.78-.09,6.59,6.59,0,0,0,4.93-4.14,6.21,6.21,0,0,0-2.73-6.81c-5.86-4.08-12.75,2-16.41,6.3-1.56,1.83,1.08,4.49,2.65,2.66a25.56,25.56,0,0,1,5.68-5.16c1.7-1,4-2,5.89-.76,1.32.88,2,2.61.53,3.67-1.35,1-3.33.94-4.9.87a28.26,28.26,0,0,1-3.79-.36,19,19,0,0,1-2-.46c-.39-.12-1.32-.3-1.57-.67s.33-2.26.42-2.92a29.41,29.41,0,0,0,.32-3.86A29,29,0,0,0,185.86,110c-2.37-4.3-6.77-8.57-12.08-8a1.94,1.94,0,0,0-1.87,1.88,1.88,1.88,0,0,0,1.87,1.87Z"/><path class="cls-4" d="M139.36,104.5c-.86,2.85-2.93,5.06-5,7.11s-4.41,3.91-7.33,4.6a12.58,12.58,0,0,1-7.28-.56c-2.45-.92-4-2.58-5.74-4.48a6.19,6.19,0,0,0-7.63-1.6c-2.76,1.35-4.15,4.2-5.35,6.86s-2.45,5.88-1.44,8.93a6,6,0,0,0,6.18,4.41c3.5-.37,5.59-3.32,6.79-6.35a26.07,26.07,0,0,0,1.67-11.26c-.16-2.4-3.91-2.42-3.75,0a23.41,23.41,0,0,1-1,8.8c-.61,1.91-1.86,5.27-4.41,5.1-2.25-.15-2.25-3.35-1.85-4.89a19.29,19.29,0,0,1,3.36-7,3.85,3.85,0,0,1,2.72-1.55c1.16,0,1.87,1,2.56,1.79a16,16,0,0,0,5.49,4.3,16.24,16.24,0,0,0,13.47.17,24.75,24.75,0,0,0,7.39-5.8A19.17,19.17,0,0,0,143,105.5c.71-2.31-2.91-3.3-3.62-1Z"/><path class="cls-4" d="M128.9,59.74c-2.48-3.76-6-6.67-9.58-9.31A27.44,27.44,0,0,0,107.41,45a2.58,2.58,0,0,0-3.07,1.75,2.51,2.51,0,0,0,1.74,3.07,24,24,0,0,1,10.44,4.71,31.32,31.32,0,0,1,8.06,7.72,2.56,2.56,0,0,0,3.42.89,2.53,2.53,0,0,0,.9-3.42Z"/><path class="cls-4" d="M123.56,66.85c0-2-1.64-3.12-3.25-3.95A28.82,28.82,0,0,0,116,61.1a28.17,28.17,0,0,0-8.78-1.38,2.5,2.5,0,1,0,0,5c.6,0,1.21,0,1.82.06l.84.07.49.05c-.27,0-.25,0,0,0a26.9,26.9,0,0,1,3.32.72c.55.16,1.09.34,1.62.53l.91.35c-.39-.16.22.1.29.13q.78.35,1.53.75c.28.15.56.34.85.47s.22.14,0,0a1.92,1.92,0,0,1-.37-1,2.5,2.5,0,0,0,5,0Z"/><path class="cls-4" d="M170.54,23.1a26.62,26.62,0,0,0-.66-7,10,10,0,0,0-2.44-5.06c-1.32-1.27-3.8-2.06-5.23-.49s-1.18,4.46-.62,6.31l1.84-1.41c-2.39-1.39-5.87-2.86-8.64-1.8a3.72,3.72,0,0,0-2.49,3.19,6.7,6.7,0,0,0,1.77,4.43,1.29,1.29,0,0,0,1.71.45,1.25,1.25,0,0,0,.45-1.71c-.93-1.21-2.57-3.8,0-4.16,2-.29,4.28.78,6,1.75A1.26,1.26,0,0,0,164,16.24a6.76,6.76,0,0,1-.31-2.28c0-.4,0-1.45.41-1.68s1.05.16,1.34.38A3.93,3.93,0,0,1,166.5,14a13.06,13.06,0,0,1,1.2,4A24,24,0,0,1,168,23.1c-.06,1.61,2.44,1.61,2.5,0Z"/><path class="cls-1" d="M286.17,28.22c-8-7.28-18.13-5.1-19.39-4.68-4.54,1.53-5.18,2.16-8.06,6.17-4.69,6.53,2.1,18.06-1.82,23.7-5.42,7.82-20.6-.55-30.41,7.68-6.9,5.78-8.33,17.4-5.4,25.17,6.59,17.48,40,28.06,58.81,13,19.68-15.74,11.35-49.8,3.8-55.07-.44-.31-2.24-1.47-2-2.36.69-2.57,19.88.9,18.2-1.57C298.11,37.58,287.28,29.23,286.17,28.22Z"/><path class="cls-2" d="M265.1,61.8q-2.31,4.89-4.7,9.76c-1.27,2.58-2.43,5.91-5,7.54l2.82,1.62a65.13,65.13,0,0,0-1.53-8.66c-.33-1.58-.28-3.44-1.57-4.58a3.59,3.59,0,0,0-4.56.13A44.45,44.45,0,0,0,246.88,71c-1.28,1.16-2.58,2.28-3.92,3.37a93.26,93.26,0,0,1-8.74,6.27L237,82.29a88.57,88.57,0,0,1,.76-11.39A1.88,1.88,0,0,0,235.93,69a1.94,1.94,0,0,0-1.88,1.88,88.57,88.57,0,0,0-.76,11.39,1.9,1.9,0,0,0,2.83,1.62A100,100,0,0,0,250,73.22q.74-.68,1.47-1.38c.26-.26.52-.53.8-.78s.63-.41.68-.54c.25-.09.22-.14-.09-.16-.34-.18-.41,0-.19.4a4.6,4.6,0,0,0,.18,1.1c.11.58.23,1.17.35,1.75a50.45,50.45,0,0,1,1.28,7.11,1.89,1.89,0,0,0,2.82,1.62c2.94-1.89,4.38-5,5.88-8q2.61-5.29,5.13-10.63c1-2.17-2.21-4.08-3.24-1.89Z"/><ellipse class="cls-3" cx="269.39" cy="32.47" rx="4.69" ry="4.61"/><ellipse class="cls-3" cx="279.24" cy="32.09" rx="3.17" ry="3.12"/><path class="cls-4" d="M273.15,103.94c1.1,5.33-5.15,9.4-9.24,11.19a25,25,0,0,1-8.42,2.05,28.18,28.18,0,0,1-4.21-.07c-1.47-.14-2.81-.39-4.11.52-2.32,1.63-2.46,5.47-2.52,8a19.38,19.38,0,0,0,.95,7.49,6.3,6.3,0,0,0,5.12,4.34,6.37,6.37,0,0,0,6-3.76c3.09-6.36-3.57-12.32-8.2-15.62-2-1.4-3.84,1.85-1.89,3.24,2.81,2,8.87,6.68,6.69,10.8-.74,1.39-2.45,2.28-3.62.86s-1.23-3.26-1.3-4.85a31.06,31.06,0,0,1,0-3.86c.07-.93.08-2.8.77-3.5.36-.37,2.19.08,2.88.12a26.64,26.64,0,0,0,3.79,0,29,29,0,0,0,13.94-4.78c4.34-2.93,8.06-7.66,6.92-13.17-.49-2.36-4.11-1.36-3.62,1Z"/><path class="cls-4" d="M229.72,58.56c-2.48-3.76-6-6.67-9.59-9.31a27.41,27.41,0,0,0-11.9-5.41,2.59,2.59,0,0,0-3.08,1.75,2.52,2.52,0,0,0,1.75,3.07,23.9,23.9,0,0,1,10.43,4.71,31.36,31.36,0,0,1,8.07,7.72,2.56,2.56,0,0,0,3.42.89,2.53,2.53,0,0,0,.9-3.42Z"/><path class="cls-4" d="M224.38,65.67c.05-2.05-1.65-3.12-3.25-4a29.27,29.27,0,0,0-4.29-1.8,28.19,28.19,0,0,0-8.79-1.38,2.5,2.5,0,0,0,0,5c.61,0,1.22,0,1.82.06l.85.07.48,0h.06a26.9,26.9,0,0,1,3.32.72c.55.16,1.08.34,1.62.53l.9.35.3.13q.78.35,1.53.75c.28.15.55.34.84.47s.22.14,0-.05a1.75,1.75,0,0,1-.37-1,2.52,2.52,0,0,0,2.5,2.5,2.55,2.55,0,0,0,2.5-2.5Z"/><path class="cls-4" d="M271.36,21.92a26.63,26.63,0,0,0-.67-7,10,10,0,0,0-2.43-5.06c-1.33-1.27-3.8-2.06-5.24-.49s-1.17,4.46-.61,6.31l1.84-1.42c-2.39-1.38-5.87-2.85-8.65-1.79a3.7,3.7,0,0,0-2.48,3.18,6.73,6.73,0,0,0,1.77,4.44,1.29,1.29,0,0,0,1.71.45,1.26,1.26,0,0,0,.45-1.71c-.94-1.21-2.57-3.8,0-4.16,2-.29,4.27.78,6,1.75a1.26,1.26,0,0,0,1.84-1.41,6.76,6.76,0,0,1-.31-2.28c0-.4,0-1.45.41-1.68s1,.16,1.34.38a3.93,3.93,0,0,1,1.06,1.33,13.35,13.35,0,0,1,1.2,4,24,24,0,0,1,.34,5.15c-.06,1.61,2.44,1.61,2.5,0Z"/><path class="cls-4" d="M244.62,105.77,263,117.46c2.92,1.86,5.89,3.67,8.74,5.66a89.77,89.77,0,0,1,7.32,6c2.29,2,4.86,4,7.83,4.86,3.3.92,6.07-.43,7.89-3.22,2.6-4,3.7-11.54-2.37-13.06a7.81,7.81,0,0,0-7.66,2.93c-2.25,2.83-2.47,6.6-2.58,10.07-.08,2.41,3.67,2.41,3.75,0s.11-5,1.37-7.18c.8-1.36,2.62-2.63,4.27-2.17,3.63,1,.77,8.24-1.71,9.09-2.17.73-5-1.42-6.55-2.65-2-1.52-3.72-3.28-5.63-4.87-4.35-3.62-9.27-6.5-14-9.52l-17.16-10.89c-2-1.3-3.93,1.94-1.89,3.23Z"/><path class="cls-1" d="M316,49.3c-7.28,8-5.11,18.14-4.68,19.4,1.53,4.53,2.16,5.17,6.16,8,6.53,4.7,18.06-2.09,23.71,1.83,7.82,5.42-.55,20.59,7.67,30.4,5.78,6.9,17.41,8.33,25.18,5.4,17.47-6.59,28-40,13-58.81-15.75-19.67-49.81-11.34-55.08-3.8-.3.44-1.46,2.24-2.36,2-2.57-.69.91-19.88-1.57-18.2C325.36,37.37,317,48.2,316,49.3Z"/><path class="cls-2" d="M349.57,70.38q4.9,2.31,9.76,4.7c2.59,1.27,5.92,2.43,7.55,5l1.62-2.82a65.25,65.25,0,0,0-8.67,1.52c-1.57.33-3.43.28-4.57,1.58a3.58,3.58,0,0,0,.12,4.55,44.58,44.58,0,0,0,3.42,3.73c1.16,1.27,2.28,2.58,3.37,3.91a92.85,92.85,0,0,1,6.28,8.74l1.62-2.82a88.61,88.61,0,0,1-11.4-.76,1.88,1.88,0,0,0-1.87,1.87,1.92,1.92,0,0,0,1.87,1.88,88.61,88.61,0,0,0,11.4.76,1.89,1.89,0,0,0,1.62-2.82A98.82,98.82,0,0,0,361,85.45c-.46-.5-.92-1-1.39-1.47-.25-.27-.53-.53-.78-.81-.12-.13-.4-.63-.53-.68-.09-.25-.15-.22-.17.1-.17.34,0,.4.41.19a4.62,4.62,0,0,0,1.09-.19c.59-.1,1.17-.22,1.75-.35A49.41,49.41,0,0,1,368.5,81a1.9,1.9,0,0,0,1.62-2.83c-1.9-2.93-5-4.38-8-5.88q-5.29-2.61-10.63-5.12c-2.17-1-4.07,2.21-1.89,3.24Z"/><path class="cls-4" d="M346.34,105.76c-3.77,2.47-6.68,6-9.32,9.58a27.44,27.44,0,0,0-5.4,11.9,2.58,2.58,0,0,0,1.74,3.08,2.52,2.52,0,0,0,3.08-1.75,23.93,23.93,0,0,1,4.7-10.43,31.16,31.16,0,0,1,7.72-8.06,2.56,2.56,0,0,0,.9-3.42,2.52,2.52,0,0,0-3.42-.9Z"/><path class="cls-4" d="M353.44,111.09c-2,0-3.12,1.65-3.94,3.26a30,30,0,0,0-1.81,4.29,27.83,27.83,0,0,0-1.37,8.78,2.5,2.5,0,0,0,5,0c0-.61,0-1.21.05-1.82,0-.28.05-.56.07-.85l.06-.48c0,.26,0,.25,0-.06a25.18,25.18,0,0,1,.72-3.32c.16-.54.33-1.08.52-1.61.11-.31.23-.61.35-.91-.16.39.1-.23.13-.3.24-.51.49-1,.75-1.52.15-.28.34-.56.48-.85s.13-.22,0,0a1.82,1.82,0,0,1-1,.36,2.52,2.52,0,0,0,2.5-2.5,2.55,2.55,0,0,0-2.5-2.5Z"/><path class="cls-4" d="M309.7,64.12a26.31,26.31,0,0,0-7,.66,10,10,0,0,0-5.05,2.44c-1.28,1.32-2.06,3.8-.49,5.23s4.46,1.18,6.3.62l-1.41-1.84c-1.39,2.39-2.85,5.86-1.8,8.64a3.73,3.73,0,0,0,3.19,2.49,6.71,6.71,0,0,0,4.44-1.78,1.3,1.3,0,0,0,.45-1.71,1.26,1.26,0,0,0-1.71-.44c-1.22.93-3.8,2.56-4.16,0-.29-2,.77-4.27,1.75-6a1.27,1.27,0,0,0-1.41-1.84,6.8,6.8,0,0,1-2.28.32c-.4,0-1.46,0-1.69-.41s.16-1,.38-1.34a4.13,4.13,0,0,1,1.33-1.06,13.15,13.15,0,0,1,4-1.2,23.46,23.46,0,0,1,5.16-.34c1.61.06,1.6-2.44,0-2.5Z"/><path class="cls-4" d="M391.78,97.36h24.35c1.24,0,2.58.16,3.59-.68a4,4,0,0,0,1.2-3c.41-4.47.62-9.54-1.84-13.51a6.17,6.17,0,0,0-10.61-.91c-3.65,4.45-1.69,10.54.46,15.19,1,2.19,4.24.28,3.24-1.89-1.37-3-3-7-1.34-10.13.54-1,1.69-2.18,3-2s2.28,1.85,2.73,3a14.71,14.71,0,0,1,.89,5.09c0,.94,0,1.87-.07,2.8,0,.43,0,.86-.08,1.29s-.24,1.12-.12,1.36.47-.42.48-.39a6.08,6.08,0,0,0-.74,0h-25.1a1.88,1.88,0,0,0,0,3.75Z"/><path class="cls-4" d="M391.78,71.73h24.35c1.24,0,2.58.17,3.59-.67a4,4,0,0,0,1.2-3c.41-4.46.62-9.54-1.84-13.51a6.79,6.79,0,0,0-5.21-3.5,6.7,6.7,0,0,0-5.4,2.59c-3.65,4.46-1.69,10.55.46,15.19,1,2.19,4.24.29,3.24-1.89-1.37-3-3-7-1.34-10.12.54-1,1.69-2.19,3-2s2.28,1.84,2.73,3a14.8,14.8,0,0,1,.89,5.1c0,.93,0,1.86-.07,2.79,0,.43,0,.86-.08,1.29s-.24,1.13-.12,1.37.47-.43.48-.4a6.08,6.08,0,0,0-.74,0h-25.1a1.88,1.88,0,0,0,0,3.75Z"/><path class="cls-2" d="M320.73,75.23a37,37,0,0,0,4.12-5.42l.5-.67c0-.08.16-.23,0-.07.1-.12.2-.24.29-.37.35-.43.71-.86,1.09-1.28.76-.87,1.57-1.69,2.41-2.48a1.87,1.87,0,1,0-2.65-2.65,37.21,37.21,0,0,0-4.7,5.33c-.64.87-1.23,1.78-1.84,2.67l-.47.65-.21.29c.19-.25-.06.06-.09.11a14.94,14.94,0,0,1-1.15,1.24,1.9,1.9,0,0,0,0,2.65,1.93,1.93,0,0,0,2.66,0Z"/><path class="cls-2" d="M317,67A151.77,151.77,0,0,0,332,73a1.88,1.88,0,0,0,2.3-1.31,1.9,1.9,0,0,0-1.3-2.31,140,140,0,0,1-14.06-5.61,1.92,1.92,0,0,0-2.56.67A1.89,1.89,0,0,0,317,67Z"/><path class="cls-2" d="M314.41,56.56a19.47,19.47,0,0,0,6.11,1.89l6.93,1.33a1.53,1.53,0,0,0,1.85-1.05,1.51,1.51,0,0,0-1.05-1.84l-6.69-1.29A18,18,0,0,1,315.93,54a1.5,1.5,0,0,0-1.52,2.59Z"/><path class="cls-2" d="M319.83,62.55l7-9.41a1.5,1.5,0,0,0-.54-2,1.53,1.53,0,0,0-2.05.54l-7,9.41a1.51,1.51,0,0,0,.54,2.05,1.54,1.54,0,0,0,2.05-.54Z"/><g class="cls-5"><path class="cls-4" d="M442.63,127.94a.63.63,0,0,0,0-1.25.63.63,0,0,0,0,1.25Z"/></g></svg>