<svg id="Слой_1" data-name="Слой 1" xmlns="http://www.w3.org/2000/svg" viewBox="0 0 1280 46.29"><defs><style>.cls-1{fill:none;stroke:#fff;stroke-miterlimit:10;stroke-width:4px;}</style></defs><line class="cls-1" x1="1280" y1="44.29" y2="44.29"/><path class="cls-1" d="M0,8H342.63a25.8,25.8,0,0,0,5.26,0c3.32-.71,2.3-7.25,11-8,10.23-.89,6.87,6.09,13.95,8,1.6.43,6.06,0,6.06,0h30.87s1.57-.3,1.95,0c2.25,1.75,1.64,6.41,9,7,9.1.73,8.38-5.42,11-7.5.58-.46,3,0,3,0H983.68s3.33.58,4.21,0c3.14-2,3.3-7.5,13-7.5,8.13,0,9.5,6,12,7.5a18.91,18.91,0,0,0,4.5,2c4.31.81,13,.65,16.43-2s2.51-9.23,16-7.5c5.66.73,6.12,6.9,9,7.5a30,30,0,0,0,5.76,0L1280,7.39" transform="translate(0 2.29)"/></svg>