<svg id="Слой_1" data-name="Слой 1" xmlns="http://www.w3.org/2000/svg" viewBox="0 0 318.56 84.62"><defs><style>.cls-1,.cls-3,.cls-4{fill:#fff;}.cls-1{stroke:#fff;}.cls-1,.cls-3{stroke-miterlimit:10;}.cls-2{fill:#43345d;}.cls-3{stroke:#43345d;stroke-width:3px;}</style></defs><path class="cls-1" d="M56.63,14.11a13.94,13.94,0,0,0-12.56-3c-2.94,1-3.35,1.39-5.21,4-3,4.23,1.35,11.69-1.18,15.35-3.52,5.06-13.34-.35-19.7,5-4.47,3.74-5.39,11.27-3.49,16.31C18.75,63,40.38,69.87,52.57,60.1,65.32,49.9,59.92,27.85,55,24.43c-.29-.19-1.46-.95-1.3-1.52.45-1.67,12.88.58,11.79-1S57.35,14.76,56.63,14.11Z" transform="translate(-3.25 -0.8)"/><path class="cls-2" d="M42.42,35.52c-1,2.15-2.05,4.3-3.1,6.43-.75,1.52-1.44,3.57-2.92,4.54l2.82,1.62a44.33,44.33,0,0,0-1-5.84c-.23-1.16-.25-2.34-1.18-3.2a2.9,2.9,0,0,0-3.49-.2,17.12,17.12,0,0,0-2.59,2.3c-.85.77-1.72,1.53-2.61,2.26a59.7,59.7,0,0,1-5.66,4.08l2.82,1.61A56.93,56.93,0,0,1,26,41.74a1.89,1.89,0,0,0-1.88-1.87,1.91,1.91,0,0,0-1.87,1.87,56.93,56.93,0,0,0-.49,7.38,1.89,1.89,0,0,0,2.82,1.62,65.09,65.09,0,0,0,6-4.32c.9-.72,1.78-1.46,2.63-2.24.45-.4.89-.81,1.33-1.23.22-.21.42-.44.65-.63l.24-.22c.18-.11.2-.1,0,0l-.95-.26c-.2-.43-.26-.48-.19-.16l.09.55c.06.34.12.67.19,1,.11.53.23,1,.35,1.57a21.45,21.45,0,0,1,.54,3.27,1.89,1.89,0,0,0,2.82,1.62c1.92-1.25,2.92-3.17,3.91-5.17,1.18-2.37,2.32-4.76,3.45-7.15A1.93,1.93,0,0,0,45,34.84a1.89,1.89,0,0,0-2.56.68Z" transform="translate(-3.25 -0.8)"/><ellipse class="cls-3" cx="42.51" cy="16.06" rx="3.03" ry="2.98"/><ellipse class="cls-3" cx="48.89" cy="15.81" rx="2.05" ry="2.02"/><path class="cls-4" d="M20.83,33.31A25.73,25.73,0,0,0,14.31,27a18.42,18.42,0,0,0-7.92-3.59,2.57,2.57,0,0,0-3.08,1.75C3,26.31,3.68,28,5.06,28.19a13.94,13.94,0,0,1,1.81.41c.32.09.62.2.93.32s.23.1,0,0l.49.23a21.42,21.42,0,0,1,3.31,2l.71.53c-.28-.21,0,0,.1.08l.35.28q.72.59,1.41,1.2c.49.44,1,.9,1.4,1.38l.56.66c-.22-.27-.05-.06.07.1l.3.45a2.5,2.5,0,1,0,4.32-2.52Z" transform="translate(-3.25 -0.8)"/><path class="cls-4" d="M17.5,38.36c0-1.66-1.22-2.63-2.55-3.32a19.65,19.65,0,0,0-3-1.25A18.89,18.89,0,0,0,6,32.86a2.5,2.5,0,0,0,0,5,17.93,17.93,0,0,1,2.2.14l-.67-.09a17.76,17.76,0,0,1,3.44.82l.37.14.22.09-.24-.1a5.15,5.15,0,0,0,.79.36c.26.12.51.26.76.4a2.71,2.71,0,0,1,.38.22l-.3-.23a2.07,2.07,0,0,1-.4-.71l-.09-.66v.12a2.52,2.52,0,0,0,2.5,2.5,2.55,2.55,0,0,0,2.5-2.5Z" transform="translate(-3.25 -0.8)"/><path class="cls-4" d="M47.48,10A17.1,17.1,0,0,0,47,5.41a6.71,6.71,0,0,0-1.69-3.47c-1-1-2.9-1.51-4-.32s-.92,3.16-.51,4.51l1.84-1.41c-1.66-1-4-1.92-5.94-1.21A2.85,2.85,0,0,0,34.79,6,4.74,4.74,0,0,0,36,9.1a1.29,1.29,0,0,0,1.71.44,1.25,1.25,0,0,0,.45-1.71,3.25,3.25,0,0,1-.87-1.68.26.26,0,0,1,.13-.23c-.21.16.34-.13.09,0a1.62,1.62,0,0,1,.38-.09c-.21,0,.2,0,.2,0l.47,0h0l.26.05c.17,0,.34.08.5.12a8.73,8.73,0,0,1,2.08.9,1.27,1.27,0,0,0,1.84-1.41A4.22,4.22,0,0,1,43,4.11a2.76,2.76,0,0,1,.1-.65s0-.19,0-.1c.09-.14.09-.15,0,0a.28.28,0,0,1-.1.09c0,.11-.1-.14,0,0a.8.8,0,0,1,.16,0c-.11,0,.06,0,.08,0l.23.14c-.08-.06.25.25.24.25a3.39,3.39,0,0,1,.29.46,8.42,8.42,0,0,1,.74,2.46A15.08,15.08,0,0,1,45,10a1.26,1.26,0,0,0,1.25,1.25A1.28,1.28,0,0,0,47.48,10Z" transform="translate(-3.25 -0.8)"/><path class="cls-4" d="M24.85,63.19V79.05a3.72,3.72,0,0,0,.63,2.7,3.18,3.18,0,0,0,2.26,1c3,.31,6.55.4,9.25-1.29a4.65,4.65,0,0,0,.67-7.9c-3.15-2.58-7.31-1.32-10.62.2a1.89,1.89,0,0,0-.67,2.57,1.91,1.91,0,0,0,2.56.67,9.81,9.81,0,0,1,4.63-1.19c.79,0,2.51.65,2.22,1.68s-2.43,1.49-3.35,1.6a16.42,16.42,0,0,1-2.53.06L28.65,79a5,5,0,0,0-.77-.07c-.31,0,0-.13.24.13l.48.83a7.31,7.31,0,0,1,0-1.75v-15a1.88,1.88,0,0,0-3.75,0Z" transform="translate(-3.25 -0.8)"/><path class="cls-4" d="M41.45,63.19V79.05a3.72,3.72,0,0,0,.63,2.7,3.18,3.18,0,0,0,2.26,1c3.05.31,6.56.4,9.25-1.29a5,5,0,0,0,2.57-4,5,5,0,0,0-1.9-3.93c-3.15-2.58-7.31-1.32-10.62.2A1.89,1.89,0,0,0,43,76.29a1.92,1.92,0,0,0,2.57.67,9.74,9.74,0,0,1,4.62-1.19c.79,0,2.51.65,2.23,1.68s-2.44,1.49-3.36,1.6a16.32,16.32,0,0,1-2.52.06L45.25,79a4.9,4.9,0,0,0-.77-.07c-.31,0,0-.13.24.13l.49.83a6.82,6.82,0,0,1,0-1.75v-15a1.88,1.88,0,0,0-3.75,0Z" transform="translate(-3.25 -0.8)"/><path class="cls-1" d="M141.28,14.74a13.94,13.94,0,0,0-12.56-3c-2.94,1-3.35,1.39-5.22,4-3,4.23,1.36,11.69-1.18,15.35-3.51,5.06-13.34-.35-19.69,5-4.47,3.74-5.4,11.27-3.5,16.31,4.27,11.31,25.89,18.17,38.09,8.4,12.74-10.2,7.35-32.25,2.46-35.67-.28-.19-1.45-.95-1.29-1.52.44-1.67,12.87.58,11.79-1S142,15.39,141.28,14.74Z" transform="translate(-3.25 -0.8)"/><path class="cls-2" d="M127.06,36.15c-1,2.15-2,4.3-3.1,6.43-.74,1.52-1.44,3.57-2.92,4.54l2.82,1.62a44.3,44.3,0,0,0-1-5.84c-.24-1.16-.25-2.34-1.18-3.2a2.91,2.91,0,0,0-3.5-.2,17,17,0,0,0-2.58,2.3c-.85.77-1.72,1.53-2.61,2.26a58.49,58.49,0,0,1-5.67,4.07l2.82,1.62a56.94,56.94,0,0,1,.5-7.38,1.89,1.89,0,0,0-1.88-1.87,1.91,1.91,0,0,0-1.87,1.87,56.94,56.94,0,0,0-.5,7.38,1.89,1.89,0,0,0,2.83,1.62,65.09,65.09,0,0,0,6-4.32c.9-.72,1.77-1.47,2.63-2.24.45-.4.89-.81,1.33-1.23.22-.21.42-.44.65-.64l.23-.21c.19-.11.2-.1,0,0l-.94-.26c-.2-.43-.27-.48-.19-.16a5.25,5.25,0,0,0,.09.55c0,.34.12.67.18,1,.11.53.24,1.05.36,1.57a21.42,21.42,0,0,1,.53,3.27,1.9,1.9,0,0,0,2.82,1.62c1.92-1.26,2.93-3.17,3.92-5.17,1.17-2.37,2.32-4.76,3.45-7.15a1.94,1.94,0,0,0-.67-2.57,1.91,1.91,0,0,0-2.57.68Z" transform="translate(-3.25 -0.8)"/><ellipse class="cls-3" cx="127.16" cy="16.69" rx="3.03" ry="2.98"/><ellipse class="cls-3" cx="133.54" cy="16.44" rx="2.05" ry="2.02"/><path class="cls-4" d="M133.79,64.86c3.35-.36,5.39,3.49,6.26,6.18a16.24,16.24,0,0,1,.77,5.67c-.08,1.82-1.07,3.91,0,5.57s3.69,2,5.54,2.23a12.49,12.49,0,0,0,5.2-.25A4.7,4.7,0,0,0,155,80.72,4.81,4.81,0,0,0,152.62,76c-4.08-2.62-8.72,1.32-11.27,4.29-1.57,1.82,1.07,4.48,2.65,2.65a17,17,0,0,1,3.38-3.13c.9-.58,2.2-1.27,3.23-.64.66.4.9,1,.31,1.35a5.6,5.6,0,0,1-3.09.39,15.82,15.82,0,0,1-2.37-.29,7,7,0,0,1-1.21-.33l-.21-.08c-.25-.17-.3-.19-.16-.07a.28.28,0,0,1,.11.23l0,.17c0-.16.07-.31.1-.46s.07-.33.1-.5c.08-.44.14-.89.2-1.33a17.8,17.8,0,0,0,.14-2.53A19.3,19.3,0,0,0,142,66.23c-1.67-2.83-4.67-5.5-8.18-5.12A1.94,1.94,0,0,0,131.91,63a1.88,1.88,0,0,0,1.88,1.87Z" transform="translate(-3.25 -0.8)"/><path class="cls-4" d="M110.86,63.2A11.75,11.75,0,0,1,107.32,68a8.43,8.43,0,0,1-4.46,2.46,7.48,7.48,0,0,1-4.53-.74c-1.66-.87-2.48-2.56-4-3.51a4.8,4.8,0,0,0-5.42.52c-1.62,1.26-2.45,3.25-3.22,5.09a7.27,7.27,0,0,0-.25,6A4.38,4.38,0,0,0,90,80.37c5.1-.7,6.18-8,5.92-12-.15-2.39-3.9-2.41-3.75,0A13.51,13.51,0,0,1,91,75.2c-.27.52-1,1.7-1.74,1.48-.53-.15-.65-1-.65-1.44a7.88,7.88,0,0,1,1-3.21,5.87,5.87,0,0,1,1.64-2.47c.85-.56,1.26-.1,1.84.56a13.62,13.62,0,0,0,2,1.9,11.13,11.13,0,0,0,10.77,1.41,15.83,15.83,0,0,0,5-3.67,14.18,14.18,0,0,0,3.63-5.56c.73-2.31-2.88-3.3-3.61-1Z" transform="translate(-3.25 -0.8)"/><path class="cls-4" d="M105.48,33.94A25.73,25.73,0,0,0,99,27.59,18.36,18.36,0,0,0,91,24,2.57,2.57,0,0,0,88,25.75c-.27,1.19.36,2.87,1.75,3.07a14.32,14.32,0,0,1,1.81.41c.31.09.62.2.93.32s.22.1,0,0l.5.23a21.32,21.32,0,0,1,3.3,2l.71.53.11.08.34.28c.48.39,1,.79,1.42,1.2s1,.9,1.39,1.38c.2.22.38.44.57.66-.23-.27-.05-.06.06.1l.31.45a2.5,2.5,0,0,0,4.32-2.52Z" transform="translate(-3.25 -0.8)"/><path class="cls-4" d="M102.14,39c0-1.66-1.22-2.63-2.54-3.32a20.53,20.53,0,0,0-3-1.25,18.89,18.89,0,0,0-5.92-.93,2.5,2.5,0,0,0,0,5,17.89,17.89,0,0,1,2.19.14l-.66-.09a17.49,17.49,0,0,1,3.43.82l.37.14.22.09c.18.07.1,0-.23-.1a6.91,6.91,0,0,0,.78.36c.26.12.52.26.77.4,0,0,.38.2.38.22l-.3-.23a1.92,1.92,0,0,1-.4-.71l-.09-.66V39a2.52,2.52,0,0,0,2.5,2.5,2.55,2.55,0,0,0,2.5-2.5Z" transform="translate(-3.25 -0.8)"/><path class="cls-4" d="M132.13,10.66A17.94,17.94,0,0,0,131.68,6,6.87,6.87,0,0,0,130,2.57c-1-1-2.9-1.51-4-.32s-.92,3.16-.51,4.51l1.83-1.41c-1.65-1-4-1.92-5.93-1.21a2.86,2.86,0,0,0-1.94,2.49,4.75,4.75,0,0,0,1.21,3.1,1.29,1.29,0,0,0,1.71.44,1.26,1.26,0,0,0,.45-1.71c-.36-.46-.91-1.16-.88-1.68a.29.29,0,0,1,.14-.23c-.21.16.34-.13.09,0a1.66,1.66,0,0,1,.37-.09c-.2,0,.2,0,.2,0a3.87,3.87,0,0,1,.48,0h0l.26,0,.5.12a8.73,8.73,0,0,1,2.08.9,1.27,1.27,0,0,0,1.84-1.41,4,4,0,0,1-.19-1.36,3.4,3.4,0,0,1,.09-.65s0-.19,0-.1c.1-.14.09-.16,0,0a.17.17,0,0,1-.1.1c0,.11-.1-.14,0,0l.17,0c-.11,0,.05,0,.08,0l.23.14c-.08-.06.24.25.24.24s.21.33.29.47a8.41,8.41,0,0,1,.73,2.46,14.46,14.46,0,0,1,.21,3.22,1.26,1.26,0,0,0,1.25,1.25,1.28,1.28,0,0,0,1.25-1.25Z" transform="translate(-3.25 -0.8)"/><path class="cls-1" d="M225.57,14a14,14,0,0,0-12.56-3c-2.93,1-3.35,1.4-5.21,4-3,4.23,1.35,11.7-1.18,15.36-3.52,5.06-13.34-.36-19.7,5-4.47,3.74-5.39,11.27-3.49,16.3,4.26,11.32,25.89,18.17,38.08,8.41,12.75-10.2,7.35-32.26,2.47-35.67-.29-.2-1.46-.95-1.3-1.53.45-1.67,12.88.59,11.79-1S226.29,14.62,225.57,14Z" transform="translate(-3.25 -0.8)"/><path class="cls-2" d="M211.36,35.38c-1,2.16-2.05,4.3-3.1,6.44-.75,1.52-1.44,3.57-2.92,4.53L208.16,48a44.47,44.47,0,0,0-1-5.83c-.23-1.16-.25-2.35-1.17-3.21a2.93,2.93,0,0,0-3.5-.19A16.53,16.53,0,0,0,199.87,41c-.84.78-1.72,1.53-2.61,2.26a58,58,0,0,1-5.66,4.08L194.42,49a56.93,56.93,0,0,1,.49-7.38A1.89,1.89,0,0,0,193,39.73a1.92,1.92,0,0,0-1.88,1.88,56.93,56.93,0,0,0-.49,7.38,1.89,1.89,0,0,0,2.82,1.62,67,67,0,0,0,6-4.32c.9-.72,1.78-1.47,2.63-2.24.45-.41.9-.82,1.33-1.24.22-.2.42-.44.65-.63l.24-.21c.19-.12.2-.1,0,0l-.95-.25c-.2-.43-.26-.49-.19-.17l.09.56c.06.33.12.66.19,1,.11.53.23,1,.35,1.58a20,20,0,0,1,.54,3.26,1.89,1.89,0,0,0,2.82,1.62c1.92-1.25,2.93-3.17,3.91-5.17,1.18-2.37,2.32-4.75,3.45-7.14a1.92,1.92,0,0,0-.67-2.57,1.88,1.88,0,0,0-2.56.67Z" transform="translate(-3.25 -0.8)"/><ellipse class="cls-3" cx="211.45" cy="15.93" rx="3.03" ry="2.98"/><ellipse class="cls-3" cx="217.84" cy="15.68" rx="2.05" ry="2.02"/><path class="cls-4" d="M216.5,63.19c.66,3.32-3.85,5.85-6.37,6.77a15.88,15.88,0,0,1-5.28,1c-1.86,0-4-.72-5.42.83s-1.42,4-1.41,5.88a11.88,11.88,0,0,0,.87,5,4.53,4.53,0,0,0,3.92,2.77,4.82,4.82,0,0,0,4.3-2.81c2.18-4.5-2.25-8.62-5.56-11a1.88,1.88,0,0,0-2.56.67,1.91,1.91,0,0,0,.67,2.57c1.44,1,5.61,4.18,3.94,6.35-1.51,2-1.83-2.89-1.83-3.55a11.94,11.94,0,0,1,.14-2.23c0-.14.29-1,.25-1s0-.06,0-.06c.08.24-.65,0,0,.19a12.22,12.22,0,0,0,4.63,0,19.17,19.17,0,0,0,8.94-3.35c2.92-2.11,5.17-5.28,4.42-9-.47-2.36-4.09-1.36-3.62,1Z" transform="translate(-3.25 -0.8)"/><path class="cls-4" d="M189.77,33.18a25.4,25.4,0,0,0-6.52-6.35,18.3,18.3,0,0,0-7.92-3.59A2.58,2.58,0,0,0,172.25,25c-.27,1.19.37,2.87,1.75,3.08a12.44,12.44,0,0,1,1.81.4c.32.1.62.21.93.32s.23.1,0,0l.5.23a21.87,21.87,0,0,1,3.3,2l.71.52c-.28-.21,0,0,.1.09l.35.27c.48.39.95.79,1.41,1.21a18.23,18.23,0,0,1,1.4,1.38c.19.21.38.43.56.66-.22-.27-.05-.06.07.1l.3.45a2.5,2.5,0,0,0,4.32-2.52Z" transform="translate(-3.25 -0.8)"/><path class="cls-4" d="M186.44,38.22c0-1.65-1.22-2.63-2.55-3.31a20,20,0,0,0-3-1.26,19.28,19.28,0,0,0-5.93-.92,2.5,2.5,0,0,0,0,5,17.92,17.92,0,0,1,2.2.13l-.67-.09a17.08,17.08,0,0,1,3.44.83l.37.14.22.08-.24-.1a5.15,5.15,0,0,0,.79.36l.76.4a2.73,2.73,0,0,1,.38.23l-.3-.24a2.12,2.12,0,0,1-.4-.7l-.09-.66v.11a2.52,2.52,0,0,0,2.5,2.5,2.55,2.55,0,0,0,2.5-2.5Z" transform="translate(-3.25 -0.8)"/><path class="cls-4" d="M216.42,9.89A17.51,17.51,0,0,0,216,5.27a6.88,6.88,0,0,0-1.7-3.47c-1-1-2.9-1.5-4-.32s-.92,3.17-.51,4.52l1.84-1.42c-1.66-1-4-1.92-5.94-1.2a2.84,2.84,0,0,0-1.93,2.48,4.7,4.7,0,0,0,1.2,3.1,1.29,1.29,0,0,0,1.71.45,1.25,1.25,0,0,0,.45-1.71c-.36-.47-.9-1.16-.87-1.69a.28.28,0,0,1,.13-.23c-.21.16.34-.12.09,0a2.34,2.34,0,0,1,.38-.09c-.21,0,.2,0,.2,0l.47,0h0l.26,0,.5.13a9.12,9.12,0,0,1,2.08.89,1.26,1.26,0,0,0,1.84-1.41A4.14,4.14,0,0,1,212,4a2.93,2.93,0,0,1,.1-.65s0-.19,0-.09c.09-.15.09-.16,0,0a.28.28,0,0,1-.1.09c0,.11-.1-.13,0,0l.16,0,.08,0a1.58,1.58,0,0,1,.24.15c-.09-.06.24.24.23.24a3.39,3.39,0,0,1,.29.46,8.61,8.61,0,0,1,.74,2.46,15.08,15.08,0,0,1,.2,3.22,1.26,1.26,0,0,0,1.25,1.25,1.27,1.27,0,0,0,1.25-1.25Z" transform="translate(-3.25 -0.8)"/><path class="cls-4" d="M198.33,64.77l12.44,7.89c2,1.27,4,2.51,5.94,3.91,1.67,1.23,3.13,2.72,4.75,4s3.53,2.61,5.69,2.75,3.9-1.28,4.93-3.16c1.73-3.15,1.71-8.44-2.86-9a5.79,5.79,0,0,0-5.09,2.25c-1.52,2-1.7,4.51-1.78,6.89s3.67,2.41,3.75,0c.05-1.58,0-3.92,1.4-5,1-.73,2-.54,2,.76,0,1.14-.79,3.47-2.13,3.48-1.71,0-3.64-2-4.8-3a77.84,77.84,0,0,0-10.31-7.45l-12-7.63c-2-1.3-3.93,1.95-1.89,3.24Z" transform="translate(-3.25 -0.8)"/><path class="cls-1" d="M312.35,14a14,14,0,0,0-12.56-3c-2.94,1-3.35,1.4-5.22,4-3,4.23,1.36,11.7-1.18,15.36-3.51,5.06-13.34-.36-19.69,5-4.47,3.75-5.4,11.28-3.5,16.31,4.27,11.32,25.89,18.17,38.09,8.41,12.74-10.2,7.35-32.26,2.46-35.67-.29-.2-1.45-.95-1.3-1.53.45-1.67,12.88.59,11.79-1S313.06,14.64,312.35,14Z" transform="translate(-3.25 -0.8)"/><path class="cls-2" d="M298.13,35.4c-1,2.16-2.05,4.3-3.1,6.44-.75,1.52-1.44,3.57-2.92,4.53L294.93,48a46.17,46.17,0,0,0-1-5.83c-.24-1.16-.25-2.35-1.18-3.21a2.91,2.91,0,0,0-3.5-.19,16.46,16.46,0,0,0-2.58,2.29c-.85.78-1.72,1.53-2.61,2.26a58.11,58.11,0,0,1-5.67,4.08L281.19,49a58.76,58.76,0,0,1,.49-7.38,1.88,1.88,0,0,0-1.87-1.88,1.94,1.94,0,0,0-1.88,1.88,58.76,58.76,0,0,0-.49,7.38,1.89,1.89,0,0,0,2.82,1.62,68.65,68.65,0,0,0,6-4.32c.89-.72,1.77-1.47,2.63-2.24l1.33-1.24c.21-.21.42-.44.65-.63l.23-.21c.19-.12.2-.1,0,0l-.95-.25c-.2-.43-.26-.49-.18-.17s.05.37.08.56.12.66.19,1c.11.53.24,1.05.36,1.58a21.1,21.1,0,0,1,.53,3.26A1.9,1.9,0,0,0,294,49.61c1.92-1.25,2.93-3.17,3.92-5.17q1.75-3.55,3.45-7.15a1.93,1.93,0,0,0-.67-2.56,1.89,1.89,0,0,0-2.57.67Z" transform="translate(-3.25 -0.8)"/><path class="cls-4" d="M276.55,33.2A25.44,25.44,0,0,0,270,26.85a18.25,18.25,0,0,0-7.92-3.59A2.56,2.56,0,0,0,259,25c-.27,1.19.36,2.87,1.75,3.08a12.74,12.74,0,0,1,1.81.4l.92.32c.22.08.23.1,0,0l.5.23a22.13,22.13,0,0,1,3.3,2l.71.53c-.28-.21,0,0,.11.09l.34.27c.48.39,1,.79,1.42,1.21a18.09,18.09,0,0,1,1.39,1.38c.19.21.38.43.56.66-.22-.28,0-.06.07.1l.31.45a2.5,2.5,0,0,0,4.32-2.52Z" transform="translate(-3.25 -0.8)"/><path class="cls-4" d="M273.21,37c0-1.66-1.22-2.64-2.54-3.32a21.76,21.76,0,0,0-3-1.26,19.23,19.23,0,0,0-5.93-.92,2.5,2.5,0,1,0,0,5,17.93,17.93,0,0,1,2.2.14l-.66-.09a17.49,17.49,0,0,1,3.43.82l.37.14.22.09c.18.07.1,0-.23-.11a5.08,5.08,0,0,0,.78.37c.26.12.52.26.77.4,0,0,.38.2.38.22l-.3-.23a2.2,2.2,0,0,1-.41-.71l-.09-.66V37a2.53,2.53,0,0,0,2.5,2.5,2.55,2.55,0,0,0,2.5-2.5Z" transform="translate(-3.25 -0.8)"/><path class="cls-4" d="M303.19,9.91a17.51,17.51,0,0,0-.44-4.62,7,7,0,0,0-1.69-3.47c-1-1-2.91-1.5-4-.32s-.92,3.17-.52,4.51l1.84-1.41c-1.65-1-4-1.92-5.94-1.21a2.88,2.88,0,0,0-1.93,2.49A4.71,4.71,0,0,0,291.71,9a1.3,1.3,0,0,0,1.71.45,1.27,1.27,0,0,0,.45-1.71C293.51,7.25,293,6.56,293,6a.32.32,0,0,1,.14-.23c-.21.16.34-.12.09,0a2.49,2.49,0,0,1,.37-.09c-.2,0,.2,0,.2,0a3.62,3.62,0,0,1,.47,0h0l.25,0,.51.13a9.12,9.12,0,0,1,2.08.89A1.26,1.26,0,0,0,299,5.35,3.93,3.93,0,0,1,298.76,4a3.63,3.63,0,0,1,.09-.65s0-.19,0-.09c.09-.15.09-.16,0,0a.22.22,0,0,1-.1.09c-.05.11-.1-.13,0,0l.17,0,.08,0,.23.14c-.08-.06.24.25.24.25a4.79,4.79,0,0,1,.29.46,8.93,8.93,0,0,1,.73,2.46,14.45,14.45,0,0,1,.2,3.22,1.25,1.25,0,1,0,2.5,0Z" transform="translate(-3.25 -0.8)"/><path class="cls-4" d="M280.56,63.07V78.94a3.76,3.76,0,0,0,.63,2.7,3.22,3.22,0,0,0,2.26,1c3.05.31,6.56.39,9.25-1.3a5,5,0,0,0,2.57-4,5,5,0,0,0-1.9-3.93c-3.14-2.59-7.31-1.33-10.62.2a1.9,1.9,0,0,0-.67,2.56,1.92,1.92,0,0,0,2.57.68,9.87,9.87,0,0,1,4.62-1.2c.79.06,2.52.66,2.23,1.69s-2.44,1.48-3.36,1.6a16.29,16.29,0,0,1-2.52,0c-.42,0-.83,0-1.24-.07a4.1,4.1,0,0,0-.78-.06c-.31,0,0-.14.24.12l.49.83a6.81,6.81,0,0,1,0-1.75v-15a1.88,1.88,0,0,0-3.75,0Z" transform="translate(-3.25 -0.8)"/><path class="cls-4" d="M297.16,63.07V78.94a3.67,3.67,0,0,0,.63,2.7,3.21,3.21,0,0,0,2.25,1c3,.31,6.56.39,9.26-1.3a4.64,4.64,0,0,0,.67-7.89c-3.15-2.59-7.31-1.33-10.62.2a1.89,1.89,0,0,0-.68,2.56,1.93,1.93,0,0,0,2.57.68,9.9,9.9,0,0,1,4.62-1.2c.79.06,2.52.66,2.23,1.69s-2.43,1.48-3.35,1.6a16.45,16.45,0,0,1-2.53,0c-.41,0-.83,0-1.24-.07a4,4,0,0,0-.77-.06c-.31,0,0-.14.24.12l.48.83a7.3,7.3,0,0,1,0-1.75v-15c0-2.41-3.74-2.41-3.75,0Z" transform="translate(-3.25 -0.8)"/><path class="cls-2" d="M295.09,17.52a23.94,23.94,0,0,0,3.64,2.77l.44.33c.22.16,0-.07-.09-.08s.19.15.24.19c.28.23.56.46.83.7.56.5,1.09,1,1.6,1.56a1.9,1.9,0,0,0,2.66,0,1.92,1.92,0,0,0,0-2.65,25.56,25.56,0,0,0-3.59-3.14c-.56-.42-1.15-.8-1.73-1.2l-.42-.3-.19-.14c.41.28.16.12.07,0a9.47,9.47,0,0,1-.81-.74,1.89,1.89,0,0,0-2.65,0,1.91,1.91,0,0,0,0,2.65Z" transform="translate(-3.25 -0.8)"/><path class="cls-2" d="M300.34,14.31a98.51,98.51,0,0,0-3.95,9.84,1.87,1.87,0,0,0,1.31,2.3A1.92,1.92,0,0,0,300,25.14c.48-1.41,1-2.81,1.52-4.2l.45-1.13c.08-.18.15-.36.23-.55s.05-.12,0,0l.15-.36q.6-1.38,1.23-2.73a1.92,1.92,0,0,0-.68-2.57,1.9,1.9,0,0,0-2.56.68Z" transform="translate(-3.25 -0.8)"/><path class="cls-2" d="M307.19,12.7a12.92,12.92,0,0,0-1.27,4.08l-.87,4.49a1.53,1.53,0,0,0,1.05,1.84,1.51,1.51,0,0,0,1.84-1l.84-4.34c.13-.64.24-1.29.4-1.92a9.31,9.31,0,0,1,.28-.94s.19-.42.06-.16l.26-.5a1.5,1.5,0,1,0-2.59-1.51Z" transform="translate(-3.25 -0.8)"/><path class="cls-2" d="M303.5,16.93l6.1,4.53a1.5,1.5,0,0,0,1.15.16,1.5,1.5,0,0,0,.36-2.75L305,14.34a1.51,1.51,0,0,0-2.06.54,1.55,1.55,0,0,0,.54,2Z" transform="translate(-3.25 -0.8)"/></svg>