<svg id="Слой_1" data-name="Слой 1" xmlns="http://www.w3.org/2000/svg" viewBox="0 0 31.84 28.63"><defs><style>.cls-1{fill:#f90;}.cls-2{fill:#fff;}</style></defs><path class="cls-1" d="M14.8,20.42a3.42,3.42,0,0,1-2.19,4.27,3.31,3.31,0,0,1-4-1.76,3.4,3.4,0,0,1,1.47-4.46c-.12-.31-.23-.63-.35-.94Q6.88,10,4.05,2.47A.22.22,0,0,0,3.8,2.3H1.14A1.14,1.14,0,0,1,.64.13,1.17,1.17,0,0,1,1.16,0H4.75A1.1,1.1,0,0,1,5.87.78c.33.85.65,1.7,1,2.55.08.21.15.43.24.64a.3.3,0,0,0,.17.12h22a1.15,1.15,0,0,1,1.12,1.58l-3,9.91a1.17,1.17,0,0,1-1.24.91H11.8c.17.44.33.86.48,1.27s.13.35.5.35H24.62a3.37,3.37,0,1,1-3.24,3.5,4.18,4.18,0,0,1,0-.5,4,4,0,0,1,.12-.66ZM14.58,9.91l-.27-3.49H8v.1c.41,1.09.83,2.18,1.23,3.28,0,.12.12.13.23.13h5.09Zm7.15,0h4.92c.12,0,.16,0,.19-.15.22-.74.45-1.47.67-2.2.12-.38.24-.76.36-1.16H22Zm-6,0H20.6l.26-3.49H15.43Zm.09,1.18.24,3.11h4.21l.24-3.11Zm-.9,3.12V14c-.07-.89-.14-1.79-.2-2.68,0-.17-.07-.21-.23-.21H9.75l1.18,3.13Zm6.49,0h3.94c.12,0,.15-.06.18-.15.18-.6.37-1.2.55-1.8l.35-1.18H21.64Zm4.33,7.29a1,1,0,1,0-1,1A1,1,0,0,0,25.74,21.5Zm-15.14,0a1,1,0,0,0,2.09,0,1.05,1.05,0,0,0-2.1,0h0Z" transform="translate(0.01 -0.01)"/><circle class="cls-2" cx="24.71" cy="21.49" r="7.13"/></svg>