<svg width="188" height="64" viewBox="0 0 188 64" fill="none" xmlns="http://www.w3.org/2000/svg">
<path d="M64.1703 29.2C62.7036 29.2 61.4436 28.9067 60.3903 28.32C59.3503 27.72 58.5503 26.88 57.9903 25.8C57.4303 24.7067 57.1503 23.42 57.1503 21.94C57.1503 20.46 57.4303 19.18 57.9903 18.1C58.5503 17.02 59.3503 16.1867 60.3903 15.6C61.4436 15 62.7036 14.7 64.1703 14.7C64.9036 14.7 65.6236 14.7933 66.3303 14.98C67.037 15.1667 67.657 15.4333 68.1903 15.78C68.537 16.0067 68.7436 16.28 68.8103 16.6C68.877 16.9067 68.837 17.1933 68.6903 17.46C68.5436 17.7133 68.3236 17.8867 68.0303 17.98C67.737 18.06 67.4103 17.98 67.0503 17.74C66.637 17.4733 66.1903 17.28 65.7103 17.16C65.2303 17.04 64.7436 16.98 64.2503 16.98C62.8236 16.98 61.737 17.4133 60.9903 18.28C60.2436 19.1333 59.8703 20.3533 59.8703 21.94C59.8703 23.5267 60.2436 24.7533 60.9903 25.62C61.737 26.4867 62.8236 26.92 64.2503 26.92C64.757 26.92 65.257 26.86 65.7503 26.74C66.2436 26.6067 66.7103 26.4067 67.1503 26.14C67.5103 25.9133 67.8303 25.84 68.1103 25.92C68.3903 26 68.597 26.1667 68.7303 26.42C68.877 26.66 68.9236 26.9267 68.8703 27.22C68.817 27.5133 68.637 27.7733 68.3303 28C67.797 28.3867 67.157 28.6867 66.4103 28.9C65.677 29.1 64.9303 29.2 64.1703 29.2ZM78.9241 29.16C78.0974 29.16 77.6841 28.7333 77.6841 27.88V21.18H74.6041V22.32C74.6041 24.1733 74.3707 25.64 73.9041 26.72C73.4507 27.8 72.7041 28.56 71.6641 29C71.3041 29.1467 70.9907 29.1667 70.7241 29.06C70.4574 28.9533 70.2574 28.78 70.1241 28.54C70.0041 28.2867 69.9774 28.02 70.0441 27.74C70.1107 27.46 70.3107 27.2267 70.6441 27.04C71.3107 26.6533 71.7507 26.08 71.9641 25.32C72.1907 24.56 72.3041 23.5333 72.3041 22.24V20.62C72.3041 19.6867 72.7707 19.22 73.7041 19.22H78.7841C79.7174 19.22 80.1841 19.6867 80.1841 20.62V27.88C80.1841 28.7333 79.7641 29.16 78.9241 29.16ZM85.5177 32.76C85.0643 32.76 84.751 32.5933 84.5777 32.26C84.4043 31.9267 84.411 31.5467 84.5977 31.12L85.7377 28.6L82.3177 20.72C82.131 20.28 82.131 19.8933 82.3177 19.56C82.5043 19.2267 82.871 19.06 83.4177 19.06C83.7243 19.06 83.971 19.1333 84.1577 19.28C84.3443 19.4133 84.511 19.6733 84.6577 20.06L87.0577 26.06L89.5177 20.04C89.6643 19.6667 89.8377 19.4133 90.0377 19.28C90.2377 19.1333 90.5043 19.06 90.8377 19.06C91.2643 19.06 91.5643 19.2267 91.7377 19.56C91.911 19.8933 91.9043 20.2733 91.7177 20.7L86.8577 31.8C86.6843 32.1733 86.4977 32.4267 86.2977 32.56C86.0977 32.6933 85.8377 32.76 85.5177 32.76ZM100.658 29.16C99.8318 29.16 99.4184 28.7333 99.4184 27.88V24.96H98.4184C97.9784 24.96 97.6318 25.04 97.3784 25.2C97.1251 25.36 96.8651 25.6667 96.5984 26.12L95.2584 28.46C95.0584 28.8067 94.7984 29.0133 94.4784 29.08C94.1718 29.16 93.8784 29.1333 93.5984 29C93.3184 28.8667 93.1184 28.6667 92.9984 28.4C92.8918 28.12 92.9384 27.8067 93.1384 27.46L94.3384 25.36C94.5918 24.92 94.8451 24.5533 95.0984 24.26C95.3651 23.9533 95.6518 23.7267 95.9584 23.58L93.9584 20.88C93.7184 20.56 93.6251 20.26 93.6784 19.98C93.7451 19.7 93.8918 19.48 94.1184 19.32C94.3451 19.16 94.6051 19.1 94.8984 19.14C95.2051 19.1667 95.4784 19.34 95.7184 19.66L98.2384 23.02H99.4184V20.36C99.4184 19.5067 99.8318 19.08 100.658 19.08C101.498 19.08 101.918 19.5067 101.918 20.36V23.02H103.098L105.598 19.66C105.838 19.34 106.105 19.16 106.398 19.12C106.705 19.08 106.972 19.14 107.198 19.3C107.438 19.46 107.585 19.68 107.638 19.96C107.705 20.24 107.618 20.54 107.378 20.86L105.358 23.58C105.678 23.74 105.965 23.9667 106.218 24.26C106.485 24.54 106.745 24.9067 106.998 25.36L108.178 27.46C108.378 27.8067 108.418 28.12 108.298 28.4C108.192 28.6667 107.998 28.8667 107.718 29C107.438 29.1333 107.145 29.16 106.838 29.08C106.532 29.0133 106.278 28.8067 106.078 28.46L104.738 26.12C104.485 25.6667 104.225 25.36 103.958 25.2C103.692 25.04 103.345 24.96 102.918 24.96H101.918V27.88C101.918 28.7333 101.498 29.16 100.658 29.16ZM114.922 29.2C113.349 29.2 112.102 28.72 111.182 27.76C110.275 26.8 109.822 25.3867 109.822 23.52V22.06C109.822 20.0867 110.262 18.5867 111.142 17.56C112.035 16.52 113.342 15.7933 115.062 15.38L117.662 14.74C118.009 14.6467 118.302 14.6667 118.542 14.8C118.782 14.92 118.935 15.1467 119.002 15.48C119.069 15.8133 119.015 16.1 118.842 16.34C118.669 16.5667 118.402 16.72 118.042 16.8L115.242 17.46C114.242 17.7 113.482 18.1467 112.962 18.8C112.442 19.44 112.182 20.2533 112.182 21.24V21.34C112.475 20.74 112.909 20.2533 113.482 19.88C114.069 19.5067 114.782 19.32 115.622 19.32C116.435 19.32 117.155 19.52 117.782 19.92C118.422 20.3067 118.922 20.86 119.282 21.58C119.642 22.3 119.822 23.16 119.822 24.16C119.822 25.1867 119.615 26.08 119.202 26.84C118.802 27.5867 118.235 28.1667 117.502 28.58C116.769 28.9933 115.909 29.2 114.922 29.2ZM114.822 27.3C115.609 27.3 116.215 27.04 116.642 26.52C117.082 26 117.302 25.2467 117.302 24.26C117.302 23.2867 117.082 22.54 116.642 22.02C116.215 21.4867 115.609 21.22 114.822 21.22C114.049 21.22 113.442 21.48 113.002 22C112.562 22.52 112.342 23.24 112.342 24.16C112.342 25.1867 112.555 25.9667 112.982 26.5C113.422 27.0333 114.035 27.3 114.822 27.3ZM125.379 29.2C124.672 29.2 124.039 29.0667 123.479 28.8C122.932 28.52 122.499 28.1467 122.179 27.68C121.872 27.2133 121.719 26.6867 121.719 26.1C121.719 25.38 121.905 24.8133 122.279 24.4C122.652 23.9733 123.259 23.6667 124.099 23.48C124.939 23.2933 126.065 23.2 127.479 23.2H128.179V22.78C128.179 22.1133 128.032 21.6333 127.739 21.34C127.445 21.0467 126.952 20.9 126.259 20.9C125.872 20.9 125.452 20.9467 124.999 21.04C124.559 21.1333 124.092 21.2933 123.599 21.52C123.279 21.6667 123.012 21.6867 122.799 21.58C122.585 21.46 122.439 21.28 122.359 21.04C122.292 20.7867 122.305 20.5333 122.399 20.28C122.505 20.0267 122.712 19.84 123.019 19.72C123.632 19.4667 124.219 19.2867 124.779 19.18C125.352 19.0733 125.872 19.02 126.339 19.02C127.765 19.02 128.825 19.3533 129.519 20.02C130.212 20.6733 130.559 21.6933 130.559 23.08V27.88C130.559 28.7333 130.172 29.16 129.399 29.16C128.612 29.16 128.219 28.7333 128.219 27.88V27.44C127.992 27.9867 127.632 28.42 127.139 28.74C126.645 29.0467 126.059 29.2 125.379 29.2ZM125.899 27.48C126.552 27.48 127.092 27.2533 127.519 26.8C127.959 26.3467 128.179 25.7733 128.179 25.08V24.64H127.499C126.245 24.64 125.372 24.74 124.879 24.94C124.399 25.1267 124.159 25.4733 124.159 25.98C124.159 26.42 124.312 26.78 124.619 27.06C124.925 27.34 125.352 27.48 125.899 27.48ZM40.7816 49.16C39.9416 49.16 39.5216 48.7333 39.5216 47.88V40.62C39.5216 39.6867 39.9882 39.22 40.9216 39.22H47.3816C48.3149 39.22 48.7816 39.6867 48.7816 40.62V47.88C48.7816 48.7333 48.3616 49.16 47.5216 49.16C46.6949 49.16 46.2816 48.7333 46.2816 47.88V41.18H42.0216V47.88C42.0216 48.7333 41.6082 49.16 40.7816 49.16ZM56.1109 49.2C55.0976 49.2 54.2176 48.9933 53.4709 48.58C52.7243 48.1667 52.1443 47.58 51.7309 46.82C51.3176 46.0467 51.1109 45.14 51.1109 44.1C51.1109 43.06 51.3176 42.16 51.7309 41.4C52.1443 40.64 52.7243 40.0533 53.4709 39.64C54.2176 39.2267 55.0976 39.02 56.1109 39.02C57.1243 39.02 58.0043 39.2267 58.7509 39.64C59.4976 40.0533 60.0776 40.64 60.4909 41.4C60.9043 42.16 61.1109 43.06 61.1109 44.1C61.1109 45.14 60.9043 46.0467 60.4909 46.82C60.0776 47.58 59.4976 48.1667 58.7509 48.58C58.0043 48.9933 57.1243 49.2 56.1109 49.2ZM56.1109 47.3C56.8576 47.3 57.4576 47.0333 57.9109 46.5C58.3643 45.9533 58.5909 45.1533 58.5909 44.1C58.5909 43.0333 58.3643 42.24 57.9109 41.72C57.4576 41.1867 56.8576 40.92 56.1109 40.92C55.3643 40.92 54.7643 41.1867 54.3109 41.72C53.8576 42.24 53.6309 43.0333 53.6309 44.1C53.6309 45.1533 53.8576 45.9533 54.3109 46.5C54.7643 47.0333 55.3643 47.3 56.1109 47.3ZM63.6078 51.76C62.8878 51.76 62.5278 51.3867 62.5278 50.64V48.2C62.5278 47.4267 62.9145 47.04 63.6878 47.04C64.0611 46.4133 64.3278 45.7133 64.4878 44.94C64.6478 44.1667 64.7278 43.1867 64.7278 42V40.62C64.7278 39.6867 65.1945 39.22 66.1278 39.22H70.9478C71.8811 39.22 72.3478 39.6867 72.3478 40.62V47.04H72.7878C73.5611 47.04 73.9478 47.4267 73.9478 48.2V50.64C73.9478 51.3867 73.5945 51.76 72.8878 51.76C72.1811 51.76 71.8278 51.3867 71.8278 50.64V49H64.6478V50.64C64.6478 51.3867 64.3011 51.76 63.6078 51.76ZM65.9078 47.04H70.0078V41.14H66.8678V42.58C66.8678 43.42 66.7811 44.2333 66.6078 45.02C66.4478 45.8067 66.2145 46.48 65.9078 47.04ZM75.9711 51.76C75.2511 51.76 74.8911 51.3867 74.8911 50.64V48.2C74.8911 47.4267 75.2778 47.04 76.0511 47.04C76.4244 46.4133 76.6911 45.7133 76.8511 44.94C77.0111 44.1667 77.0911 43.1867 77.0911 42V40.62C77.0911 39.6867 77.5578 39.22 78.4911 39.22H83.3111C84.2444 39.22 84.7111 39.6867 84.7111 40.62V47.04H85.1511C85.9244 47.04 86.3111 47.4267 86.3111 48.2V50.64C86.3111 51.3867 85.9578 51.76 85.2511 51.76C84.5444 51.76 84.1911 51.3867 84.1911 50.64V49H77.0111V50.64C77.0111 51.3867 76.6644 51.76 75.9711 51.76ZM78.2711 47.04H82.3711V41.14H79.2311V42.58C79.2311 43.42 79.1444 44.2333 78.9711 45.02C78.8111 45.8067 78.5778 46.48 78.2711 47.04ZM92.9944 49.2C91.8877 49.2 90.9344 48.9933 90.1344 48.58C89.3344 48.1667 88.7144 47.58 88.2744 46.82C87.8477 46.06 87.6344 45.16 87.6344 44.12C87.6344 43.1067 87.841 42.22 88.2544 41.46C88.681 40.7 89.261 40.1067 89.9944 39.68C90.741 39.24 91.5877 39.02 92.5344 39.02C93.921 39.02 95.0144 39.46 95.8144 40.34C96.6277 41.22 97.0344 42.42 97.0344 43.94C97.0344 44.4333 96.7144 44.68 96.0744 44.68H90.0344C90.221 46.4267 91.221 47.3 93.0344 47.3C93.381 47.3 93.7677 47.26 94.1944 47.18C94.6344 47.0867 95.0477 46.9333 95.4344 46.72C95.781 46.52 96.0744 46.46 96.3144 46.54C96.5544 46.6067 96.721 46.7467 96.8144 46.96C96.921 47.1733 96.9344 47.4133 96.8544 47.68C96.7877 47.9333 96.601 48.1533 96.2944 48.34C95.8277 48.6333 95.2877 48.8533 94.6744 49C94.0744 49.1333 93.5144 49.2 92.9944 49.2ZM92.6344 40.72C91.901 40.72 91.3077 40.9467 90.8544 41.4C90.401 41.8533 90.1277 42.4667 90.0344 43.24H94.9544C94.901 42.4267 94.6744 41.8067 94.2744 41.38C93.8877 40.94 93.341 40.72 92.6344 40.72ZM100.528 52.76C99.701 52.76 99.2877 52.34 99.2877 51.5V40.32C99.2877 39.48 99.6943 39.06 100.508 39.06C101.334 39.06 101.748 39.48 101.748 40.32V40.74C102.028 40.22 102.448 39.8067 103.008 39.5C103.568 39.18 104.208 39.02 104.928 39.02C105.781 39.02 106.528 39.2267 107.168 39.64C107.821 40.0533 108.328 40.64 108.688 41.4C109.048 42.1467 109.228 43.0467 109.228 44.1C109.228 45.14 109.048 46.0467 108.688 46.82C108.328 47.58 107.828 48.1667 107.188 48.58C106.548 48.9933 105.794 49.2 104.928 49.2C104.234 49.2 103.608 49.0533 103.048 48.76C102.501 48.4533 102.081 48.0467 101.788 47.54V51.5C101.788 52.34 101.368 52.76 100.528 52.76ZM104.228 47.3C104.974 47.3 105.574 47.0333 106.028 46.5C106.481 45.9533 106.708 45.1533 106.708 44.1C106.708 43.0333 106.481 42.24 106.028 41.72C105.574 41.1867 104.974 40.92 104.228 40.92C103.481 40.92 102.881 41.1867 102.428 41.72C101.974 42.24 101.748 43.0333 101.748 44.1C101.748 45.1533 101.974 45.9533 102.428 46.5C102.881 47.0333 103.481 47.3 104.228 47.3ZM118.393 49.16C117.566 49.16 117.153 48.7333 117.153 47.88V44.96H116.153C115.713 44.96 115.366 45.04 115.113 45.2C114.859 45.36 114.599 45.6667 114.333 46.12L112.993 48.46C112.793 48.8067 112.533 49.0133 112.213 49.08C111.906 49.16 111.613 49.1333 111.333 49C111.053 48.8667 110.853 48.6667 110.733 48.4C110.626 48.12 110.673 47.8067 110.873 47.46L112.073 45.36C112.326 44.92 112.579 44.5533 112.833 44.26C113.099 43.9533 113.386 43.7267 113.693 43.58L111.693 40.88C111.453 40.56 111.359 40.26 111.413 39.98C111.479 39.7 111.626 39.48 111.853 39.32C112.079 39.16 112.339 39.1 112.633 39.14C112.939 39.1667 113.213 39.34 113.453 39.66L115.973 43.02H117.153V40.36C117.153 39.5067 117.566 39.08 118.393 39.08C119.233 39.08 119.653 39.5067 119.653 40.36V43.02H120.833L123.333 39.66C123.573 39.34 123.839 39.16 124.133 39.12C124.439 39.08 124.706 39.14 124.933 39.3C125.173 39.46 125.319 39.68 125.373 39.96C125.439 40.24 125.353 40.54 125.113 40.86L123.093 43.58C123.413 43.74 123.699 43.9667 123.953 44.26C124.219 44.54 124.479 44.9067 124.733 45.36L125.913 47.46C126.113 47.8067 126.153 48.12 126.033 48.4C125.926 48.6667 125.733 48.8667 125.453 49C125.173 49.1333 124.879 49.16 124.573 49.08C124.266 49.0133 124.013 48.8067 123.813 48.46L122.473 46.12C122.219 45.6667 121.959 45.36 121.693 45.2C121.426 45.04 121.079 44.96 120.653 44.96H119.653V47.88C119.653 48.7333 119.233 49.16 118.393 49.16ZM129.336 49.16C128.496 49.16 128.076 48.7333 128.076 47.88V40.36C128.076 39.5067 128.496 39.08 129.336 39.08C130.163 39.08 130.576 39.5067 130.576 40.36V43.02H131.996L134.496 39.66C134.736 39.34 135.003 39.16 135.296 39.12C135.603 39.08 135.876 39.14 136.116 39.3C136.356 39.46 136.51 39.68 136.576 39.96C136.643 40.24 136.556 40.54 136.316 40.86L134.316 43.6C134.623 43.76 134.896 43.9867 135.136 44.28C135.39 44.56 135.643 44.92 135.896 45.36L137.076 47.46C137.276 47.8067 137.316 48.12 137.196 48.4C137.09 48.68 136.896 48.88 136.616 49C136.336 49.1333 136.043 49.16 135.736 49.08C135.43 49.0133 135.176 48.8067 134.976 48.46L133.636 46.12C133.383 45.6667 133.123 45.36 132.856 45.2C132.603 45.04 132.256 44.96 131.816 44.96H130.576V47.88C130.576 48.7333 130.163 49.16 129.336 49.16ZM140.408 49.16C139.635 49.16 139.248 48.7133 139.248 47.82V40.26C139.248 39.46 139.628 39.06 140.388 39.06C141.135 39.06 141.508 39.46 141.508 40.26V45.74L145.928 39.86C146.075 39.6733 146.255 39.4933 146.468 39.32C146.681 39.1467 146.975 39.06 147.348 39.06C148.108 39.06 148.488 39.5 148.488 40.38V47.96C148.488 48.76 148.115 49.16 147.368 49.16C146.608 49.16 146.228 48.76 146.228 47.96V42.48L141.808 48.36C141.675 48.5467 141.501 48.7267 141.288 48.9C141.088 49.0733 140.795 49.16 140.408 49.16Z" fill="white"/>
<rect x="0.5" y="0.5" width="187" height="63" rx="31.5" stroke="white"/>
</svg>
