<svg width="126" height="66" viewBox="0 0 126 66" fill="none" xmlns="http://www.w3.org/2000/svg">
<g filter="url(#filter0_d_5_11)">
<g filter="url(#filter1_d_5_11)">
<rect x="12" y="12" width="102" height="40" rx="20" stroke="white" stroke-width="2" shape-rendering="crispEdges"/>
</g>
<path d="M41.6859 24.1525C41.6962 23.6484 41.5416 23.1553 41.247 22.7527C40.9524 22.35 40.5349 22.0613 40.0617 21.9328C39.0752 21.6442 38.0412 22.066 37.1882 22.5588C35.6586 23.4534 34.4362 24.8154 33.6901 26.4566C33.0051 27.9883 32.5958 29.9017 33.4488 31.4644C34.4224 33.2402 36.7962 33.2712 38.1274 31.8861C39.0795 30.8961 39.4974 29.3689 40.0962 28.1436L38.1274 27.2913C37.6966 28.8806 37.4381 30.5232 37.0892 32.1347C36.7617 33.6619 36.4429 35.2734 35.5641 36.5387C35.1374 37.1813 34.5635 37.7055 33.8932 38.0649C33.2228 38.4242 32.4768 38.6075 31.7213 38.5986C31.0215 38.5637 30.3481 38.3126 29.7887 37.8779C29.2294 37.4432 28.8099 36.8451 28.585 36.1613C28.193 34.794 26.1165 35.3755 26.5085 36.7518C27.4477 40.0325 31.1483 41.6352 34.1597 40.3788C35.7149 39.7313 37.0044 38.5484 37.8086 37.0315C38.4429 35.6945 38.8952 34.2738 39.1527 32.8095C39.5103 31.1714 39.7645 29.5021 40.2082 27.8861C40.5313 26.7008 38.7995 25.8839 38.2394 27.0293C37.7267 28.077 37.3218 29.1869 36.71 30.1858L36.598 30.3501C36.667 30.2568 36.6799 30.2391 36.6325 30.2923C36.5552 30.3697 36.47 30.4382 36.3783 30.4966C36.2758 30.5735 36.1591 30.6281 36.0354 30.6571C35.9117 30.6861 35.7836 30.6889 35.6589 30.6653C35.2927 30.5631 35.1634 30.0526 35.1333 29.6442C35.0385 28.3123 35.758 26.8562 36.6196 25.8662C37.0936 25.3124 37.6542 24.8442 38.2782 24.4811C38.5795 24.2575 38.9253 24.1059 39.2906 24.0371C39.3856 24.0384 39.4794 24.0595 39.5663 24.0993C39.5663 24.0993 39.5663 23.8107 39.5318 24.1303C39.5318 24.4247 39.6453 24.707 39.8473 24.9151C40.0493 25.1233 40.3232 25.2402 40.6089 25.2402C40.8945 25.2402 41.1684 25.1233 41.3704 24.9151C41.5724 24.707 41.6859 24.4247 41.6859 24.1303V24.1525Z" fill="white"/>
<path d="M50.3495 34.8297C51.2111 32.0728 51.8917 27.2826 48.553 25.9508C47.0495 25.3337 45.3865 26.0352 44.3181 27.145C43.2849 28.3181 42.4255 29.6421 41.7677 31.074C40.9317 32.7166 40.2466 34.4363 39.7214 36.2104C39.3164 37.5778 41.3929 38.1638 41.7979 36.8009C42.2666 35.2105 42.8796 33.6691 43.6288 32.1971C44.0137 31.4424 44.4316 30.7025 44.8825 29.9774C45.228 29.3617 45.6774 28.8145 46.2094 28.3614C46.4346 28.1698 46.7028 28.0394 46.9895 27.982C47.2762 27.9246 47.5723 27.9421 47.8508 28.0329C48.0794 28.1658 48.278 28.3474 48.4333 28.5656C48.5885 28.7837 48.6969 29.0335 48.7512 29.2982C49.182 30.8609 48.7296 32.7521 48.273 34.2526C47.8421 35.62 49.9359 36.2015 50.3495 34.8431V34.8297Z" fill="white"/>
<path d="M50.1254 31.4689C49.5573 30.9702 48.824 30.7172 48.0791 30.763C47.2907 30.763 46.5023 30.794 45.7182 30.8651C44.1067 31.0058 42.5098 31.288 40.9449 31.7086C39.6051 32.0726 40.1694 34.2169 41.5135 33.8528C42.7849 33.5004 44.0814 33.2525 45.3908 33.1115C46.0672 33.0449 46.7479 33.0005 47.4329 32.9872H48.2945C48.5314 32.9872 48.2557 32.9872 48.4711 32.9872C48.596 33.0315 48.6133 33.0315 48.5314 32.9872C48.6434 33.0493 48.6607 33.0626 48.5831 33.0138C48.6793 33.1275 48.7969 33.2197 48.9289 33.285C49.0608 33.3502 49.2043 33.3871 49.3505 33.3933C49.4967 33.3995 49.6426 33.375 49.7793 33.3211C49.916 33.2673 50.0407 33.1853 50.1456 33.0802C50.2505 32.9751 50.3336 32.849 50.3897 32.7098C50.4458 32.5705 50.4737 32.4209 50.4718 32.2701C50.4699 32.1193 50.4382 31.9704 50.3787 31.8327C50.3191 31.6949 50.233 31.5711 50.1254 31.4689V31.4689Z" fill="white"/>
<path d="M54.2267 27.2958C53.457 30.1193 52.739 32.9576 52.0727 35.8107C52.0031 36.0948 52.0426 36.3956 52.1831 36.6504C52.3236 36.9052 52.5541 37.0942 52.8266 37.178C53.1019 37.2532 53.3948 37.2138 53.6422 37.0685C53.8896 36.9232 54.0717 36.6835 54.1492 36.4011C54.8126 33.548 55.5307 30.7097 56.3032 27.8862C56.6824 26.5055 54.6059 25.9195 54.2267 27.2958V27.2958Z" fill="white"/>
<path d="M54.7394 27.8286C56.2965 29.4915 57.9619 31.043 59.7239 32.4723C60.2236 32.8808 61.0766 32.9562 61.4126 32.2504L64.6696 25.4491L62.9765 25.6755C63.3728 26.1505 63.4073 26.9008 63.4461 27.4957C63.5236 28.3836 63.6227 29.307 63.7605 30.2082C64.0396 32.0398 64.4721 33.843 65.053 35.5977C65.1352 35.8779 65.3188 36.1148 65.5658 36.2594C65.8127 36.404 66.1042 36.4453 66.3799 36.3746C66.654 36.2938 66.8864 36.1051 67.0266 35.8493C67.1669 35.5934 67.2038 35.291 67.1295 35.0073C66.4952 33.1238 66.0364 31.1824 65.7595 29.2093C65.5182 27.4335 65.6733 25.5379 64.4671 24.1039C64.3497 23.9853 64.2077 23.8957 64.0518 23.8418C63.8959 23.788 63.7302 23.7714 63.5671 23.7932C63.4041 23.815 63.248 23.8746 63.1106 23.9677C62.9732 24.0608 62.8581 24.1848 62.774 24.3303L59.5559 31.1405L61.2446 30.9185C59.4831 29.4822 57.8178 27.9248 56.2602 26.2571C55.2952 25.2271 53.7744 26.7987 54.7394 27.8242V27.8286Z" fill="white"/>
<path d="M70.7697 30.5809C71.9544 31.0959 73.0358 30.8739 74.1774 30.3456C75.0864 29.9017 76.0687 29.3823 76.6201 28.4855C76.9275 28.0213 77.0787 27.466 77.0507 26.9048C77.0227 26.3435 76.817 25.8072 76.465 25.3779C75.6766 24.49 74.4187 24.4411 73.402 24.8585C71.5323 25.6265 69.9555 27.2469 68.8483 28.965C67.8273 30.5854 66.7503 32.9605 68.0298 34.7363C68.3771 35.1943 68.8138 35.5721 69.3118 35.8451C69.8098 36.1181 70.3578 36.2803 70.9205 36.3212C72.1871 36.4455 73.4235 35.9838 74.5824 35.5176C74.8531 35.431 75.0816 35.2415 75.2217 34.9875C75.3617 34.7336 75.4027 34.4342 75.3363 34.1503C75.2578 33.8676 75.0749 33.6278 74.8268 33.4826C74.5787 33.3373 74.2852 33.2981 74.0094 33.3734C73.29 33.7089 72.5333 33.9519 71.7563 34.097C71.2465 34.1941 70.7198 34.1112 70.2614 33.8617C70.0832 33.7818 69.928 33.6562 69.8103 33.4969C69.6927 33.3375 69.6166 33.1498 69.5893 32.9516C69.5247 32.339 69.8736 31.6198 70.1321 31.1048C70.7165 29.89 71.543 28.8159 72.5576 27.9528C73.0291 27.5318 73.5573 27.1834 74.1257 26.9184C74.3526 26.7957 74.6173 26.7702 74.8624 26.8473C74.8021 26.8163 74.9313 26.9139 74.94 26.9272C74.8883 26.8296 74.94 26.9272 74.9055 27.0072C74.8397 27.2152 74.7224 27.4018 74.5651 27.5488C74.2988 27.7612 74.0097 27.9414 73.7035 28.086C73.2426 28.3346 72.3853 28.8762 71.8424 28.6409C71.5934 28.5027 71.3028 28.467 71.0293 28.5412C70.7558 28.6154 70.5198 28.7938 70.3691 29.0404C70.2273 29.2953 70.1885 29.5974 70.2611 29.8814C70.3336 30.1655 70.5117 30.4088 70.7568 30.5587L70.7697 30.5809Z" fill="white"/>
<path d="M99.3983 28.3627C101.453 29.5063 101.453 32.4617 99.3984 33.6053L90.1211 38.7688C88.1215 39.8818 85.6621 38.436 85.6621 36.1475V25.8205C85.6621 23.532 88.1215 22.0862 90.1211 23.1992L99.3983 28.3627Z" fill="white"/>
</g>
<defs>
<filter id="filter0_d_5_11" x="2" y="0" width="124" height="62" filterUnits="userSpaceOnUse" color-interpolation-filters="sRGB">
<feFlood flood-opacity="0" result="BackgroundImageFix"/>
<feColorMatrix in="SourceAlpha" type="matrix" values="0 0 0 0 0 0 0 0 0 0 0 0 0 0 0 0 0 0 127 0" result="hardAlpha"/>
<feOffset dx="1" dy="-1"/>
<feGaussianBlur stdDeviation="5"/>
<feComposite in2="hardAlpha" operator="out"/>
<feColorMatrix type="matrix" values="0 0 0 0 0.953056 0 0 0 0 0.930208 0 0 0 0 0.979167 0 0 0 1 0"/>
<feBlend mode="normal" in2="BackgroundImageFix" result="effect1_dropShadow_5_11"/>
<feBlend mode="normal" in="SourceGraphic" in2="effect1_dropShadow_5_11" result="shape"/>
</filter>
<filter id="filter1_d_5_11" x="0" y="2" width="126" height="64" filterUnits="userSpaceOnUse" color-interpolation-filters="sRGB">
<feFlood flood-opacity="0" result="BackgroundImageFix"/>
<feColorMatrix in="SourceAlpha" type="matrix" values="0 0 0 0 0 0 0 0 0 0 0 0 0 0 0 0 0 0 127 0" result="hardAlpha"/>
<feMorphology radius="5" operator="dilate" in="SourceAlpha" result="effect1_dropShadow_5_11"/>
<feOffset dy="2"/>
<feGaussianBlur stdDeviation="3"/>
<feComposite in2="hardAlpha" operator="out"/>
<feColorMatrix type="matrix" values="0 0 0 0 1 0 0 0 0 1 0 0 0 0 1 0 0 0 1 0"/>
<feBlend mode="normal" in2="BackgroundImageFix" result="effect1_dropShadow_5_11"/>
<feBlend mode="normal" in="SourceGraphic" in2="effect1_dropShadow_5_11" result="shape"/>
</filter>
</defs>
</svg>
