<svg id="Слой_1" data-name="Слой 1" xmlns="http://www.w3.org/2000/svg" viewBox="0 0 1284 46.29"><defs><style>.cls-1{fill:#43345d;stroke:#fff;stroke-miterlimit:10;stroke-width:4px;}</style></defs><path class="cls-1" d="M0,8H341.72A26,26,0,0,0,347,8c3.33-.71,2.31-7.25,11-8,10.27-.89,6.89,6.09,14,8,1.6.43,6.08,0,6.08,0h31s1.57-.3,2,0c2.25,1.75,1.64,6.41,9,7,9.13.73,8.4-5.42,11-7.5.58-.46,3,0,3,0h550.8s3.34.58,4.23,0c3.14-2,3.3-7.5,13-7.5,8.15,0,9.53,6,12,7.5a19.18,19.18,0,0,0,4.52,2c4.32.81,13.06.65,16.48-2s2.52-9.23,16-7.5c5.68.73,6.13,6.9,9,7.5a30.14,30.14,0,0,0,5.77,0H1280V42H0Z" transform="translate(2 2.29)"/></svg>